<svg height="64" viewBox="0 0 512 512" width="64" xmlns="http://www.w3.org/2000/svg"><g fill-rule="evenodd"><path d="m493.550781 485.851562v-333.40625l-96.277343-.214843c-.996094-.003907-1.929688-.414063-2.625-1.125-.707032-.722657-1.09375-1.6875-1.09375-2.699219l-.28125-136.496094h-117.539063c-3.71875 0-7.21875 1.527344-9.804687 4.183594-2.625 2.691406-4.078126 6.296875-4.074219 10.054688l.195312 132.851562.179688 216-.179688 110.851562c-.007812 3.757813 1.445313 7.363282 4.070313 10.054688 2.585937 2.65625 6.089844 4.183594 9.808594 4.183594h203.742187c3.71875 0 7.222656-1.527344 9.804687-4.183594 2.625-2.691406 4.074219-6.296875 4.074219-10.054688zm0 0" fill="#f0f0fb"/><path d="m351.179688 359v-184c0-8.800781-7.203126-16-16-16h-184.679688c-8.800781 0-16 7.199219-16 16v184c0 8.800781 7.199219 16 16 16h184.679688c8.796874 0 16-7.199219 16-16zm0 0" fill="#00d8ce"/><path d="m393.175781 14.105469 100.535157 141.105469-96.539063-.21875c-1.148437-.003907-2.230469-.476563-3.027344-1.296876-.804687-.828124-1.253906-1.9375-1.253906-3.09375zm0 0" fill="#bfbfcf"/></g><path d="m501.4375 149.292969-98.734375-144.921875c-1.859375-2.734375-4.953125-4.371094-8.261719-4.371094h-227.667968c-13.011719 0-23.597657 10.746094-23.597657 23.957031v125.042969h-117.175781c-14.335938 0-26 11.664062-26 26v184c0 14.335938 11.664062 26 26 26h117.175781v103.042969c0 13.210937 10.585938 23.957031 23.597657 23.957031h312.800781c13.015625 0 23.601562-10.746094 23.601562-23.957031v-333.117188c0-2.011719-.605469-3.972656-1.738281-5.632812zm-98.261719-108.714844 70.9375 104.128906h-70.9375zm-383.175781 318.421875v-184c0-3.253906 2.746094-6 6-6h309.179688c3.25 0 6 2.746094 6 6v184c0 3.253906-2.75 6-6 6h-309.179688c-3.253906 0-6-2.746094-6-6zm459.574219 133h-22.742188v-52.289062c0-5.523438-4.476562-10-10-10-5.523437 0-10 4.476562-10 10v52.289062h-270.058593c-1.949219 0-3.597657-1.8125-3.597657-3.957031v-103.042969h172.003907c14.335937 0 26-11.664062 26-26v-184c0-14.335938-11.664063-26-26-26h-172.003907v-125.042969c0-2.144531 1.648438-3.957031 3.597657-3.957031h216.402343v130.601562c0 7.777344 6.277344 14.105469 14 14.105469h86v323.335938c0 2.144531-1.652343 3.957031-3.601562 3.957031zm0 0"/><path d="m446.832031 391.570312c-5.523437 0-10 4.476563-10 10v.613282c0 5.519531 4.476563 10 10 10 5.523438 0 10-4.480469 10-10v-.613282c0-5.523437-4.476562-10-10-10zm0 0"/><path d="m227.339844 267c0-30.1875-24.5625-54.75-54.75-54.75h-20c-5.523438 0-10 4.476562-10 10v89.5c0 5.523438 4.476562 10 10 10h20c30.1875 0 54.75-24.558594 54.75-54.75zm-64.75-34.75h10c19.160156 0 34.75 15.589844 34.75 34.75s-15.589844 34.75-34.75 34.75h-10zm0 0"/><path d="m93.339844 232.25h20c5.523437 0 10-4.476562 10-10s-4.476563-10-10-10h-20c-30.191406 0-54.75 24.5625-54.75 54.75 0 30.191406 24.558594 54.75 54.75 54.75h20c5.523437 0 10-4.476562 10-10s-4.476563-10-10-10h-20c-19.160156 0-34.75-15.589844-34.75-34.75s15.589844-34.75 34.75-34.75zm0 0"/><path d="m254.089844 321.75c5.519531 0 10-4.476562 10-10v-25.914062l42.261718 33.730468c1.839844 1.46875 4.042969 2.183594 6.230469 2.183594 2.9375 0 5.847657-1.289062 7.820313-3.761719 3.445312-4.316406 2.742187-10.609375-1.578125-14.054687l-32.179688-25.683594h2.941407c18.195312 0 33-14.804688 33-33s-14.804688-33-33-33h-35.5c-5.523438 0-10 4.476562-10 10v89.5c.003906 5.523438 4.480468 10 10.003906 10zm10-89.5h25.5c7.167968 0 13 5.832031 13 13s-5.832032 13-13 13h-25.5zm0 0"/></svg>