<svg id="cloud-computing" xmlns="http://www.w3.org/2000/svg" width="80" height="68" viewBox="0 0 80 68">
  <g id="Group_671" data-name="Group 671">
    <path id="Path_998" data-name="Path 998" d="M67.967,26.092A22.829,22.829,0,0,0,45.445,4.5a23.5,23.5,0,0,0-18.595,9.344c-.1-.052-.2-.087-.3-.136-.264-.128-.532-.251-.807-.359-.153-.06-.307-.115-.461-.169-.269-.095-.541-.177-.82-.253-.155-.041-.308-.084-.465-.12-.3-.068-.6-.12-.911-.165-.136-.02-.269-.047-.407-.063a12.371,12.371,0,0,0-1.343-.079,12.014,12.014,0,0,0-12,12c0,.172.009.34.021.508A18.437,18.437,0,0,0,0,40.705,17.147,17.147,0,0,0,17.127,57.833H24a1.333,1.333,0,1,0,0-2.667H17.127A14.477,14.477,0,0,1,2.667,40.705a15.851,15.851,0,0,1,8.576-13.671L12,26.673v-.84c0-.164.011-.332.02-.5l.012-.233-.016-.251c-.007-.116-.016-.232-.016-.349a9.271,9.271,0,0,1,10.556-9.244c.1.013.207.031.309.048a9.155,9.155,0,0,1,1.056.236c.045.013.092.021.136.035A9.147,9.147,0,0,1,25.175,16c.092.041.183.087.273.132a9.123,9.123,0,0,1,.943.532A9.327,9.327,0,0,1,30.667,24.5a1.333,1.333,0,0,0,2.667,0,11.972,11.972,0,0,0-4.267-9.161A21.117,21.117,0,0,1,45.445,7.167a20.128,20.128,0,0,1,19.8,18.516,25.389,25.389,0,0,0-5.444.167A1.334,1.334,0,0,0,60,28.5a1.311,1.311,0,0,0,.2-.016,24.583,24.583,0,0,1,6.245,0A13.665,13.665,0,0,1,77.333,41.8,13.387,13.387,0,0,1,63.963,55.167h-5.3a1.333,1.333,0,1,0,0,2.667h5.3A16.056,16.056,0,0,0,80,41.8,16.409,16.409,0,0,0,67.967,26.092Z" transform="translate(0 -4.5)" fill="#d5d5d5"/>
    <path id="Path_999" data-name="Path 999" d="M34.944,30.892a1.32,1.32,0,0,0-.435-.289,1.337,1.337,0,0,0-1.453.289L22.391,41.557a1.333,1.333,0,1,0,1.885,1.885l8.391-8.391V62.5a1.333,1.333,0,0,0,2.667,0V35.052l8.391,8.391a1.333,1.333,0,0,0,1.885-1.885Z" transform="translate(7.333 4.167)" fill="#d5d5d5"/>
  </g>
</svg>
