<svg id="Group_673" data-name="Group 673" xmlns="http://www.w3.org/2000/svg" width="64" height="65.122" viewBox="0 0 64 65.122">
  <g id="Group_672" data-name="Group 672">
    <g id="Group_379" data-name="Group 379" transform="translate(14.641 1.515)">
      <path id="Path_1168" data-name="Path 1168" d="M282.328,72.192V29.786l-12.245-.028a.469.469,0,0,1-.334-.143.492.492,0,0,1-.139-.343l-.036-17.361H253.352a1.738,1.738,0,0,0-1.248.532,1.827,1.827,0,0,0-.518,1.279l.025,16.9.023,27.474-.023,14.1a1.826,1.826,0,0,0,.518,1.279,1.74,1.74,0,0,0,1.248.532h27.186a1.74,1.74,0,0,0,1.248-.532A1.828,1.828,0,0,0,282.328,72.192Zm0,0" transform="translate(-234.227 -11.91)" fill="#f0f0fb" fill-rule="evenodd"/>
      <path id="Path_1169" data-name="Path 1169" d="M145.1,184.438v-23.4A2.041,2.041,0,0,0,143.063,159H117.141a2.041,2.041,0,0,0-2.035,2.035v23.4a2.041,2.041,0,0,0,2.035,2.035h25.922A2.041,2.041,0,0,0,145.1,184.438Zm0,0" transform="translate(-115.105 -140.291)" fill="#3cd772" fill-rule="evenodd"/>
      <path id="Path_1170" data-name="Path 1170" d="M392.657,14.105l12.787,17.947-12.279-.028a.54.54,0,0,1-.385-.164.563.563,0,0,1-.16-.394Zm0,0" transform="translate(-357.323 -13.826)" fill="#bfbfcf" fill-rule="evenodd"/>
    </g>
  </g>
  <path id="Path_1174" data-name="Path 1174" d="M63.779,18.989,51.221.556A1.271,1.271,0,0,0,50.17,0H21.212a3.028,3.028,0,0,0-3,3.047v15.9H3.307A3.311,3.311,0,0,0,0,22.259v23.4a3.311,3.311,0,0,0,3.307,3.307h14.9V62.075a3.028,3.028,0,0,0,3,3.047H61a3.028,3.028,0,0,0,3-3.047V19.7A1.278,1.278,0,0,0,63.779,18.989ZM51.28,5.161,60.3,18.406H51.28ZM2.544,45.662v-23.4a.773.773,0,0,1,.763-.763H42.632a.773.773,0,0,1,.763.763v23.4a.773.773,0,0,1-.763.763H3.307A.773.773,0,0,1,2.544,45.662ZM61,62.579H58.105V55.928a1.272,1.272,0,1,0-2.544,0v6.651H21.212a.489.489,0,0,1-.458-.5V48.969H42.632a3.311,3.311,0,0,0,3.307-3.307v-23.4a3.311,3.311,0,0,0-3.307-3.307H20.754V3.047a.489.489,0,0,1,.458-.5H48.736V19.155a1.79,1.79,0,0,0,1.781,1.794H61.456V62.075A.489.489,0,0,1,61,62.579Zm0,0"/>
  <g id="Group_554" data-name="Group 554" transform="translate(7.799 26.273)">
    <path id="Path_1225" data-name="Path 1225" d="M193.4,291.311h5.592a1.4,1.4,0,1,0,0-2.8H194.8v-2.8h2.8a1.4,1.4,0,0,0,0-2.8h-2.8v-2.8h4.194a1.4,1.4,0,1,0,0-2.8H193.4a1.4,1.4,0,0,0-1.4,1.4v11.183A1.4,1.4,0,0,0,193.4,291.311Z" transform="translate(-192 -277.332)"/>
    <path id="Path_1226" data-name="Path 1226" d="M278.731,291.312a1.4,1.4,0,0,0,1.4-1.4V285.72h1.4a4.194,4.194,0,0,0,0-8.387h-2.8a1.4,1.4,0,0,0-1.4,1.4v11.183A1.4,1.4,0,0,0,278.731,291.312Zm1.4-11.183h1.4a1.4,1.4,0,1,1,0,2.8h-1.4v-2.8Z" transform="translate(-266.15 -277.333)"/>
    <path id="Path_1227" data-name="Path 1227" d="M366.861,288.516h-2.8a1.4,1.4,0,1,0,0,2.8h2.8a4.194,4.194,0,0,0,0-8.387,1.4,1.4,0,1,1,0-2.8h2.8a1.4,1.4,0,1,0,0-2.8h-2.8a4.194,4.194,0,0,0,0,8.387,1.4,1.4,0,0,1,0,2.8Z" transform="translate(-340.301 -277.332)"/>
  </g>
</svg>
