<svg id="Group_321" data-name="Group 321" xmlns="http://www.w3.org/2000/svg" width="132" height="132" viewBox="0 0 132 132">
  <ellipse id="Ellipse_27" data-name="Ellipse 27" cx="66" cy="65.868" rx="66" ry="65.868" fill="#f2f2f2"/>
  <g id="Group_318" data-name="Group 318" transform="translate(5 10)">
    <path id="Path_1077" data-name="Path 1077" d="M118.187,10H19.8a9.552,9.552,0,0,0-9.552,9.552v63.52H127.739V19.552A9.552,9.552,0,0,0,118.187,10Zm0,0" transform="translate(-8.25 -8)" fill="#fff"/>
    <path id="Path_1078" data-name="Path 1078" d="M127.739,316v9.552a9.552,9.552,0,0,1-9.552,9.552H19.8a9.552,9.552,0,0,1-9.552-9.552V316Zm0,0" transform="translate(-7.802 -240.733)" fill="#3a5361"/>
    <path id="Path_1080" data-name="Path 1080" d="M204.01,471.552H156.25A9.555,9.555,0,0,1,165.8,462h28.656A9.552,9.552,0,0,1,204.01,471.552Zm0,0" transform="translate(-118.938 -351.94)" fill="#3a5361"/>
    <path id="Path_1082" data-name="Path 1082" d="M216.25,396h19.1v15.761h-19.1Zm0,0" transform="translate(-164.61 -301.701)" fill="#3a5361"/>
    <path id="Path_1086" data-name="Path 1086" d="M308.388,346a2.388,2.388,0,1,0,2.388,2.388A2.389,2.389,0,0,0,308.388,346Zm0,0" transform="translate(-232.928 -263.562)"/>
    <path id="Path_1087" data-name="Path 1087" d="M110.325,0H11.94A11.94,11.94,0,0,0,0,11.914V84.828A11.94,11.94,0,0,0,11.94,96.742H49.192V107.7H46.8a11.93,11.93,0,0,0-11.94,11.914A2.385,2.385,0,0,0,37.253,122h47.76a2.385,2.385,0,0,0,2.388-2.383A11.94,11.94,0,0,0,75.46,107.7H73.072V96.742h37.253a11.94,11.94,0,0,0,11.94-11.914V11.914A11.94,11.94,0,0,0,110.325,0ZM11.94,4.766h98.385a7.164,7.164,0,0,1,7.164,7.148v61H4.776v-61A7.164,7.164,0,0,1,11.94,4.766ZM82.215,117.234H40.047a7.175,7.175,0,0,1,6.757-4.766H75.46A7.174,7.174,0,0,1,82.215,117.234ZM68.3,107.7H53.968V96.742H68.3Zm42.028-15.727H11.94a7.164,7.164,0,0,1-7.164-7.148V77.68H117.489v7.148A7.164,7.164,0,0,1,110.325,91.977Zm0,0"/>
    <path id="Path_1088" data-name="Path 1088" d="M222.716,346H208.388a2.388,2.388,0,1,0,0,4.776h14.328a2.388,2.388,0,0,0,0-4.776Zm0,0" transform="translate(-156.808 -263.562)"/>
    <g id="painting" transform="translate(30.854 14.541)">
      <path id="Path_1101" data-name="Path 1101" d="M141.872,42.668H86.781a1.45,1.45,0,0,0-1.449,1.449V99.208h57.99V44.117A1.45,1.45,0,0,0,141.872,42.668Zm0,0" transform="translate(-83.882 -41.218)" fill="#b0d3f0"/>
      <path id="Path_1102" data-name="Path 1102" d="M244.829,187.734v20.3c-3.03,0-6.567.131-10.293.072h-.261c-1.3-.014-2.624-.058-3.943-.145-7.5-.449-15.165-2.044-20.3-7.176a21.512,21.512,0,0,0-2.421-2.073,85.684,85.684,0,0,1,17.411-6.988l13.092-3.03c.855-.145,1.652-.276,2.363-.377C243.19,187.894,244.829,187.734,244.829,187.734Zm0,0" transform="translate(-185.388 -161.639)" fill="#b5d55b"/>
      <path id="Path_1104" data-name="Path 1104" d="M143.322,44.117v23.2s-2.609.246-6.712.957L123.518,71.3a85.684,85.684,0,0,0-17.411,6.988,13.945,13.945,0,0,0-1.841-1.3A35.952,35.952,0,0,0,92.61,72.967c-3.334-.652-6.133-.971-7.278-1.3V44.117a1.45,1.45,0,0,1,1.449-1.449h55.091A1.45,1.45,0,0,1,143.322,44.117Zm0,0" transform="translate(-83.882 -41.218)" fill="#2fc5ff"/>
      <path id="Path_1106" data-name="Path 1106" d="M119.628,72.615a4.349,4.349,0,1,1-4.349-4.35A4.349,4.349,0,0,1,119.628,72.615Zm0,0" transform="translate(-105.131 -62.467)" fill="#ffe944"/>
      <path id="Path_1107" data-name="Path 1107" d="M307.526,128.164a8.7,8.7,0,1,1-8.7-8.7A8.7,8.7,0,0,1,307.526,128.164Zm0,0" transform="translate(-253.885 -104.968)" fill="#d6ef63"/>
      <path id="Path_1108" data-name="Path 1108" d="M107.078,240.877H85.332V213.332c1.145.334,3.943.652,7.278,1.3h1.02c.435,1.7,4.749,4.494,3.3,14.643C95.7,237.891,107.078,240.877,107.078,240.877Zm0,0" transform="translate(-83.882 -182.887)" fill="#d6ef63"/>
      <path id="Path_1109" data-name="Path 1109" d="M178.738,232.422v11.6H142.494s-11.381-2.986-10.148-11.6c1.189-8.321-1.484-11.971-2.991-13.827-.279-.3-.9-.69-1.047-1.076l-.312-.4a32.4,32.4,0,0,1,13.526,5.983,21.512,21.512,0,0,1,2.421,2.073c5.132,5.132,12.8,6.727,20.3,7.176,1.319.087,2.639.131,3.943.145h.261c2.059.029,4.06.015,5.944-.029C175.925,232.451,177.389,232.422,178.738,232.422Zm0,0" transform="translate(-119.298 -186.03)" fill="#1b4e01"/>
      <path id="Path_1115" data-name="Path 1115" d="M137.687,90.673V37.032a2.9,2.9,0,0,0-2.9-2.9H79.7a2.9,2.9,0,0,0-2.9,2.9V94.216h60.89Zm-37.471,0c-1.224-.4-8.922-3.189-8.922-10.148-.008-1.033-1.167-11.358-1.893-12.776a38.3,38.3,0,0,1,8.754,4.615c3.217,2.573,1.556,1.235,2.26,1.935,4.513,4.513,11.129,6.914,20.754,7.558a1.459,1.459,0,0,0,.571.119,1.356,1.356,0,0,0,.29-.06c1.952.11,3.895.145,5.765.145,1.605,0,3.16-.027,4.628-.05.813-.013,1.594-.025,2.361-.032v8.694Zm34.571-11.588c-.78.007-1.578.019-2.408.032-2.833.046-5.995.086-9.19-.052v-11.7a10.149,10.149,0,0,0,7.266-4.861c1.822-.306,3.307-.515,4.332-.644Zm-11.6-14.653V59.379l2.475-2.475a1.45,1.45,0,0,0-2.05-2.05l-1.874,1.874-1.875-1.874a1.45,1.45,0,0,0-2.05,2.05l2.475,2.475v5.054a7.249,7.249,0,1,1,2.9,0Zm-7.012,1.376a10.067,10.067,0,0,0,4.113,1.553V78.875c-8.287-.694-14-2.8-17.822-6.625-.27-.268-.56-.524-.847-.782a86.144,86.144,0,0,1,14.556-5.661ZM79.7,37.032h55.091v21.9c-.749.092-1.8.232-3.105.435a10.148,10.148,0,1,0-17.966,4.155,84.864,84.864,0,0,0-14.615,6c-2.11-1.4-9.625-4.589-9.625-4.589s-6.949-3.383-9.78-2.744V37.032Zm0,30.377V65.332s5.072-.04,6.036.933c1.392,1.428,2.643,12.887,2.662,14.26a12.31,12.31,0,0,0,5.533,10.148H79.7Z" transform="translate(-76.797 -34.133)"/>
      <path id="Path_1116" data-name="Path 1116" d="M119.628,72.615a4.349,4.349,0,1,0-4.349,4.349A4.349,4.349,0,0,0,119.628,72.615Zm-5.8,0a1.45,1.45,0,1,1,1.45,1.449A1.45,1.45,0,0,1,113.829,72.615Zm0,0" transform="translate(-105.131 -62.467)"/>
    </g>
  </g>
</svg>
