<svg xmlns="http://www.w3.org/2000/svg" width="132" height="132" viewBox="0 0 132 132">
  <g id="Group_666" data-name="Group 666" transform="translate(-3289 -6796)">
    <ellipse id="Ellipse_99" data-name="Ellipse 99" cx="66" cy="65.868" rx="66" ry="65.868" transform="translate(3289 6796)" fill="#f2f2f2"/>
    <g id="computer" transform="translate(3294 6806)">
      <path id="Path_1077" data-name="Path 1077" d="M118.187,10H19.8a9.552,9.552,0,0,0-9.552,9.552v63.52H127.739V19.552A9.552,9.552,0,0,0,118.187,10Zm0,0" transform="translate(-7.802 -7.612)" fill="#fff"/>
      <path id="Path_1078" data-name="Path 1078" d="M127.739,316v9.552a9.552,9.552,0,0,1-9.552,9.552H19.8a9.552,9.552,0,0,1-9.552-9.552V316Zm0,0" transform="translate(-7.802 -240.733)" fill="#3a5361"/>
      <path id="Path_1079" data-name="Path 1079" d="M375.354,133.312h-19.1V76h19.1Zm0,0" transform="translate(-271.178 -57.851)" fill="#d6ef63"/>
      <path id="Path_1080" data-name="Path 1080" d="M204.01,471.552H156.25A9.555,9.555,0,0,1,165.8,462h28.656A9.552,9.552,0,0,1,204.01,471.552Zm0,0" transform="translate(-118.938 -351.94)" fill="#3a5361"/>
      <path id="Path_1081" data-name="Path 1081" d="M235.717,89.644a9.553,9.553,0,1,1-16.556,0l8.28-14.335Zm0,0" transform="translate(-165.852 -57.325)" fill="#2fc5ff"/>
      <path id="Path_1082" data-name="Path 1082" d="M216.25,396h19.1v15.761h-19.1Zm0,0" transform="translate(-164.61 -301.701)" fill="#3a5361"/>
      <path id="Path_1083" data-name="Path 1083" d="M240.578,285.552H226.25c0-3.449.081-6.639.213-9.552h13.912C240.5,278.9,240.578,282.089,240.578,285.552Zm0,0" transform="translate(-172.222 -210.246)" fill="#015e90"/>
      <path id="Path_1084" data-name="Path 1084" d="M85.8,76l9.552,19.1H76.25Zm0,0" transform="translate(-58.042 -57.851)" fill="#2fc5ff"/>
      <path id="Path_1085" data-name="Path 1085" d="M76.25,156v38.208h19.1V156Zm0,0" transform="translate(-58.042 -118.865)" fill="#007fc4"/>
      <path id="Path_1086" data-name="Path 1086" d="M308.388,346a2.388,2.388,0,1,0,2.388,2.388A2.389,2.389,0,0,0,308.388,346Zm0,0" transform="translate(-232.928 -263.562)"/>
      <path id="Path_1087" data-name="Path 1087" d="M110.325,0H11.94A11.94,11.94,0,0,0,0,11.914V84.828A11.94,11.94,0,0,0,11.94,96.742H49.192V107.7H46.8a11.93,11.93,0,0,0-11.94,11.914A2.385,2.385,0,0,0,37.253,122h47.76a2.385,2.385,0,0,0,2.388-2.383A11.94,11.94,0,0,0,75.46,107.7H73.072V96.742h37.253a11.94,11.94,0,0,0,11.94-11.914V11.914A11.94,11.94,0,0,0,110.325,0ZM11.94,4.766h98.385a7.164,7.164,0,0,1,7.164,7.148v61H106.5v-54.8a2.385,2.385,0,0,0-2.388-2.383h-19.1a2.385,2.385,0,0,0-2.388,2.383v54.8H70.671c-.025-2.465-.09-4.894-.192-7.251A152.945,152.945,0,0,0,68.613,46.6a11.9,11.9,0,0,0,3.26-15.541L63.6,16.753a2.391,2.391,0,0,0-4.136,0L51.18,31.058A11.9,11.9,0,0,0,53.808,46.1a150.944,150.944,0,0,0-2.013,19.563c-.107,2.382-.175,4.813-.2,7.255H39.64V37.172a2.366,2.366,0,0,0-.236-1.029c-.007-.012-.01-.025-.016-.037L29.837,17.044a2.391,2.391,0,0,0-4.272,0L16.013,36.106c-.006.012-.009.025-.015.037a2.364,2.364,0,0,0-.237,1.029V72.914H4.776v-61A7.164,7.164,0,0,1,11.94,4.766ZM87.4,72.914V20.492h14.328v4.766H99.34a2.383,2.383,0,1,0,0,4.766h2.388v7.148H99.34a2.383,2.383,0,1,0,0,4.766h2.388v7.148H99.34a2.383,2.383,0,1,0,0,4.766h2.388v9.531H99.34a2.383,2.383,0,1,0,0,4.766h2.388v4.766ZM61.529,48.921a11.982,11.982,0,0,0,2.576-.286c.443,2.834,1.094,7.849,1.479,14.747H56.7c.4-6.893,1.086-11.987,1.557-14.917A11.979,11.979,0,0,0,61.529,48.921Zm0-4.766A7.158,7.158,0,0,1,55.317,33.44l6.212-10.73,6.208,10.729A7.153,7.153,0,0,1,61.529,44.156ZM56.477,68.148h9.318c.05,1.566.085,3.158.1,4.766H56.369C56.387,71.317,56.424,69.724,56.477,68.148ZM30.089,72.914V39.555h4.776V72.914Zm-9.552,0V39.555h4.776V72.914Zm1.476-38.125L27.7,23.437l5.688,11.352Zm60.2,82.445H40.047a7.175,7.175,0,0,1,6.757-4.766H75.46A7.174,7.174,0,0,1,82.215,117.234ZM68.3,107.7H53.968V96.742H68.3Zm42.028-15.727H11.94a7.164,7.164,0,0,1-7.164-7.148V77.68H117.489v7.148A7.164,7.164,0,0,1,110.325,91.977Zm0,0"/>
      <path id="Path_1088" data-name="Path 1088" d="M222.716,346H208.388a2.388,2.388,0,1,0,0,4.776h14.328a2.388,2.388,0,0,0,0-4.776Zm0,0" transform="translate(-156.808 -263.562)"/>
    </g>
  </g>
</svg>
