<svg id="illustrator_1_" data-name="illustrator (1)" xmlns="http://www.w3.org/2000/svg" width="57.004" height="65.122" viewBox="0 0 57.004 65.122">
  <g id="Group_380" data-name="Group 380" transform="translate(11.447 1.515)">
    <path id="Path_1176" data-name="Path 1176" d="M337.927,14.105l12.787,17.947-12.279-.028a.536.536,0,0,1-.385-.164.563.563,0,0,1-.16-.394Zm0,0" transform="translate(-306.361 -13.826)" fill="#bfbfcf" fill-rule="evenodd"/>
    <path id="Path_1177" data-name="Path 1177" d="M233.073,72.192V29.786l-12.246-.028a.465.465,0,0,1-.334-.143.489.489,0,0,1-.139-.343l-.036-17.361H204.895a1.738,1.738,0,0,0-1.248.532,1.827,1.827,0,0,0-.518,1.279l.025,16.9.023,27.473-.023,14.1a1.824,1.824,0,0,0,.518,1.279,1.737,1.737,0,0,0,1.247.532h26.388a1.737,1.737,0,0,0,1.247-.532A1.829,1.829,0,0,0,233.073,72.192Zm0,0" transform="translate(-188.74 -11.91)" fill="#f0f0fb" fill-rule="evenodd"/>
    <path id="Path_1178" data-name="Path 1178" d="M109.229,184.438v-23.4A2.041,2.041,0,0,0,107.194,159H92.035A2.041,2.041,0,0,0,90,161.035v23.4a2.041,2.041,0,0,0,2.035,2.035h15.159A2.041,2.041,0,0,0,109.229,184.438Zm0,0" transform="translate(-90 -140.291)" fill="#ff8346" fill-rule="evenodd"/>
  </g>
  <path id="Path_1179" data-name="Path 1179" d="M56.783,18.989,44.226.556A1.272,1.272,0,0,0,43.174,0H14.217a3.028,3.028,0,0,0-3,3.047v15.9H3.306A3.311,3.311,0,0,0,0,22.259v23.4a3.311,3.311,0,0,0,3.306,3.307h7.909V62.075a3.028,3.028,0,0,0,3,3.047H54a3.028,3.028,0,0,0,3-3.047V19.705A1.27,1.27,0,0,0,56.783,18.989ZM44.285,5.161l9.023,13.244H44.285ZM2.544,45.662v-23.4a.773.773,0,0,1,.763-.763H28.641a.773.773,0,0,1,.763.763v23.4a.773.773,0,0,1-.763.763H3.306A.773.773,0,0,1,2.544,45.662ZM54,62.578H51.11V55.928a1.272,1.272,0,1,0-2.544,0v6.651H14.217a.489.489,0,0,1-.458-.5V48.969H28.641a3.311,3.311,0,0,0,3.307-3.307v-23.4a3.311,3.311,0,0,0-3.307-3.307H13.759V3.047a.488.488,0,0,1,.458-.5H41.741V19.155a1.789,1.789,0,0,0,1.781,1.794H54.461V62.075A.489.489,0,0,1,54,62.578Zm0,0" transform="translate(0 0)"/>
  <path id="Path_1180" data-name="Path 1180" d="M383.1,391.57a1.272,1.272,0,0,0-1.272,1.272v.078a1.272,1.272,0,0,0,2.544,0v-.078A1.272,1.272,0,0,0,383.1,391.57Zm0,0" transform="translate(-333.266 -341.766)"/>
  <path id="Path_1181" data-name="Path 1181" d="M77.159,223.411l.618,1.889a1.272,1.272,0,0,0,2.418-.79l-3.721-11.384a1.272,1.272,0,0,0-2.418,0l-3.72,11.384a1.272,1.272,0,1,0,2.418.79l.618-1.889Zm-1.894-5.795,1.062,3.251H74.2Zm0,0" transform="translate(-61.334 -185.253)"/>
  <path id="Path_1182" data-name="Path 1182" d="M162.17,226.178a1.272,1.272,0,0,0,1.272-1.272V213.522a1.272,1.272,0,1,0-2.544,0v11.384A1.272,1.272,0,0,0,162.17,226.178Zm0,0" transform="translate(-140.433 -185.253)"/>
</svg>
