<?xml version="1.0" encoding="utf-8"?>
<!-- Generator: Adobe Illustrator 22.0.0, SVG Export Plug-In . SVG Version: 6.00 Build 0)  -->
<svg version="1.0" id="psd-file" xmlns="http://www.w3.org/2000/svg" xmlns:xlink="http://www.w3.org/1999/xlink" x="0px" y="0px"
	 width="64px" height="65.1px" viewBox="0 0 64 65.1" style="enable-background:new 0 0 64 65.1;" xml:space="preserve">
<style type="text/css">
	.st0{fill:#F0F0FB;}
	.st1{fill:#D63E3E;}
	.st2{fill:#BFBFCF;}
</style>
<g id="Group_379" transform="translate(14.641 1.515)">
	<path id="Path_1168" class="st0" d="M48.1,60.3V17.9H35.9c-0.1,0-0.2-0.1-0.3-0.1c-0.1-0.1-0.1-0.2-0.1-0.3V0.1H19.1
		c-0.5,0-0.9,0.2-1.2,0.5c-0.3,0.3-0.5,0.8-0.5,1.3v16.9v27.5v14.1c0,0.5,0.2,0.9,0.5,1.3c0.3,0.3,0.8,0.5,1.2,0.5h27.2
		c0.5,0,0.9-0.2,1.2-0.5C47.9,61.2,48.1,60.8,48.1,60.3z"/>
	<path id="Path_1169" class="st1" d="M30,44.1V20.7c0-1.1-0.9-2-2-2H2c-1.1,0-2,0.9-2,2v23.4c0,1.1,0.9,2,2,2h26
		C29.1,46.2,30,45.3,30,44.1z"/>
	<path id="Path_1170" class="st2" d="M35.3,0.3l12.8,17.9H35.8c-0.1,0-0.3-0.1-0.4-0.2c-0.1-0.1-0.2-0.2-0.2-0.4L35.3,0.3z"/>
</g>
<path id="Path_1172" d="M11.7,27H7.2C6.5,27,6,27.6,6,28.3l0,0v11.4C6,40.4,6.6,41,7.3,41s1.3-0.6,1.3-1.3v-4.3h3.2
	c2.3,0.1,4.3-1.7,4.3-4.1C16.2,29,14.4,27,12,27C11.9,27,11.8,27,11.7,27z M11.7,32.8H8.5v-3.3h3.2c0.9,0,1.7,0.7,1.7,1.7
	C13.4,32.1,12.7,32.8,11.7,32.8z"/>
<path id="Path_1173" d="M18.4,40.9H21c3.8,0,7-3.1,7-7c0-3.8-3.1-7-7-7h-2.5c-0.7,0-1.3,0.6-1.3,1.3l0,0v11.4
	C17.2,40.4,17.7,40.9,18.4,40.9z M19.7,29.5H21c2.4,0,4.4,2,4.4,4.4s-2,4.4-4.4,4.4h-1.3V29.5z"/>
<path id="Path_1174" d="M63.8,19L51.2,0.6C51,0.2,50.6,0,50.2,0h-29c-1.7,0-3,1.4-3,3v15.9H3.3c-1.8,0-3.3,1.5-3.3,3.3v23.4
	C0,47.5,1.5,49,3.3,49h14.9v13.1c0,1.7,1.3,3,3,3H61c1.7,0,3-1.4,3-3V19.7C64,19.4,63.9,19.2,63.8,19z M51.3,5.2l9,13.2h-9V5.2z
	 M2.5,45.7V22.3c0-0.4,0.3-0.8,0.8-0.8h39.3c0.4,0,0.8,0.3,0.8,0.8v23.4c0,0.4-0.3,0.8-0.8,0.8H3.3C2.9,46.4,2.5,46.1,2.5,45.7z
	 M61,62.6h-2.9v-6.7c0-0.7-0.6-1.3-1.3-1.3s-1.3,0.6-1.3,1.3l0,0v6.7H21.2c-0.3,0-0.5-0.2-0.5-0.5V49h21.9c1.8,0,3.3-1.5,3.3-3.3
	V22.3c0-1.8-1.5-3.3-3.3-3.3H20.8V3c0-0.3,0.2-0.5,0.5-0.5h27.5v16.6c0,1,0.8,1.8,1.8,1.8h10.9V62C61.5,62.3,61.3,62.6,61,62.6z"/>
<path id="Path_1175" d="M56.8,49.8c-0.7,0-1.3,0.6-1.3,1.3l0,0v0.1c0,0.7,0.6,1.3,1.3,1.3s1.3-0.6,1.3-1.3v-0.1
	C58.1,50.4,57.5,49.8,56.8,49.8L56.8,49.8z"/>
<g>
	<path d="M29.2,28.3c0-0.8,0.7-1.4,1.6-1.4h7.6c0.9,0,1.6,0.6,1.6,1.4v0.2c0,0.8-0.7,1.4-1.6,1.4h-5.7v2.4h4.7
		c0.9,0,1.6,0.6,1.6,1.4v0.1c0,0.8-0.7,1.4-1.6,1.4h-4.7v4.3c0,0.8-0.7,1.4-1.6,1.4h-0.3c-0.9,0-1.6-0.6-1.6-1.4V28.3z"/>
</g>
</svg>
