<svg id="psd-file" xmlns="http://www.w3.org/2000/svg" width="64" height="65.122" viewBox="0 0 64 65.122">
  <g id="Group_379" data-name="Group 379" transform="translate(14.641 1.515)">
    <path id="Path_1168" data-name="Path 1168" d="M282.328,72.192V29.786l-12.245-.028a.469.469,0,0,1-.334-.143.492.492,0,0,1-.139-.343l-.036-17.361H253.352a1.738,1.738,0,0,0-1.248.532,1.827,1.827,0,0,0-.518,1.279l.025,16.9.023,27.474-.023,14.1a1.826,1.826,0,0,0,.518,1.279,1.74,1.74,0,0,0,1.248.532h27.186a1.74,1.74,0,0,0,1.248-.532A1.828,1.828,0,0,0,282.328,72.192Zm0,0" transform="translate(-234.227 -11.91)" fill="#f0f0fb" fill-rule="evenodd"/>
    <path id="Path_1169" data-name="Path 1169" d="M145.1,184.438v-23.4A2.041,2.041,0,0,0,143.063,159H117.141a2.041,2.041,0,0,0-2.035,2.035v23.4a2.041,2.041,0,0,0,2.035,2.035h25.922A2.041,2.041,0,0,0,145.1,184.438Zm0,0" transform="translate(-115.105 -140.291)" fill="#3c9fd7" fill-rule="evenodd"/>
    <path id="Path_1170" data-name="Path 1170" d="M392.657,14.105l12.787,17.947-12.279-.028a.54.54,0,0,1-.385-.164.563.563,0,0,1-.16-.394Zm0,0" transform="translate(-357.323 -13.826)" fill="#bfbfcf" fill-rule="evenodd"/>
  </g>
  <path id="Path_1171" data-name="Path 1171" d="M144.324,221.048a4.2,4.2,0,0,0-4.2-4.2,1.306,1.306,0,0,1-.374,0h-1.216a1.653,1.653,0,0,1,0-3.307h4.515a1.272,1.272,0,1,0,0-2.544h-4.515a4.2,4.2,0,0,0,0,8.395h1.216a1.306,1.306,0,0,1,.374,0,1.653,1.653,0,0,1,0,3.307h-4.007a1.272,1.272,0,1,0,0,2.544h4.007A4.2,4.2,0,0,0,144.324,221.048Zm0,0" transform="translate(-117.253 -184.162)"/>
  <path id="Path_1172" data-name="Path 1172" d="M52.627,212.25H48.112a1.272,1.272,0,0,0-1.272,1.272v11.384a1.272,1.272,0,0,0,2.544,0v-4.261h3.243a4.2,4.2,0,1,0,0-8.395Zm0,5.851H49.384v-3.307h3.243a1.653,1.653,0,1,1,0,3.307Zm0,0" transform="translate(-40.882 -185.253)"/>
  <path id="Path_1173" data-name="Path 1173" d="M230.862,226.178h2.544a6.964,6.964,0,0,0,0-13.928h-2.544a1.272,1.272,0,0,0-1.272,1.272v11.384A1.272,1.272,0,0,0,230.862,226.178Zm1.272-11.384h1.272a4.42,4.42,0,0,1,0,8.84h-1.272Zm0,0" transform="translate(-200.388 -185.253)"/>
  <path id="Path_1174" data-name="Path 1174" d="M63.779,18.989,51.221.556A1.271,1.271,0,0,0,50.17,0H21.212a3.028,3.028,0,0,0-3,3.047v15.9H3.307A3.311,3.311,0,0,0,0,22.259v23.4a3.311,3.311,0,0,0,3.307,3.307h14.9V62.075a3.028,3.028,0,0,0,3,3.047H61a3.028,3.028,0,0,0,3-3.047V19.7A1.278,1.278,0,0,0,63.779,18.989ZM51.28,5.161,60.3,18.406H51.28ZM2.544,45.662v-23.4a.773.773,0,0,1,.763-.763H42.632a.773.773,0,0,1,.763.763v23.4a.773.773,0,0,1-.763.763H3.307A.773.773,0,0,1,2.544,45.662ZM61,62.579H58.105V55.928a1.272,1.272,0,1,0-2.544,0v6.651H21.212a.489.489,0,0,1-.458-.5V48.969H42.632a3.311,3.311,0,0,0,3.307-3.307v-23.4a3.311,3.311,0,0,0-3.307-3.307H20.754V3.047a.489.489,0,0,1,.458-.5H48.736V19.155a1.79,1.79,0,0,0,1.781,1.794H61.456V62.075A.489.489,0,0,1,61,62.579Zm0,0"/>
  <path id="Path_1175" data-name="Path 1175" d="M438.1,391.57a1.272,1.272,0,0,0-1.272,1.272v.078a1.272,1.272,0,1,0,2.544,0v-.078A1.272,1.272,0,0,0,438.1,391.57Zm0,0" transform="translate(-381.27 -341.766)"/>
</svg>
