<svg xmlns="http://www.w3.org/2000/svg" viewBox="0 0 33 15.724"><defs><style>.a{fill:#fff;}</style></defs><path class="a" d="M47.8,96.108H46V92h1.6a2.312,2.312,0,0,1,.721.1.99.99,0,0,1,.449.271,1.051,1.051,0,0,1,.283.717.847.847,0,0,1-.307.717,1.366,1.366,0,0,1-.152.1l-.146.068a1.08,1.08,0,0,1,.609.344.959.959,0,0,1,.227.65,1.105,1.105,0,0,1-.295.758A1.533,1.533,0,0,1,47.8,96.108ZM46.7,93.7h.883q.754,0,.754-.512a.484.484,0,0,0-.187-.422.976.976,0,0,0-.564-.129H46.7Zm0,1.757h1.088a1.156,1.156,0,0,0,.586-.121.484.484,0,0,0,.2-.455q0-.547-.877-.547H46.7Z" transform="translate(-41.421 -80.427)"/><path class="a" d="M69.632,95.138a2.255,2.255,0,0,1-3.081,0,2.158,2.158,0,0,1,0-3.034,2.255,2.255,0,0,1,3.081,0A2.158,2.158,0,0,1,69.632,95.138Zm-.508-2.568a1.441,1.441,0,0,0-2.064,0,1.535,1.535,0,0,0,0,2.111,1.441,1.441,0,0,0,2.064,0A1.535,1.535,0,0,0,69.124,92.57Z" transform="translate(-57.457 -80.022)"/><path class="a" d="M92.58,96.11V92h.693v3.452H95.15v.658Z" transform="translate(-78.906 -80.428)"/><path class="a" d="M112.518,92v.652h-2.195V93.74h1.97v.617h-1.97v1.1h2.265v.652H109.63V92Z" transform="translate(-92.626 -80.428)"/><path class="a" d="M129.281,92.635V96.11h-.693V92.635H127.34V92h3.187v.635Z" transform="translate(-106.878 -80.428)"/><path class="a" d="M149.3,95.138a2.255,2.255,0,0,1-3.081,0,2.158,2.158,0,0,1,0-3.034,2.255,2.255,0,0,1,3.081,0A2.158,2.158,0,0,1,149.3,95.138Zm-.5-2.568a1.441,1.441,0,0,0-2.064,0,1.535,1.535,0,0,0,0,2.111,1.441,1.441,0,0,0,2.064,0A1.535,1.535,0,0,0,148.8,92.57Z" transform="translate(-121.57 -80.022)"/><rect class="a" width="2.941" height="15.684"/><rect class="a" width="2.941" height="9.802" transform="translate(5.227)"/><rect class="a" width="2.941" height="9.802" transform="translate(10.128)"/><rect class="a" width="2.941" height="9.802" transform="translate(16.336)"/><rect class="a" width="5.555" height="9.802" transform="translate(22.543)"/><rect class="a" width="2.941" height="15.684" transform="translate(30.059)"/></svg>