<svg xmlns="http://www.w3.org/2000/svg" viewBox="0 0 26.187 20.788"><defs><style>.a{fill:#fff;}</style></defs><g transform="translate(0 0)"><path class="a" d="M191.186,79.484A10.6,10.6,0,0,0,180.341,69h-4.88A10.242,10.242,0,0,0,165,79.484a10.4,10.4,0,0,0,10.461,10.3h4.88C186.011,89.815,191.186,85.154,191.186,79.484Zm-15.7-9.606A9.515,9.515,0,1,1,166,79.394,9.506,9.506,0,0,1,175.491,69.878Zm-6,9.49A6.038,6.038,0,0,0,173.354,85V73.74A6.041,6.041,0,0,0,169.491,79.369Zm8.17,5.63a6.032,6.032,0,0,0,0-11.259Z" transform="translate(-165 -69)"/></g></svg>