<svg xmlns="http://www.w3.org/2000/svg" viewBox="0 0 33.185 5.283"><defs><style>.a{fill:#fff;}</style></defs><g transform="translate(0)"><g transform="translate(0 0)"><g transform="translate(0 0)"><path class="a" d="M.4,3.24V8.2H1.915a2.9,2.9,0,0,0,1.9-.573A2.43,2.43,0,0,0,4.78,5.726,2.572,2.572,0,0,0,1.923,3.24ZM3.135,6.97a2.064,2.064,0,0,1-1.421.395H1.436V4.081h.279a2.018,2.018,0,0,1,1.421.4A1.622,1.622,0,0,1,3.71,5.719,1.652,1.652,0,0,1,3.135,6.97Z" transform="translate(-0.399 -3.08)"/><path class="a" d="M92.835-92.74h1.038v-4.965H92.835Z" transform="translate(-87.976 97.865)"/><path class="a" d="M122.172-97.759c-.623-.215-.806-.357-.806-.625,0-.313.326-.55.773-.55a1.1,1.1,0,0,1,.837.4l.543-.664a2.428,2.428,0,0,0-1.564-.551,1.522,1.522,0,0,0-1.66,1.423c0,.684.334,1.034,1.309,1.362a4.309,4.309,0,0,1,.718.283.587.587,0,0,1,.311.514.738.738,0,0,1-.806.7,1.239,1.239,0,0,1-1.133-.662l-.671.6a2.108,2.108,0,0,0,1.843.945,1.667,1.667,0,0,0,1.836-1.63c0-.789-.35-1.146-1.531-1.549" transform="translate(-113.737 99.811)"/><path class="a" d="M196.233-96.98a2.67,2.67,0,0,0,2.809,2.591,3.042,3.042,0,0,0,1.3-.289v-1.14a1.714,1.714,0,0,1-1.253.544,1.681,1.681,0,0,1-1.788-1.713,1.707,1.707,0,0,1,1.739-1.705,1.8,1.8,0,0,1,1.3.559v-1.139a2.8,2.8,0,0,0-1.277-.3,2.713,2.713,0,0,0-2.834,2.6" transform="translate(-185.94 99.612)"/><path class="a" d="M385.016-96.649,383.6-99.984h-1.134l2.258,5.093h.559l2.3-5.093h-1.125l-1.438,3.335" transform="translate(-362.381 100.136)"/><path class="a" d="M488.734-92.74h2.944v-.841h-1.907v-1.34h1.836v-.841h-1.836v-1.1h1.907v-.841h-2.944v4.965" transform="translate(-463.067 97.865)"/><path class="a" d="M561.249,4.706c0-.93-.686-1.466-1.883-1.466h-1.539V8.2h1.037V6.21H559L560.436,8.2h1.277l-1.675-2.092A1.346,1.346,0,0,0,561.249,4.706Zm-2.082.82h-.3v-1.5h.32c.646,0,1,.253,1,.736C560.181,5.257,559.83,5.526,559.167,5.526Z" transform="translate(-528.528 -3.08)"/><path class="a" d="M280.874-98.071v0a2.74,2.74,0,0,1,2.831-2.64,2.74,2.74,0,0,1,2.831,2.64v0a2.741,2.741,0,0,1-2.831,2.641,2.741,2.741,0,0,1-2.831-2.641" transform="translate(-266.132 100.712)"/></g></g></g></svg>