<svg xmlns="http://www.w3.org/2000/svg" viewBox="0 0 34 13.001"><defs><style>.a{fill:#fff;}</style></defs><path class="a" d="M19.048,2.772c0,.025,0,.025.025.049,0,.025.025.049.074.025.025,0,.049-.025.074-.025a3.81,3.81,0,0,1,1.962-.074,3.923,3.923,0,0,1,2.846,2.895c.025.1.025.1.1.074.81-.172,1.595-.319,2.4-.491.147-.025.147-.025.123-.172a6.59,6.59,0,0,0-1.938-3.336A6.49,6.49,0,0,0,21.084.025a.478.478,0,0,1-.2-.025H19.71a.09.09,0,0,1-.074.025,6.353,6.353,0,0,0-1.325.27c-.123.049-.1.049-.074.147C18.508,1.2,18.778,1.987,19.048,2.772Z" transform="translate(-13.749 0)"/><path class="a" d="M26.723,30.186h-.049l-1.766-.368c-.245-.049-.466-.1-.711-.147-.074-.025-.074,0-.074.049v.025a3.856,3.856,0,0,1-3.631,2.968,3.958,3.958,0,0,1-1.2-.172c-.1-.025-.1-.025-.147.074-.1.294-.2.613-.294.908-.172.466-.319.957-.491,1.423-.025.1-.025.1.074.123.147.049.27.074.417.123a5.734,5.734,0,0,0,1.1.172c.049,0,.123-.025.172.025h.687c0-.025.049-.025.049-.025a5.255,5.255,0,0,0,1.055-.172A6.5,6.5,0,0,0,26.7,30.529c.025-.1.049-.221.074-.319A.086.086,0,0,0,26.723,30.186Z" transform="translate(-13.844 -22.385)"/><path class="a" d="M122.727,16.935a3.993,3.993,0,0,0-4.685-2.919,2.966,2.966,0,0,0-.442.123c0,.025.025.049.025.1l.294.883c.074.221.147.442.221.687.025.074.025.074.1.049h.049a2.294,2.294,0,0,1,1.153,0,2.186,2.186,0,0,1,1.521,1.57c.025.074.025.074.074.049.294-.049.589-.123.883-.172.27-.049.54-.1.834-.172v-.049A.311.311,0,0,1,122.727,16.935Z" transform="translate(-88.752 -10.508)"/><path class="a" d="M120.938,31.958c-.1-.025-.1-.025-.123.074a1.991,1.991,0,0,1-.564.981,2.159,2.159,0,0,1-2.134.564c-.1-.025-.1-.025-.123.074-.1.294-.2.613-.319.908l-.221.662c-.025.074-.025.074.049.1h.025a4.183,4.183,0,0,0,2.061.074,3.956,3.956,0,0,0,2.968-2.919.184.184,0,0,1,.025-.123v-.025c-.025,0-.025-.025-.049-.025C122.042,32.179,121.5,32.056,120.938,31.958Z" transform="translate(-88.631 -24.108)"/><path class="a" d="M0,25.3v.564H.025V25.3Z" transform="translate(0 -19.094)"/><path class="a" d="M24.8,52.966h.172C24.923,52.942,24.849,52.966,24.8,52.966Z" transform="translate(-18.716 -39.965)"/><path class="a" d="M67.252,16.718c-.1-.245-.2-.491-.319-.736A3.283,3.283,0,0,0,66,14.829a4.027,4.027,0,0,0-3.042-.908,3.638,3.638,0,0,0-1.57.54A4.084,4.084,0,0,0,59.5,17.87a5.692,5.692,0,0,0,.049.589,4.127,4.127,0,0,0,.515,1.423c.025.049.049.049.1.025a.024.024,0,0,0,.025-.025c1.545-.662,3.066-1.349,4.612-2.012.785-.343,1.57-.687,2.38-1.03C67.3,16.816,67.3,16.816,67.252,16.718ZM61.315,17.87a2,2,0,0,1,.859-1.913,2.207,2.207,0,0,1,1.227-.392,1.762,1.762,0,0,1,1.227.442,3.909,3.909,0,0,1,.319.319C63.719,16.84,62.517,17.355,61.315,17.87Z" transform="translate(-44.904 -10.487)"/><path class="a" d="M3.608,13.918a3.709,3.709,0,0,1-.81-2.6,3.906,3.906,0,0,1,.343-1.4A4.282,4.282,0,0,1,4,8.717c.074-.049.074-.049,0-.123l-.049-.049c-.319-.368-.638-.736-.957-1.079L2.332,6.73c-.049-.074-.025-.074-.1,0a2.273,2.273,0,0,0-.343.343A6.576,6.576,0,0,0,.517,9.257a7.845,7.845,0,0,0-.368,1.5c-.025.172-.025.343-.049.515v.638a4.294,4.294,0,0,0,.1.785,6.546,6.546,0,0,0,2.036,3.7c.049.049.049.049.123,0,.123-.123.221-.245.343-.368.442-.515.883-1.006,1.349-1.521.049-.049.049-.049,0-.123C3.878,14.212,3.731,14.065,3.608,13.918Z" transform="translate(-0.075 -5.038)"/><path class="a" d="M94.6,7.6v0Z" transform="translate(-71.394 -5.736)"/><path class="a" d="M96.391,14.654c-.123-.049-.1-.025-.1-.172V7.049C96.293,7,96.268,7,96.244,7h-1.57c-.074,0-.074,0-.074.074v7.482a1.856,1.856,0,0,0,.025.368,1.438,1.438,0,0,0,.883,1.153c.417.172.834.343,1.227.515.074.025.074.025.1-.049.2-.466.417-.957.613-1.423.025-.074.025-.074-.049-.1C97.053,14.924,96.734,14.776,96.391,14.654Z" transform="translate(-71.394 -5.283)"/><path class="a" d="M109.1,19.425c-.025-.025-.025-.049-.049-.074-.343-.392-.711-.785-1.055-1.177-.1-.1-.1-.1-.2,0a4,4,0,0,0,.049,5.814c.049.049.074.049.123,0,.368-.417.736-.834,1.128-1.251.025-.025.049-.074,0-.1l-.025-.025a2.163,2.163,0,0,1,0-3.115C109.072,19.474,109.1,19.449,109.1,19.425Z" transform="translate(-80.42 -13.66)"/><path class="a" d="M71.946,36.053a4,4,0,0,0-.417-.27c-.294-.2-.589-.392-.908-.589-.074-.049-.074-.049-.123.025a2.055,2.055,0,0,1-.515.515,3.071,3.071,0,0,1-1.1.442,1.687,1.687,0,0,1-1.349-.368c-.025-.025-.025-.025-.074-.025-.319.466-.638.957-.957,1.423l.074.074c.1.074.221.123.319.2a3.829,3.829,0,0,0,2.33.417,4.125,4.125,0,0,0,1.742-.687,3.233,3.233,0,0,0,.957-.957C72.069,36.1,72.069,36.127,71.946,36.053Z" transform="translate(-50.187 -26.535)"/></svg>