<svg xmlns="http://www.w3.org/2000/svg" viewBox="0 0 34 14.8"><defs><style>.a{fill:#fff;}</style></defs><g transform="translate(0 0)"><path class="a" d="M61.2,107.8,47,107.8v-.034c0-.019.023-.141.05-.271s.071-.337.1-.46l.095-.464.1-.49c.028-.137.072-.354.1-.481s.068-.337.095-.464.072-.348.1-.49l.1-.481c.025-.123.064-.312.087-.421s.053-.256.066-.327.055-.28.094-.464.081-.393.094-.464.056-.28.095-.464.081-.393.095-.464.056-.28.1-.464.081-.389.094-.456.047-.236.076-.378l.123-.593c.038-.184.1-.505.146-.713l.111-.55.077-.378.094-.455.1-.5c.028-.137.071-.35.1-.473s.067-.328.094-.456.073-.352.1-.5.08-.371.111-.5.075-.282.1-.344a3.129,3.129,0,0,1,.139-.3l.1-.184.089-.117c.049-.064.136-.165.194-.225s.155-.15.217-.2.15-.118.2-.15.14-.089.206-.127.159-.086.206-.108.144-.063.215-.09.206-.073.3-.1.272-.072.394-.1.316-.057.43-.072l.207-.028,14.211-.005L81,93v.034c0,.019-.023.141-.051.271s-.074.353-.1.495-.071.347-.094.456-.066.318-.1.464l-.1.5c-.026.128-.069.337-.095.464s-.069.337-.1.464-.068.329-.092.447l-.1.473c-.029.142-.075.366-.1.5s-.07.337-.094.456l-.1.473c-.029.142-.075.366-.1.5s-.069.333-.092.447l-.1.473-.1.473-.092.447c-.028.132-.075.361-.1.507l-.1.464c-.022.109-.064.314-.093.455s-.075.366-.1.5l-.1.464-.1.473-.1.5-.093.456-.095.464c-.029.142-.076.365-.1.5l-.052.239-.062.165c-.034.091-.085.212-.113.268s-.086.157-.128.222-.1.15-.131.187-.119.133-.2.213l-.145.145-.14.1c-.077.055-.159.11-.184.123l-.205.1c-.089.044-.214.1-.278.126s-.192.067-.284.093-.19.053-.218.058l-.219.045c-.092.019-.278.049-.412.065l-.245.029Zm-5.053-3.674h.37l.01-.027a.275.275,0,0,0,.01-.078c0-.028.012-.13.027-.226s.05-.319.078-.493l.093-.584c.023-.147.051-.334.063-.417a.6.6,0,0,1,.031-.15.294.294,0,0,1,.053.081l.043.081.1.1.1.1.117.047.117.047.14.018.14.018.177-.011.177-.011.192-.05.192-.05.1-.047a2.108,2.108,0,0,0,.223-.126l.12-.078.112-.112a2.526,2.526,0,0,0,.193-.22.977.977,0,0,0,.081-.117.491.491,0,0,1,.049-.081,1.924,1.924,0,0,0,.122-.244c.04-.095.1-.265.14-.378l.067-.206.034-.179c.019-.1.043-.261.054-.361l.02-.182-.011-.155-.011-.155-.036-.155-.036-.155-.058-.116-.058-.116-.112-.119-.112-.119-.133-.069-.133-.069-.146-.035-.146-.035-.146-.011L58.4,98.86l-.163.019-.163.019-.133.034-.133.034-.115.053a2.074,2.074,0,0,0-.205.111,1.039,1.039,0,0,0-.113.081.531.531,0,0,1-.069.053l-.045.03.032-.151c.017-.083.032-.161.032-.172v-.021H56.7l-.055.348c-.03.191-.078.487-.107.657l-.095.567c-.024.142-.066.393-.094.559s-.075.428-.1.584l-.093.507-.095.516c-.029.161-.077.416-.105.567s-.075.391-.1.533-.055.275-.061.3l-.009.039Zm1.591-1.987-.143.009-.094-.017-.094-.017-.1-.043-.1-.044-.067-.064-.067-.063-.038-.086a1.21,1.21,0,0,1-.06-.178l-.022-.092.009-.148.009-.148.044-.232c.024-.128.068-.367.1-.533s.073-.408.1-.539l.045-.238.1-.082a1.6,1.6,0,0,1,.191-.134l.092-.052.12-.037.12-.037.155-.009.155-.009.126.027.126.027.089.041.089.041.075.075.075.075.04.079a1.151,1.151,0,0,1,.069.19l.029.11-.009.327-.009.327-.044.193c-.024.106-.07.269-.1.361l-.059.168-.072.136a2.39,2.39,0,0,1-.135.225.961.961,0,0,1-.124.14c-.033.028-.088.073-.123.1l-.063.047-.146.05-.146.05Zm3.569.473.189,0,.189-.017c.1-.009.274-.029.378-.044s.284-.047.4-.073l.21-.046.011-.078c.006-.043.029-.169.052-.282l.042-.2-.009-.009-.009-.009-.064.031c-.035.017-.145.058-.245.09l-.18.059-.189.037-.189.037h-.6l-.1-.033A1.6,1.6,0,0,1,61,102l-.082-.041-.068-.061-.068-.061-.053-.093-.053-.093-.033-.116-.033-.116v-.43l.029-.192.03-.192.259-.012.259-.012.956.006.956.006.029-.122c.016-.067.04-.207.054-.309l.025-.187v-.314l-.027-.117-.027-.117-.045-.078a1.082,1.082,0,0,0-.1-.138.767.767,0,0,0-.113-.1,1.68,1.68,0,0,0-.147-.089l-.086-.046-.15-.036-.15-.036-.185-.018L62,98.86l-.172.011-.172.011-.206.04-.206.04-.129.052a2.374,2.374,0,0,0-.241.115,1.689,1.689,0,0,0-.189.126c-.043.035-.116.1-.164.149a1.549,1.549,0,0,0-.156.189,2.507,2.507,0,0,0-.131.223c-.034.066-.077.159-.1.206s-.056.144-.08.215-.062.206-.085.3-.053.25-.068.346l-.027.174v.512l.026.112a2.1,2.1,0,0,0,.061.206,1.4,1.4,0,0,0,.079.172.964.964,0,0,0,.115.152,1.457,1.457,0,0,0,.157.139,1.232,1.232,0,0,0,.187.11l.1.046.141.034c.077.019.194.041.26.049S61.206,102.606,61.31,102.607Zm.324-2.421c-.476,0-.865,0-.865-.008s.02-.064.045-.133.068-.172.1-.229l.052-.1.114-.113.114-.113.112-.053a1.286,1.286,0,0,1,.18-.071,1.832,1.832,0,0,1,.241-.029l.172-.011.132.017.132.017.1.044.1.044.053.057a.616.616,0,0,1,.077.1l.024.045.016.1.016.1-.018.168-.018.168Zm5.143,2.422.189,0,.215-.025c.118-.014.275-.037.349-.052s.194-.043.266-.063a.945.945,0,0,0,.146-.049.827.827,0,0,0,.046-.173c.017-.089.039-.208.049-.264a.47.47,0,0,0,.011-.11s-.016,0-.028.011a1.5,1.5,0,0,1-.187.079l-.165.061-.236.046-.236.046-.2-.007-.2-.007-.114-.04-.114-.04-.088-.077-.088-.077-.058-.106-.058-.106-.028-.142-.028-.142V101l.034-.223.034-.223.036-.12c.02-.066.042-.143.049-.172a1.87,1.87,0,0,1,.07-.181c.031-.071.086-.18.123-.244l.067-.115.082-.085.082-.085.086-.054.087-.054.111-.034a2.063,2.063,0,0,1,.24-.054l.129-.02.189.01.189.009.223.045.224.045.091.034.1.034a1.121,1.121,0,0,0,.027-.142c.012-.078.033-.206.047-.285a.71.71,0,0,0,.018-.151.953.953,0,0,0-.149-.024c-.078-.009-.29-.025-.471-.035l-.329-.019-.232.018-.232.018-.172.036-.172.036-.111.044a1.608,1.608,0,0,0-.2.1c-.048.029-.109.069-.136.088a2.369,2.369,0,0,0-.18.164l-.132.13-.074.108a2.761,2.761,0,0,0-.155.274l-.082.167-.063.18c-.035.1-.083.262-.107.361l-.044.181-.016.163-.016.163v.43l.016.125.016.125.051.129.051.129.06.093.059.093.095.093.095.093.1.053.1.053.131.037a2.334,2.334,0,0,0,.232.051,2.839,2.839,0,0,0,.29.017ZM69.6,102.6l.232-.007.146-.037.146-.037.095-.045a1.782,1.782,0,0,0,.189-.108,1.458,1.458,0,0,0,.179-.147,1.975,1.975,0,0,0,.153-.174.447.447,0,0,1,.074-.086,1.445,1.445,0,0,1-.019.177,2.6,2.6,0,0,0-.025.279v.107H71.4l.01-.245.01-.245.045-.318c.025-.175.065-.434.089-.576s.066-.382.093-.533.07-.387.1-.524l.046-.249,0-.215V99.4l-.049-.1-.049-.1-.066-.063-.066-.063-.108-.055-.108-.055-.162-.036-.162-.036-.222-.017-.222-.017-.286.018c-.158.01-.379.029-.493.043l-.206.025h-.281l-.02.1c-.011.054-.043.183-.069.287a1.506,1.506,0,0,0-.043.194,1.134,1.134,0,0,0,.167-.038c.089-.024.278-.063.419-.087l.258-.044.232-.01.232-.01.149.026.149.026.1.049.1.049.056.083.056.083v.263l-.03.144-.03.144-.618,0-.618,0-.2.056a2.329,2.329,0,0,0-.274.09.423.423,0,0,1-.087.035.979.979,0,0,0-.147.082l-.131.082-.1.1a1.6,1.6,0,0,0-.161.189,1.616,1.616,0,0,0-.115.219l-.057.133-.026.15-.026.15v.315l.025.131.025.131.047.085a1.08,1.08,0,0,0,.1.153l.058.068.1.062.1.062.118.033c.065.018.163.04.219.049l.1.016.232-.007Zm.215-.481-.138.007-.091-.023a.968.968,0,0,1-.169-.063l-.078-.04-.043-.051a.811.811,0,0,1-.079-.121l-.037-.071-.007-.165-.007-.165.029-.1a1.652,1.652,0,0,1,.084-.213l.054-.112.1-.1.1-.1.111-.053.111-.053.137-.033.138-.033H70.9l.027.011.027.011-.023.135c-.013.074-.043.208-.067.3s-.067.222-.095.293-.051.135-.051.141a.918.918,0,0,1-.063.116l-.063.105-.1.1a.7.7,0,0,1-.117.1.323.323,0,0,0-.077.043l-.063.043-.139.044-.139.044Zm5.6.487.163,0,.155-.025c.085-.014.193-.036.241-.049a1.268,1.268,0,0,0,.189-.077l.1-.053.089-.078.089-.078.093-.125a1.443,1.443,0,0,0,.1-.15l.01-.026-.009.086c0,.047-.015.125-.024.172s-.02.138-.026.2l-.011.116h.674v-.232l.051-.438c.028-.241.07-.562.093-.713s.058-.368.078-.481.056-.318.08-.456.066-.377.095-.533.074-.4.1-.55l.094-.507c.024-.132.068-.364.1-.516s.072-.364.094-.473.042-.2.042-.211V97.4h-.736l-.011.107c-.006.059-.034.254-.063.434s-.075.466-.1.636-.055.335-.06.367L77.1,99l-.029-.012c-.016-.007-.1-.031-.192-.053l-.163-.041-.223-.017-.224-.017-.189.018-.189.018-.172.043-.172.043-.163.08-.163.08-.12.089-.12.089-.1.111a2.518,2.518,0,0,0-.184.225l-.079.114-.093.194c-.051.107-.114.249-.139.315s-.069.213-.1.326l-.053.206-.026.267-.026.267.019.215.02.215.023.077c.013.043.039.118.059.168l.036.091.066.09.066.09.076.062.076.062.1.051a1.422,1.422,0,0,0,.211.081,1.917,1.917,0,0,0,.215.044C75.2,102.6,75.324,102.606,75.414,102.607Zm.293-.488-.13.007-.088-.016a.953.953,0,0,1-.171-.052l-.084-.036-.07-.058-.07-.058-.052-.1-.052-.1-.024-.112-.024-.112,0-.223,0-.223.028-.2.028-.2.043-.137a1.386,1.386,0,0,0,.043-.159.83.83,0,0,1,.052-.137c.028-.064.076-.163.106-.22a1.8,1.8,0,0,1,.123-.2,1.68,1.68,0,0,1,.151-.172,1.148,1.148,0,0,1,.158-.126l.077-.047.135-.047.135-.047h.567l.163.045c.09.025.185.054.212.064l.049.019-.009.047c-.005.026-.026.14-.045.253s-.059.33-.086.481-.071.379-.095.507-.06.29-.079.361-.045.169-.059.218a1.428,1.428,0,0,1-.072.189,1.5,1.5,0,0,1-.1.177.987.987,0,0,1-.111.131,1.454,1.454,0,0,1-.152.116l-.095.063-.137.043-.137.043Zm-25.3.4h.418l.03-.185c.016-.1.049-.3.072-.434l.095-.567c.029-.175.073-.434.1-.576s.063-.362.086-.489a2.141,2.141,0,0,1,.051-.241l.01-.01h2.246l.012.012.012.012-.02.1c-.011.055-.042.223-.07.374l-.1.567c-.029.161-.072.389-.095.507s-.069.366-.1.55-.061.345-.061.357v.021h.839l.019-.107c.01-.059.027-.165.037-.236s.034-.222.053-.335.057-.338.085-.5.074-.435.1-.61.072-.43.1-.567.065-.369.093-.516.074-.394.1-.55.072-.392.1-.524l.1-.533c.029-.161.066-.348.082-.417l.029-.125h-.849l-.012.082c-.006.045-.027.171-.046.279s-.053.3-.076.43-.065.371-.093.542-.064.4-.08.5l-.029.191-.623.013-.623.013-.522-.012c-.287-.007-.524-.014-.526-.015a1.464,1.464,0,0,1,.022-.148c.014-.08.04-.219.058-.309s.053-.268.077-.4.051-.286.06-.352.029-.176.043-.245.042-.213.061-.321.039-.208.045-.223l.01-.027h-.842l-.027.15c-.015.083-.035.2-.044.262s-.041.259-.07.438-.072.447-.1.593l-.094.593c-.029.18-.076.458-.1.619s-.071.389-.094.507l-.095.5c-.03.156-.073.376-.1.49s-.049.245-.057.292-.035.184-.059.3-.044.23-.044.245v.028Zm4.623,0h.37l.01-.027a.32.32,0,0,0,.01-.087c0-.033.023-.2.052-.381s.075-.464.1-.639.072-.43.1-.567.065-.365.092-.507.069-.362.093-.49.071-.37.1-.54.065-.314.07-.323l.009-.015-.374,0-.374,0-.031.223c-.017.123-.055.367-.083.541s-.072.442-.1.593-.067.395-.094.542l-.094.5c-.024.128-.067.352-.1.5s-.067.34-.085.43-.038.181-.044.2l-.01.039Zm8.647,0h.367l.011-.155c.006-.085.027-.257.046-.382s.059-.374.088-.554.083-.479.12-.664.079-.37.093-.41a.469.469,0,0,0,.026-.1.912.912,0,0,1,.061-.157,2.128,2.128,0,0,1,.14-.249l.078-.116.1-.1.1-.1.129-.062.129-.062h.4l.1.029c.053.016.1.029.107.029s.01-.018.01-.041.019-.136.043-.252.043-.216.043-.222a.456.456,0,0,0-.125-.049,1.584,1.584,0,0,0-.211-.049l-.086-.011-.112.02a1.434,1.434,0,0,0-.2.053,1.152,1.152,0,0,0-.184.093,1.334,1.334,0,0,0-.177.142,2.01,2.01,0,0,0-.172.2l-.113.155-.025.034.015-.069c.008-.038.031-.162.051-.275s.04-.22.045-.236l.009-.03h-.656v.041c0,.023-.019.16-.043.305s-.063.387-.087.539-.067.414-.095.584-.071.414-.095.541-.067.352-.095.5-.075.386-.1.533-.064.32-.077.385-.024.125-.024.133v.015Zm8.712,0h.375v-.23l.043-.285c.024-.157.063-.4.087-.551s.054-.332.067-.413.046-.254.074-.387.064-.275.079-.318a.544.544,0,0,0,.027-.1,1.17,1.17,0,0,1,.071-.172l.071-.15.093-.124.093-.124.1-.077a1.48,1.48,0,0,1,.2-.125l.1-.048h.215l.215,0,.085.027.085.027.014-.009.014-.009v-.055a2.228,2.228,0,0,1,.041-.249l.04-.195-.045-.018c-.025-.01-.084-.03-.131-.045l-.086-.027h-.309l-.126.044-.126.044-.095.057-.095.057-.123.129-.123.129-.066.1a.475.475,0,0,1-.071.095s.017-.118.044-.255.049-.267.05-.288v-.039h-.636v.011c0,.006-.016.116-.035.245s-.058.377-.086.552-.074.457-.1.627-.071.414-.095.541-.066.352-.094.5-.074.383-.1.524l-.083.417-.032.159ZM55.759,98.329h.1l.083-.028.083-.028L56.1,98.2l.073-.074.039-.1.039-.1v-.292l-.034-.057-.034-.057-.06-.037-.06-.037h-.258l-.088.039-.088.039-.051.055-.051.055-.04.095-.04.095-.008.147-.008.147.037.073.037.073.072.033.072.033Z" transform="translate(-47 -93)"/></g></svg>