<svg xmlns="http://www.w3.org/2000/svg" viewBox="0 0 27.493 21"><defs><style>.a{fill:#fff;}</style></defs><g transform="translate(0 0)"><path class="a" d="M140.225,70.567A12.159,12.159,0,0,1,139,70.04V61.032a2.88,2.88,0,0,1,1.053-2.047,3.292,3.292,0,0,1,2.281-.994h5.148V75.363a3.638,3.638,0,0,1-.877,2.34,3.394,3.394,0,0,1-2.515,1.17H139V71.561l1.872.351c.02-.025.745.049,1.462.058a7.013,7.013,0,0,0,1.579-.117,3.9,3.9,0,0,0,1.872-.643,2.53,2.53,0,0,0,.994-1.93l-.058-4.212h-2.925v4.153a1.491,1.491,0,0,1-.585,1.228,1.964,1.964,0,0,1-1.345.409A7.526,7.526,0,0,1,140.225,70.567Zm8.365-4.387V61.559a3.624,3.624,0,0,1,.936-2.4,3.562,3.562,0,0,1,2.223-1.053h5.323V75.6a3.4,3.4,0,0,1-.994,2.34,3.248,3.248,0,0,1-2.106,1.053H148.59V70.976a4.9,4.9,0,0,0,2.691,1.053,13.166,13.166,0,0,0,2.983,0c1.058-.142,1.841-.378,1.813-.351V70.216a11.847,11.847,0,0,1-1.521.585c-1.118.33-3.958.49-4.036-2.106-.08-2.644,2.339-2.668,3.451-2.515a6.9,6.9,0,0,1,2.106.7v-1.4c.028,0-1.342-.315-1.93-.409a12.528,12.528,0,0,0-3.276.117A3.814,3.814,0,0,0,148.59,66.18Zm9.418,5.615v7.078h5.323a3.593,3.593,0,0,0,1.93-.819,3.423,3.423,0,0,0,1.228-2.34V57.99H161.4a3.463,3.463,0,0,0-2.4,1.053,3.361,3.361,0,0,0-.994,2.281v3.744h5.148a5.5,5.5,0,0,1,.994.234,1.516,1.516,0,0,1,.409,2.632,3.14,3.14,0,0,1-.994.409,2.785,2.785,0,0,1,1.462.526,1.8,1.8,0,0,1,.409.7,3.088,3.088,0,0,1,.117.7,2.072,2.072,0,0,1-.585.994,2.812,2.812,0,0,1-.76.409,4.4,4.4,0,0,1-.76.117Zm1.7-5.557v1.7h1.813a.853.853,0,0,0,.877-.877c0-.819-.859-.819-.877-.819Zm1.93,2.691H159.7v1.813h1.93c.034,0,.994.056.994-.877A.9.9,0,0,0,161.634,68.929Z" transform="translate(-138.997 -57.99)"/></g></svg>