<svg xmlns="http://www.w3.org/2000/svg" viewBox="0 0 130 32.716"><g transform="translate(0)"><g transform="translate(53.868 5.616)"><path class="b" d="M481.477,136.654c-.116-.1-.282-.116-.382-.249a.727.727,0,0,1-.133-.282c0-.1-.017-.183-.017-.282V125.472a.974.974,0,0,1,.017-.382.521.521,0,0,1,.4-.382,1.806,1.806,0,0,1,.731,0,.608.608,0,0,1,.482.615V135.69c0,.465-.116.814-.6.947A4.673,4.673,0,0,1,481.477,136.654Z" transform="translate(-454.892 -109.571)"/><path class="b" d="M579.219,151.1c-.166-.083-.366-.133-.465-.332a.844.844,0,0,1-.066-.4c.017-2.044-.033-4.1.033-6.148a1.846,1.846,0,0,1,.449-1.047,3.355,3.355,0,0,1,2.26-1.08,12.94,12.94,0,0,1,2.127-.1c.249,0,.515.033.615.3a.924.924,0,0,1-.066.881.468.468,0,0,1-.432.166c-.532,0-1.047-.017-1.578.033a2.724,2.724,0,0,0-1.13.3,1.14,1.14,0,0,0-.631,1.08c0,1.794-.017,3.589.017,5.383,0,.482-.1.831-.6.98C579.568,151.1,579.4,151.1,579.219,151.1Z" transform="translate(-536.401 -124.018)"/><path class="b" d="M324.2,45.495v-5.4a.43.43,0,0,1,.332-.4,1.831,1.831,0,0,1,.3-.033c2.991,0,6-.017,8.989,0a7.612,7.612,0,0,1,2.791.432,2.6,2.6,0,0,1,1.429,1.1,2.229,2.229,0,0,1,.282,1.08c.017.631-.017,1.279,0,1.911a2.367,2.367,0,0,1-1.6,2.442,5.809,5.809,0,0,1-1.994.449c-2.625.116-5.25.017-7.859.05-.216,0-.432.017-.631,0-.183-.017-.249.033-.249.233.017,1.13,0,2.276,0,3.406,0,.4-.166.665-.5.731a1.344,1.344,0,0,1-1.014-.083.55.55,0,0,1-.266-.5C324.2,49.117,324.2,47.306,324.2,45.495Zm6.414-4.436h-4.42c-.166,0-.216.033-.216.2v4.22c0,.166.05.2.2.2h5.616c.831,0,1.645,0,2.476-.017a3.78,3.78,0,0,0,1.6-.349,1.131,1.131,0,0,0,.681-1.113c-.017-.548-.017-1.1,0-1.662a1.175,1.175,0,0,0-.764-1.18,3.579,3.579,0,0,0-1.313-.282C333.106,41.025,331.727,41.075,330.614,41.059Z" transform="translate(-324.2 -38.683)"/><path class="b" d="M512.1,44.251v4.1a2.22,2.22,0,0,1-1.529,2.226,6.063,6.063,0,0,1-2.027.432c-1.628.1-3.257.05-4.9.033a5.922,5.922,0,0,1-2.609-.582A2.045,2.045,0,0,1,499.926,49a1.6,1.6,0,0,1,0-.4c0-1.4-.033-2.791.017-4.187a1.99,1.99,0,0,1,.98-1.6,4.6,4.6,0,0,1,1.844-.631,12.942,12.942,0,0,1,2.127-.116h5.383c.166,0,.216-.033.216-.2-.017-.631,0-1.246,0-1.878,0-.6.216-.8.814-.8a.7.7,0,0,1,.8.8Zm-1.612,1.695V43.62c0-.15-.05-.183-.183-.183H504.1a5.048,5.048,0,0,0-1.113.1,1.541,1.541,0,0,0-1.412,1.711c.033.98,0,1.961,0,2.941a1.223,1.223,0,0,0,.881,1.279,3.676,3.676,0,0,0,1.329.233c1.429,0,2.841.017,4.27,0a4.177,4.177,0,0,0,1.562-.266,1.245,1.245,0,0,0,.9-1.313C510.493,47.408,510.493,46.677,510.493,45.946Z" transform="translate(-470.716 -38.303)"/><path class="b" d="M418.572,59.133h3.522c.133,0,.183,0,.15-.166a1.392,1.392,0,0,0-1.1-1.047,4.664,4.664,0,0,0-1.18-.116h-1.678a.518.518,0,0,1-.582-.582,2.686,2.686,0,0,1,0-.366.474.474,0,0,1,.532-.4c.8,0,1.6-.033,2.393.033a5.2,5.2,0,0,1,1.678.332,2.255,2.255,0,0,1,1.545,2.01c.066.864.017,1.728.033,2.592a16.17,16.17,0,0,1-.033,1.794,2.175,2.175,0,0,1-1.014,1.662,3.681,3.681,0,0,1-1.861.548c-2.16.1-4.32.05-6.463.033a5.384,5.384,0,0,1-1.977-.4,2.15,2.15,0,0,1-1.313-1.512,1.381,1.381,0,0,1-.05-.465,13.666,13.666,0,0,0,0-1.429,2.187,2.187,0,0,1,.449-1.346,2.914,2.914,0,0,1,1.861-1,7.805,7.805,0,0,1,1.761-.15C416.345,59.117,417.458,59.133,418.572,59.133Zm-.3,1.362h-3.705a2.736,2.736,0,0,0-.964.166,1.042,1.042,0,0,0-.764,1.08v1.063a1.027,1.027,0,0,0,.831,1.13,4.625,4.625,0,0,0,1.263.166H420.2c.216,0,.432-.017.648-.033a1.465,1.465,0,0,0,1.446-1.429c.066-.648.017-1.279.033-1.927,0-.166-.033-.216-.2-.216Z" transform="translate(-396.722 -52.687)"/><path class="b" d="M628.869,59.138h3.8c.133,0,.216.05.166-.2a1.508,1.508,0,0,0-1.313-1.063,14.247,14.247,0,0,0-2.226-.066c-.166,0-.349-.017-.515,0a.478.478,0,0,1-.3-.116.824.824,0,0,1,.033-1.13.582.582,0,0,1,.366-.1c.7,0,1.379-.017,2.077,0a5.378,5.378,0,0,1,2.044.382,2.244,2.244,0,0,1,1.429,1.811,4.018,4.018,0,0,1,.033.631v3.556a2.382,2.382,0,0,1-.482,1.512,2.8,2.8,0,0,1-1.529.914,6.945,6.945,0,0,1-1.745.2c-1.878,0-3.755.033-5.616-.017a4.633,4.633,0,0,1-2.21-.548,1.943,1.943,0,0,1-1.08-1.695,12.01,12.01,0,0,1,0-1.894,2.058,2.058,0,0,1,.98-1.545,4.126,4.126,0,0,1,1.878-.565C626.127,59.055,627.639,59.171,628.869,59.138Zm-.017,1.362h-3.788a2.463,2.463,0,0,0-.98.2,1.011,1.011,0,0,0-.648.98v1.113a1.027,1.027,0,0,0,.831,1.13,4.048,4.048,0,0,0,1.263.15h3.888c.548,0,1.1.017,1.628,0,1.1-.033,1.911-.465,1.861-1.894-.017-.5-.017-1.014,0-1.512,0-.166-.05-.2-.2-.2C631.428,60.5,630.148,60.5,628.852,60.5Z" transform="translate(-572.326 -52.691)"/><path class="b" d="M407.391,141.974c.764,0,1.545-.017,2.31,0a5.466,5.466,0,0,1,2.11.449,2.255,2.255,0,0,1,1.479,2.11c.033,1.313.033,2.625,0,3.921a2.19,2.19,0,0,1-1.362,1.994,5.539,5.539,0,0,1-2.31.482c-1.379.05-2.758.017-4.137.017a6.841,6.841,0,0,1-2.31-.349,2.411,2.411,0,0,1-1.545-1.3,1.819,1.819,0,0,1-.183-.714c-.033-1.446-.05-2.874,0-4.32a1.925,1.925,0,0,1,.8-1.462,4.591,4.591,0,0,1,2.393-.814C405.546,141.907,406.477,141.974,407.391,141.974Zm0,7.61h2.326a2.886,2.886,0,0,0,1.113-.216,1.189,1.189,0,0,0,.8-1.2v-3.506a1.143,1.143,0,0,0-.714-1.113,2.824,2.824,0,0,0-1.047-.233c-1.512-.05-3.024-.033-4.519-.017a3.586,3.586,0,0,0-1.446.249,1.219,1.219,0,0,0-.847,1.263v3.356a1.178,1.178,0,0,0,.731,1.146,3.254,3.254,0,0,0,1.313.266C405.862,149.6,406.626,149.584,407.391,149.584Z" transform="translate(-388.582 -123.979)"/><path class="b" d="M716.765,65.373c-1.13,0-1.961.05-2.775-.017a4.711,4.711,0,0,1-2.642-.847,2.074,2.074,0,0,1-.748-1.329,4.272,4.272,0,0,1-.033-.8c-.017-1.163-.05-2.31,0-3.473a2.154,2.154,0,0,1,1.113-1.861,4.784,4.784,0,0,1,2.01-.6c1.645-.15,3.29-.066,4.935-.066a5.4,5.4,0,0,1,2.542.548,2.279,2.279,0,0,1,1.279,1.844c.017.216.033.432.033.648v3.223a2.391,2.391,0,0,1-.532,1.578,2.915,2.915,0,0,1-1.279.814,5.669,5.669,0,0,1-1.5.282C718.261,65.423,717.347,65.357,716.765,65.373Zm-.017-7.643h-2.276a4.562,4.562,0,0,0-1.346.216,1.252,1.252,0,0,0-.93,1.346v3.257a1.169,1.169,0,0,0,.881,1.246,4.169,4.169,0,0,0,1.346.233c1.429.017,2.874.017,4.3,0a3,3,0,0,0,1.313-.266,1.129,1.129,0,0,0,.731-1.08V59.026a1.071,1.071,0,0,0-.648-1.014,2.673,2.673,0,0,0-.93-.249C718.311,57.681,717.447,57.747,716.749,57.73Z" transform="translate(-646.349 -52.613)"/><path class="b" d="M498.987,146.421c.017-.731-.033-1.446.033-2.177a2.127,2.127,0,0,1,1.113-1.711,4.682,4.682,0,0,1,2.16-.6c1.662-.116,3.34-.066,5-.033a5.146,5.146,0,0,1,2.276.532,2.287,2.287,0,0,1,1.313,2.077c.033,1.263.033,2.542,0,3.8a2.309,2.309,0,0,1-1.545,2.16,5.909,5.909,0,0,1-2.143.4c-1.379.05-2.742,0-4.121.033a6.993,6.993,0,0,1-2.027-.249,2.778,2.778,0,0,1-1.745-1.18,2.147,2.147,0,0,1-.282-.831C498.954,147.9,499,147.152,498.987,146.421Zm6.148-3.19h-2.027a4.276,4.276,0,0,0-1.645.266,1.207,1.207,0,0,0-.847,1.263v3.356a1.141,1.141,0,0,0,.748,1.146,3.308,3.308,0,0,0,1.263.266q2.343.05,4.686,0a2.988,2.988,0,0,0,1.13-.233,1.169,1.169,0,0,0,.764-1.146v-3.556a1.1,1.1,0,0,0-.7-1.08,3.313,3.313,0,0,0-1.063-.249C506.63,143.2,505.816,143.247,505.135,143.23Z" transform="translate(-469.943 -123.907)"/><path class="b" d="M331.893,125.2h3.672c.249,0,.515.017.631.266a.909.909,0,0,1-.017.9.546.546,0,0,1-.532.233h-1.695c-1.861,0-3.722-.017-5.583.017a3.859,3.859,0,0,0-1.861.415,1.106,1.106,0,0,0-.582,1.047c.017,1.927.017,3.871,0,5.8a1.4,1.4,0,0,0,1,1.4,5.415,5.415,0,0,0,1.778.316c2.293.017,4.569,0,6.862,0a.73.73,0,0,1,.665,1.13.611.611,0,0,1-.582.3H329.8c-.449,0-.9.017-1.346,0a10.418,10.418,0,0,1-1.429-.15,4.309,4.309,0,0,1-1.778-.681,2.412,2.412,0,0,1-1.014-1.628c-.033-.2-.017-.382-.033-.565v-6.1a2.194,2.194,0,0,1,.615-1.578,3.031,3.031,0,0,1,1.346-.764,8.247,8.247,0,0,1,2.476-.332c1.08-.017,2.177-.017,3.257-.017Z" transform="translate(-324.2 -110.013)"/><path class="b" d="M585.452,61.551c.017-.814-.05-1.844.033-2.858a2.066,2.066,0,0,1,.8-1.479,4.185,4.185,0,0,1,2.11-.731A14.579,14.579,0,0,1,590.3,56.4c.482,0,.714.233.665.731a.919.919,0,0,1-.033.3.445.445,0,0,1-.449.332c-.432,0-.881-.017-1.313,0a3.544,3.544,0,0,0-1.313.249,1.176,1.176,0,0,0-.748,1.18v5.516a.835.835,0,0,1-.233.631.518.518,0,0,1-.3.116,1.726,1.726,0,0,1-.714-.017.534.534,0,0,1-.382-.532c-.017-.3-.017-.6-.017-.9C585.452,63.262,585.452,62.5,585.452,61.551Z" transform="translate(-542.036 -52.645)"/><path class="b" d="M652.761,35.113h-3.29a.611.611,0,0,1-.548-.748c.116-.482.266-.565.764-.565h6.281a.907.907,0,0,1,.465.1.644.644,0,0,1,.282.731.62.62,0,0,1-.648.482h-3.307Z" transform="translate(-594.956 -33.8)"/></g><g transform="translate(6.63)"><path class="b" d="M46.881.947h0a3.628,3.628,0,0,1,.731.066L73,5.683a4.05,4.05,0,0,1,3.257,4.735L74.3,21.135a4.064,4.064,0,0,1-4,3.323,3.628,3.628,0,0,1-.731-.066L44.173,19.723a4.05,4.05,0,0,1-3.257-4.735L42.877,4.27a4.05,4.05,0,0,1,4-3.323m0-.947a5.012,5.012,0,0,0-4.918,4.1L39.986,14.821a5.025,5.025,0,0,0,4.021,5.832L69.4,25.322a5.462,5.462,0,0,0,.9.083,5.012,5.012,0,0,0,4.918-4.1l1.961-10.717A5.025,5.025,0,0,0,73.15,4.752L47.778.083a5.462,5.462,0,0,0-.9-.083Z" transform="translate(-39.903)"/></g><g transform="translate(10.618 10.152)"><path class="b" d="M94.722,63.08A4.024,4.024,0,0,1,98.743,67.1V78.58A4.024,4.024,0,0,1,94.722,82.6H68.9A4.024,4.024,0,0,1,64.88,78.58V67.1A4.024,4.024,0,0,1,68.9,63.08h25.82m0-.98H68.9a5.017,5.017,0,0,0-5,5V78.58a5.017,5.017,0,0,0,5,5h25.82a5.017,5.017,0,0,0,5-5V67.1a5.017,5.017,0,0,0-5-5Z" transform="translate(-63.9 -62.1)"/></g><g transform="translate(0 4.22)"><path class="b" d="M30.471,25.4v.98a4.059,4.059,0,0,1,3.971,3.373l2.044,11.312A4.038,4.038,0,0,1,33.163,45.7L7.691,49.9a4.256,4.256,0,0,1-.648.05,4.059,4.059,0,0,1-3.971-3.373l-2.044-11.3a4.036,4.036,0,0,1,.7-3.007A3.971,3.971,0,0,1,4.335,30.65l25.472-4.22a4.256,4.256,0,0,1,.648-.05l.017-.98m0,0a4.486,4.486,0,0,0-.814.066L4.186,29.687A5.031,5.031,0,0,0,.065,35.452L2.109,46.764a5.02,5.02,0,0,0,4.935,4.187,4.487,4.487,0,0,0,.814-.066l25.472-4.22a5.023,5.023,0,0,0,4.121-5.749L35.406,29.6a5.006,5.006,0,0,0-4.935-4.2Z" transform="translate(0.002 -25.4)"/></g></g></svg>
