<svg xmlns="http://www.w3.org/2000/svg" viewBox="0 0 26.951 21.023"><defs><style>.a{fill:#fff;}</style></defs><g transform="translate(0)"><path class="a" d="M20.085,35.985V34.6a.815.815,0,0,0-.88-.88.913.913,0,0,0-.787.394.81.81,0,0,0-.741-.394.748.748,0,0,0-.648.324v-.278h-.486v2.223h.486V34.757c0-.394.208-.579.533-.579s.486.208.486.579v1.227h.486V34.757a.512.512,0,0,1,.533-.579c.324,0,.486.208.486.579v1.227Zm7.2-2.223H26.5V33.09h-.486v.671h-.44v.44h.44v1.019c0,.509.208.81.764.81a1.3,1.3,0,0,0,.6-.162l-.139-.417a.762.762,0,0,1-.417.116c-.232,0-.324-.139-.324-.37v-1h.787Zm4.121-.046a.653.653,0,0,0-.579.324v-.278h-.486v2.223h.486v-1.25c0-.37.162-.579.463-.579a1.355,1.355,0,0,1,.3.046l.139-.463a1.529,1.529,0,0,0-.324-.023Zm-6.228.232a1.589,1.589,0,0,0-.9-.232c-.556,0-.926.278-.926.718,0,.37.278.579.764.648l.232.023c.255.046.394.116.394.232,0,.162-.185.278-.509.278a1.278,1.278,0,0,1-.741-.232l-.232.37a1.637,1.637,0,0,0,.949.278c.648,0,1.019-.3,1.019-.718,0-.394-.3-.6-.764-.671l-.232-.023c-.208-.023-.37-.069-.37-.208,0-.162.162-.255.417-.255a1.669,1.669,0,0,1,.695.185Zm12.92-.232a.653.653,0,0,0-.579.324v-.278h-.486v2.223h.486v-1.25c0-.37.162-.579.463-.579a1.355,1.355,0,0,1,.3.046l.139-.463a1.528,1.528,0,0,0-.324-.023Zm-6.205,1.158a1.112,1.112,0,0,0,1.181,1.158,1.152,1.152,0,0,0,.787-.255l-.232-.394a.936.936,0,0,1-.579.208.657.657,0,0,1-.671-.718.683.683,0,0,1,.671-.718.936.936,0,0,1,.579.208l.232-.394a1.152,1.152,0,0,0-.787-.255,1.112,1.112,0,0,0-1.181,1.158Zm4.492,0V33.762H35.9v.278a.837.837,0,0,0-.695-.324,1.159,1.159,0,0,0,0,2.315.779.779,0,0,0,.695-.324v.278h.486Zm-1.783,0a.673.673,0,1,1,1.343,0,.673.673,0,1,1-1.343,0Zm-5.812-1.158a1.158,1.158,0,0,0,.023,2.315,1.416,1.416,0,0,0,.9-.3l-.232-.347a1.106,1.106,0,0,1-.648.232.625.625,0,0,1-.671-.533H29.81V34.9a1.023,1.023,0,0,0-1.019-1.181Zm0,.417a.542.542,0,0,1,.556.533H28.189a.586.586,0,0,1,.6-.533Zm12.063.741V32.882h-.463V34.04a.837.837,0,0,0-.695-.324,1.159,1.159,0,0,0,0,2.315.779.779,0,0,0,.695-.324v.278h.486V34.873Zm-1.783,0a.673.673,0,1,1,1.343,0,.673.673,0,1,1-1.343,0Zm-16.254,0V33.762h-.486v.278a.837.837,0,0,0-.695-.324,1.159,1.159,0,0,0,0,2.315.779.779,0,0,0,.695-.324v.278h.486Zm-1.806,0a.673.673,0,1,1,1.343,0,.673.673,0,1,1-1.343,0Zm20.653.787a.139.139,0,0,1,.093.023c.023,0,.046.023.069.046s.046.046.046.069.023.046.023.093a.139.139,0,0,1-.023.093c-.023.023-.023.046-.046.069s-.046.046-.069.046c-.023.023-.046.023-.093.023a.139.139,0,0,1-.093-.023c-.023-.023-.046-.023-.069-.046s-.046-.046-.046-.069c-.023-.023-.023-.046-.023-.093a.139.139,0,0,1,.023-.093c.023-.023.023-.046.046-.069s.046-.046.069-.046A.139.139,0,0,1,41.665,35.66Zm0,.394a.085.085,0,0,0,.069-.023.05.05,0,0,0,.046-.046l.046-.046c0-.023.023-.046.023-.069a.085.085,0,0,0-.023-.069.05.05,0,0,0-.046-.046l-.046-.046c-.023,0-.046-.023-.069-.023a.085.085,0,0,0-.069.023.05.05,0,0,0-.046.046L41.5,35.8c0,.023-.023.046-.023.069a.085.085,0,0,0,.023.069.05.05,0,0,0,.046.046l.046.046C41.618,36.031,41.641,36.054,41.665,36.054Zm.023-.278a.085.085,0,0,1,.069.023c.023.023.023.023.023.046s0,.023-.023.046a.081.081,0,0,1-.046.023l.069.069h-.046l-.069-.069h-.023v.069H41.6v-.208Zm-.069.023v.046h.069V35.8h-.069Zm-.255-7.178v-.278h.116V28.3H41.2v.046h.116v.278Zm.533,0V28.3H41.8l-.093.232-.093-.232h-.069v.324h.069v-.255l.093.208h.069l.093-.208v.255Zm-13.962,1.6c.069.046.139.116.208.162a8.335,8.335,0,1,1,0-13.892c-.069.046-.139.116-.208.162a9.012,9.012,0,0,0,0,13.568Zm5.881-15.1a8.252,8.252,0,0,0-4.608,1.389c.069.046.139.116.208.162A8.951,8.951,0,0,1,32.5,23.458a9.068,9.068,0,0,1-3.079,6.784c-.069.046-.139.116-.208.162a8.335,8.335,0,1,0,4.608-15.281Zm-5.14,1.783c-.116.093-.208.162-.324.255a8.343,8.343,0,0,0,0,12.6,1.748,1.748,0,0,0,.324.255c.116-.093.208-.162.324-.255a8.343,8.343,0,0,0,0-12.6,3.113,3.113,0,0,0-.324-.255" transform="translate(-15.2 -15.1)"/></g></svg>