<svg xmlns="http://www.w3.org/2000/svg" viewBox="0 0 16 13.967"><defs><style>.a{fill:#fff;}</style></defs><path class="a" d="M15.355,33.672a2.055,2.055,0,0,1-.371-1.212s0-.005,0-.008A6.986,6.986,0,0,0,5.6,25.893a2.059,2.059,0,0,1-1.264.06,3.41,3.41,0,0,0-3.69,5.279,2.055,2.055,0,0,1,.371,1.212v.008A6.986,6.986,0,0,0,10.4,39.011a2.059,2.059,0,0,1,1.264-.06,3.41,3.41,0,0,0,3.69-5.279ZM8.256,31.2c1.408.335,3.536.841,3.536,3.185a2.554,2.554,0,0,1-1.6,2.48,5.819,5.819,0,0,1-2.289.36,5.052,5.052,0,0,1-3.661-1.79,1.05,1.05,0,0,1,1.643-1.31,3.116,3.116,0,0,0,2.019,1c1.423.045,1.748-.378,1.79-.739.051-.441-.341-.765-1.921-1.141-1.339-.319-3.364-.8-3.364-2.959,0-.672.273-2.866,3.792-2.866a4.756,4.756,0,0,1,3.588,1.824A1.05,1.05,0,0,1,10.1,30.494a3.155,3.155,0,0,0-1.9-.974c-.851-.081-1.691.226-1.691.679C6.507,30.68,6.748,30.841,8.256,31.2Z" transform="translate(0 -25.468)"/></svg>