<svg xmlns="http://www.w3.org/2000/svg" viewBox="0 0 16 13.309"><defs><style>.a{fill:#fff;}</style></defs><path class="a" d="M15.746,36.039a6.336,6.336,0,0,1-1.1.372,3.44,3.44,0,0,0,.908-1.446h0a.18.18,0,0,0-.264-.21h0a6.366,6.366,0,0,1-1.687.7.43.43,0,0,1-.105.013.447.447,0,0,1-.3-.113,3.449,3.449,0,0,0-2.282-.861,3.688,3.688,0,0,0-1.093.169,3.342,3.342,0,0,0-2.252,2.408,3.68,3.68,0,0,0-.082,1.27.124.124,0,0,1-.031.1.128.128,0,0,1-.1.043H7.352a9.045,9.045,0,0,1-6.217-3.321h0a.18.18,0,0,0-.3.023h0A3.453,3.453,0,0,0,1.4,39.372a3.091,3.091,0,0,1-.787-.3h0a.18.18,0,0,0-.268.155h0A3.454,3.454,0,0,0,2.361,42.4H2.287a3.1,3.1,0,0,1-.581-.055h0a.18.18,0,0,0-.206.232h0a3.457,3.457,0,0,0,2.731,2.351A6.365,6.365,0,0,1,.666,46.016h-.4a.264.264,0,0,0-.258.2.273.273,0,0,0,.131.3A9.468,9.468,0,0,0,4.9,47.8a9.6,9.6,0,0,0,4.066-.862,8.978,8.978,0,0,0,2.975-2.229,9.773,9.773,0,0,0,1.821-3.051,9.637,9.637,0,0,0,.619-3.339v-.053a.587.587,0,0,1,.22-.457A6.818,6.818,0,0,0,15.969,36.3h0a.18.18,0,0,0-.223-.265Z" transform="translate(0 -34.491)"/></svg>