<svg xmlns="http://www.w3.org/2000/svg" viewBox="0 0 34 10.437"><defs><style>.a{fill:#fff;}</style></defs><g transform="translate(0)"><path class="a" d="M19.9,21.221,21.64,11.1h2.767l-1.74,10.121Z" transform="translate(-7.96 -10.942)"/><path class="a" d="M33.923,11.3a6.582,6.582,0,0,0-2.451-.4c-2.688,0-4.665,1.344-4.665,3.321,0,1.423,1.344,2.293,2.451,2.767s1.423.791,1.423,1.265c0,.712-.87.949-1.66.949a5.729,5.729,0,0,1-2.609-.553l-.316-.158-.4,2.293a7.674,7.674,0,0,0,3.084.553c2.926,0,4.823-1.344,4.823-3.479,0-1.186-.712-2.056-2.293-2.767-.949-.474-1.581-.791-1.581-1.265,0-.4.474-.87,1.581-.87a4.737,4.737,0,0,1,2.056.4l.237.079.316-2.135Z" transform="translate(-9.174 -10.9)"/><path class="a" d="M42.97,11.1H40.835a1.292,1.292,0,0,0-1.423.87L35.3,21.221h2.926s.474-1.265.553-1.5h3.558c.079.316.316,1.5.316,1.5h2.53L42.97,11.1Zm-3.4,6.484c.237-.553,1.107-2.847,1.107-2.847s.237-.553.4-.949l.158.87s.553,2.451.633,2.926Z" transform="translate(-11.184 -10.942)"/><path class="a" d="M15.2,11.079l-2.688,6.879L12.2,16.535a7.924,7.924,0,0,0-3.8-4.27l2.451,8.856h2.926L18.126,11H15.2Z" transform="translate(-5.553 -10.921)"/><path class="a" d="M9.228,11.1H4.8v.237a9.086,9.086,0,0,1,6.642,5.219l-.949-4.586c-.158-.712-.633-.87-1.265-.87Z" transform="translate(-4.8 -10.942)"/></g></svg>