<svg xmlns="http://www.w3.org/2000/svg" width="117" height="117" viewBox="0 0 117 117"><defs><style>.a{fill:#d6ef63;}.b{fill:#fff;}</style></defs><g transform="translate(-593 -124)"><path class="a" d="M109.161,87.75c-3.286,5.684-14.82,6.611-14.82,6.611s-.911,11.519-6.591,14.8-8.814-3.636-16.127-1.677S65.062,117,58.5,117s-5.811-7.556-13.123-9.516-10.442,4.963-16.127,1.677-1.258-9.467-6.611-14.82-11.519-.911-14.8-6.591,3.636-8.814,1.677-16.127S0,65.062,0,58.5s7.556-5.811,9.516-13.123S4.553,34.934,7.839,29.25s9.467-1.258,14.82-6.611.911-11.519,6.591-14.8,8.814,3.636,16.127,1.677S51.938,0,58.5,0s5.811,7.556,13.123,9.516S82.066,4.553,87.75,7.839s1.258,9.467,6.611,14.82,11.519.911,14.8,6.591-3.636,8.814-1.677,16.127S117,51.938,117,58.5c0,5.1-7.556,5.811-9.516,13.123S112.447,82.066,109.161,87.75Z" transform="translate(593 124)"/><path class="b" d="M.575,24.091a1.853,1.853,0,0,1,0-2.684L3.26,18.722a1.853,1.853,0,0,1,2.684,0l.192.192L16.681,30.226a.927.927,0,0,0,1.342,0L43.716,3.575h.192a1.853,1.853,0,0,1,2.684,0L49.276,6.26a1.853,1.853,0,0,1,0,2.684h0L18.6,40.772a1.853,1.853,0,0,1-2.684,0L.959,24.666l-.383-.575Z" transform="translate(627.074 160.826)"/></g></svg>