<svg xmlns="http://www.w3.org/2000/svg" viewBox="0 0 180 180"><defs><style>.a{fill:#d6ef63;}.b{fill:#fff;}</style></defs><g transform="translate(-593 -124)"><path class="a" d="M167.94,135c-5.055,8.745-22.8,10.17-22.8,10.17s-1.4,17.722-10.14,22.77-13.56-5.595-24.81-2.58S100.095,180,90,180s-8.94-11.625-20.19-14.64S53.745,173,45,167.94s-1.935-14.565-10.17-22.8-17.722-1.4-22.77-10.14,5.595-13.56,2.58-24.81S0,100.095,0,90s11.625-8.94,14.64-20.19S7,53.745,12.06,45s14.565-1.935,22.8-10.17S36.263,17.108,45,12.06s13.56,5.595,24.81,2.58S79.905,0,90,0s8.94,11.625,20.19,14.64S126.255,7,135,12.06s1.935,14.565,10.17,22.8,17.722,1.4,22.77,10.14-5.595,13.56-2.58,24.81S180,79.905,180,90c0,7.844-11.625,8.94-14.64,20.19S173,126.255,167.94,135Z" transform="translate(593 124)"/><path class="b" d="M27.5,114.823a6.041,6.041,0,0,1-4.286-1.775L1.776,91.613A6.062,6.062,0,1,1,10.35,83.04L27.5,100.187l38.581-38.58A6.062,6.062,0,0,1,74.65,70.18L31.783,113.048A6.046,6.046,0,0,1,27.5,114.823Z" transform="translate(645.121 126.177)"/></g></svg>