<svg xmlns="http://www.w3.org/2000/svg" width="286.055" height="286.054" viewBox="0 0 286.055 286.054">
  <g id="Group_808" data-name="Group 808" transform="translate(-23001 1294)">
    <g id="exclamation-mark" transform="translate(23001 -1294)">
      <path id="Path_1417" data-name="Path 1417" d="M143.027,0A143.027,143.027,0,1,0,286.054,143.027,143.033,143.033,0,0,0,143.027,0Z" fill="#f83936"/>
    </g>
    <path id="Path_1418" data-name="Path 1418" d="M143.036,62.726c-10.244,0-18,5.346-18,13.981v79.2c0,8.644,7.75,13.972,18,13.972,9.994,0,17.995-5.551,17.995-13.972v-79.2C161.03,68.277,153.03,62.726,143.036,62.726Zm0,125a17.852,17.852,0,1,0,17.843,17.86A17.876,17.876,0,0,0,143.036,187.723Z" transform="translate(23001 -1294)" fill="#fff"/>
  </g>
</svg>
