<svg xmlns="http://www.w3.org/2000/svg" viewBox="0 0 24 24"><g transform="translate(-612 584)"><rect class="a" width="24" height="24" transform="translate(612 -584)"/><g transform="translate(577.05 -269)"><g transform="translate(-12 -315)"><path class="b" d="M59.514,0a4.633,4.633,0,0,0-4.629,4.629v.112h-3.06a.486.486,0,0,0-.482.438L49.95,20.9v.044A3.283,3.283,0,0,0,53.419,24H65.614a3.283,3.283,0,0,0,3.469-3.055V20.9l-1.4-15.722a.483.483,0,0,0-.482-.438h-3.06V4.629A4.633,4.633,0,0,0,59.514,0ZM55.85,4.629a3.664,3.664,0,1,1,7.328,0v.112H55.85V4.629ZM66.759,5.705l1.354,15.259a2.333,2.333,0,0,1-2.5,2.071H53.419a2.333,2.333,0,0,1-2.5-2.071L52.269,5.705h2.616V7.937a.482.482,0,1,0,.965,0V5.705h7.328V7.937a.482.482,0,1,0,.965,0V5.705Z"/></g></g></g></svg>
