<svg xmlns="http://www.w3.org/2000/svg" width="76" height="76" viewBox="0 0 76 76">
  <g id="Group_670" data-name="Group 670" transform="translate(-476 -393)">
    <g id="Ellipse_29" data-name="Ellipse 29" transform="translate(476 393)" fill="#d6ef63" stroke="#1b4e01" stroke-width="2">
      <circle cx="38" cy="38" r="38" stroke="none"/>
      <circle cx="38" cy="38" r="37" fill="none"/>
    </g>
    <path id="Path_1118" data-name="Path 1118" d="M7879.617,1952.439l17.706-21.417s1.441-1.346,2.473-.839.134,2.767.134,2.767l-16.8,26.362a4.215,4.215,0,0,1-2.485,2,4.169,4.169,0,0,1-3.265-.9l-8.721-10.129a3.689,3.689,0,0,1,.557-4.331,3.649,3.649,0,0,1,4.278-.462C7874.884,1946.8,7879.617,1952.439,7879.617,1952.439Z" transform="translate(-7370.183 -1514.897)" fill="#1b4e01"/>
  </g>
</svg>
