<svg xmlns="http://www.w3.org/2000/svg" width="60" height="66.438" viewBox="0 0 60 66.438"><defs><style>.a{fill:#313131;fill-rule:evenodd;}</style></defs><g transform="translate(-0.001)"><path class="a" d="M57.206,27.941a1.3,1.3,0,0,0-1.148-.693H34.517V24.9H56.058a1.3,1.3,0,0,0,1.148-.693l2.645-5.026a1.3,1.3,0,0,0,0-1.208L57.206,12.95a1.3,1.3,0,0,0-1.148-.693H34.517V5.6a1.3,1.3,0,0,0-.259-.777L31.04.521a1.3,1.3,0,0,0-2.079,0l-3.218,4.3a1.3,1.3,0,0,0-.259.777V19.752H3.943a1.3,1.3,0,0,0-1.148.693L.15,25.472a1.3,1.3,0,0,0,0,1.208L2.8,31.706a1.3,1.3,0,0,0,1.148.693H25.485V46.921a1.3,1.3,0,0,0,2.6,0V6.032L30,3.464l1.921,2.568v57.81H28.08V57.3a1.3,1.3,0,0,0-2.6,0v6.54H16.576a1.3,1.3,0,0,0,0,2.6h26.85a1.3,1.3,0,0,0,0-2.6H34.517V39.895H56.058a1.3,1.3,0,0,0,1.148-.693l2.645-5.026a1.3,1.3,0,0,0,0-1.208ZM4.727,29.8,2.765,26.076l1.962-3.728H25.485V29.8H4.727ZM55.274,14.852l1.962,3.729-1.962,3.729H34.517V14.852Zm0,22.448H34.517V29.842H55.274l1.962,3.729Zm0,0" transform="translate(0 0)"/><path class="a" d="M197.688,394.193a1.3,1.3,0,1,0-1.3-1.3A1.3,1.3,0,0,0,197.688,394.193Zm0,0" transform="translate(-170.906 -340.784)"/></g></svg>