<svg xmlns="http://www.w3.org/2000/svg" width="106" height="105.996" viewBox="0 0 106 105.996"><defs><style>.a{fill:#6a8b59;}</style></defs><g transform="translate(0 -0.008)"><g transform="translate(0 0.008)"><path class="a" d="M60.941,324.764,11.447,363.209H112.715l-49.5-38.446A1.817,1.817,0,0,0,60.941,324.764Z" transform="translate(-9.077 -257.213)"/><path class="a" d="M236.111.4a1.815,1.815,0,0,0-2.258,0L229.486,3.79h10.979Z" transform="translate(-181.975 -0.008)"/><path class="a" d="M74.927,95.753a1.893,1.893,0,1,1-2.321-2.991l31.567-24.512L90.857,57.9V72.527a1.893,1.893,0,1,1-3.786,0V38.456a1.893,1.893,0,0,0-1.893-1.893H20.821a1.893,1.893,0,0,0-1.893,1.893V72.527a1.893,1.893,0,1,1-3.786,0V57.9L1.826,68.249,33.339,92.718a1.893,1.893,0,0,1-2.321,2.992L0,71.624v60.416L49.549,93.557a5.616,5.616,0,0,1,6.9,0L106,132.041V71.624ZM60.653,71.431A11.357,11.357,0,1,1,53,51.706a1.893,1.893,0,0,1,0,3.786,7.571,7.571,0,1,0,7.571,7.571,1.893,1.893,0,0,1,3.786,0v7.571a3.786,3.786,0,0,0,7.572,0V63.063A18.929,18.929,0,1,0,53,81.991a1.893,1.893,0,0,1,0,3.786A22.714,22.714,0,1,1,75.714,63.063v7.571a7.551,7.551,0,0,1-15.061.8Z" transform="translate(0 -28.995)"/></g></g></svg>