<svg xmlns="http://www.w3.org/2000/svg" viewBox="0 0 24 24"><g transform="translate(-20 -108)"><rect class="a" width="24" height="24" transform="translate(20 108)"/><g transform="translate(20 107.174)"><path d="M23.961,8.48c-.35-3.856-3.08-6.653-6.5-6.653a6.456,6.456,0,0,0-5.531,3.187,6.222,6.222,0,0,0-5.4-3.188C3.12,1.826.39,4.624.04,8.479a6.861,6.861,0,0,0,.2,2.528,10.845,10.845,0,0,0,3.323,5.545l8.361,7.588,8.5-7.587a10.847,10.847,0,0,0,3.323-5.545A6.876,6.876,0,0,0,23.961,8.48Zm-1.1,2.317a9.919,9.919,0,0,1-3.042,5.07L11.934,22.9l-7.746-7.03A9.926,9.926,0,0,1,1.143,10.8a6,6,0,0,1-.192-2.17L.958,8.58C1.258,5.2,3.6,2.749,6.535,2.749a5.41,5.41,0,0,1,4.972,3.469l.425,1.008.425-1.008A5.576,5.576,0,0,1,17.466,2.75c2.931,0,5.277,2.452,5.583,5.874A5.988,5.988,0,0,1,22.857,10.8Z" transform="translate(0)"/></g></g></svg>
