<svg xmlns="http://www.w3.org/2000/svg" viewBox="0 0 24 24"><g transform="translate(-30 -28)"><path class="b" d="M3.429,40a3.429,3.429,0,1,0,3.429,3.429A3.433,3.433,0,0,0,3.429,40Zm0,6A2.571,2.571,0,1,1,6,43.429,2.574,2.574,0,0,1,3.429,46Z" transform="translate(30 5.143)"/><path class="b" d="M23.429,40a3.429,3.429,0,1,0,3.429,3.429A3.433,3.433,0,0,0,23.429,40Zm0,6A2.571,2.571,0,1,1,26,43.429,2.574,2.574,0,0,1,23.429,46Z" transform="translate(18.571 5.143)"/><path class="b" d="M43.429,40a3.429,3.429,0,1,0,3.429,3.429A3.433,3.433,0,0,0,43.429,40Zm0,6A2.571,2.571,0,1,1,46,43.429,2.574,2.574,0,0,1,43.429,46Z" transform="translate(7.143 5.143)"/><path class="b" d="M3.429,20a3.429,3.429,0,1,0,3.429,3.429A3.433,3.433,0,0,0,3.429,20Zm0,6A2.571,2.571,0,1,1,6,23.429,2.574,2.574,0,0,1,3.429,26Z" transform="translate(30 16.571)"/><path class="b" d="M23.429,20a3.429,3.429,0,1,0,3.429,3.429A3.433,3.433,0,0,0,23.429,20Zm0,6A2.571,2.571,0,1,1,26,23.429,2.574,2.574,0,0,1,23.429,26Z" transform="translate(18.571 16.571)"/><path class="b" d="M43.429,20a3.429,3.429,0,1,0,3.429,3.429A3.433,3.433,0,0,0,43.429,20Zm0,6A2.571,2.571,0,1,1,46,23.429,2.574,2.574,0,0,1,43.429,26Z" transform="translate(7.143 16.571)"/><path class="b" d="M3.429,0A3.429,3.429,0,1,0,6.857,3.429,3.433,3.433,0,0,0,3.429,0Zm0,6A2.571,2.571,0,1,1,6,3.429,2.574,2.574,0,0,1,3.429,6Z" transform="translate(30 28)"/><path class="b" d="M23.429,0a3.429,3.429,0,1,0,3.429,3.429A3.433,3.433,0,0,0,23.429,0Zm0,6A2.571,2.571,0,1,1,26,3.429,2.574,2.574,0,0,1,23.429,6Z" transform="translate(18.571 28)"/><path class="b" d="M43.429,6.857A3.429,3.429,0,1,0,40,3.429,3.433,3.433,0,0,0,43.429,6.857Zm0-6a2.571,2.571,0,1,1-2.571,2.571A2.574,2.574,0,0,1,43.429.857Z" transform="translate(7.143 28)"/></g></svg>
