<svg xmlns="http://www.w3.org/2000/svg" viewBox="0 0 24 24"><g transform="translate(-101 -139)"><rect class="a" width="24" height="24" transform="translate(101 139)"/><g transform="translate(102.602 139)"><path class="b" d="M78.388,11.98A5.99,5.99,0,1,0,72.4,5.99,5.99,5.99,0,0,0,78.388,11.98Zm0-10.964A4.975,4.975,0,1,1,73.414,5.99,4.975,4.975,0,0,1,78.388,1.015Zm0,0" transform="translate(-68.345)"/><path class="b" d="M10.043,265.5a9.454,9.454,0,0,0-6.822,2.848A10.146,10.146,0,0,0,.4,275.515a.509.509,0,0,0,.508.508H19.18a.509.509,0,0,0,.508-.508,10.134,10.134,0,0,0-2.822-7.163A9.46,9.46,0,0,0,10.043,265.5Zm-8.619,9.508a9.066,9.066,0,0,1,2.518-5.944,8.458,8.458,0,0,1,6.1-2.543,8.457,8.457,0,0,1,6.1,2.543,9.041,9.041,0,0,1,2.518,5.944Zm0,0" transform="translate(0 -252.023)"/></g></g></svg>
