<svg xmlns="http://www.w3.org/2000/svg" width="32" height="32" viewBox="0 0 32 32">
  <g id="abada" transform="translate(-2194 -328)">
    <g id="abada-2" data-name="abada" transform="translate(1932 189)">
      <g id="Group_96" data-name="Group 96" transform="translate(262 139)">
        <path id="Path_1619" data-name="Path 1619" d="M0,0H32V32H0Z" fill="rgba(255,255,255,0)"/>
        <g id="sleeveless" transform="translate(4)">
          <g id="Group_60" data-name="Group 60">
            <g id="Group_59" data-name="Group 59">
              <path id="Path_93" data-name="Path 93" d="M84.613,0H82.448a.965.965,0,0,0-.97.948,12.666,12.666,0,0,1-.5,3.442,3.294,3.294,0,0,1-6.277,0A12.666,12.666,0,0,1,74.2.948.965.965,0,0,0,73.23,0H71.065a.972.972,0,0,0-.971.971V6.165s0,.008,0,.011A7.909,7.909,0,0,1,69.679,8.6a5.114,5.114,0,0,1-3.086,3.348.975.975,0,0,0-.63.908V31.53a.47.47,0,0,0,.47.47h2.829a.47.47,0,0,0,0-.939H66.9V12.86a.032.032,0,0,1,.021-.029,6.1,6.1,0,0,0,3.656-3.955,8.745,8.745,0,0,0,.456-2.715V.971a.031.031,0,0,1,.031-.031H73.23a.032.032,0,0,1,.031.032,13.593,13.593,0,0,0,.543,3.7,4.233,4.233,0,0,0,8.07,0,13.592,13.592,0,0,0,.543-3.7.032.032,0,0,1,.031-.032h2.165a.031.031,0,0,1,.031.031V2.83a.47.47,0,0,0,.939,0V.971A.972.972,0,0,0,84.613,0Z" transform="translate(-65.962)" fill="#007041"/>
            </g>
          </g>
          <g id="Group_62" data-name="Group 62" transform="translate(5.835 5.23)">
            <g id="Group_61" data-name="Group 61" transform="translate(0)">
              <path id="Path_94" data-name="Path 94" d="M176.613,90.4a5.114,5.114,0,0,1-3.087-3.348,7.909,7.909,0,0,1-.416-2.426s0-.008,0-.012v-.465a.47.47,0,1,0-.939,0v.461a8.745,8.745,0,0,0,.456,2.715,6.1,6.1,0,0,0,3.656,3.955.032.032,0,0,1,.021.029v18.2H159.793a.47.47,0,0,0,0,.939h16.98a.47.47,0,0,0,.47-.47V91.311A.975.975,0,0,0,176.613,90.4Z" transform="translate(-159.323 -83.682)" fill="#007041"/>
            </g>
          </g>
        </g>
      </g>
    </g>
  </g>
</svg>
