<svg xmlns="http://www.w3.org/2000/svg" width="32" height="32" viewBox="0 0 32 32">
  <g id="agenda" transform="translate(-389 -328)">
    <g id="adesivo" transform="translate(-127 206)">
      <rect id="Rectangle_110" data-name="Rectangle 110" width="32" height="32" transform="translate(516 122)" fill="rgba(255,255,255,0)"/>
      <g id="free-delivery" transform="translate(516 122.5)">
        <path id="Path_107" data-name="Path 107" d="M2.064,22.177A15.057,15.057,0,0,1,24.241,3.888a.469.469,0,1,0,.514-.785A16,16,0,0,0,1.2,22.531a.469.469,0,1,0,.868-.355Zm0,0" transform="translate(0 -0.5)" fill="rgba(255,255,255,0)"/>
        <path id="Path_108" data-name="Path 108" d="M55.887,58.952a.469.469,0,0,0-.6.717,15.053,15.053,0,0,1,2.54,20.289,13.246,13.246,0,0,0-13.2-.4.469.469,0,0,0,.444.826,12.312,12.312,0,0,1,11.676.031c-4.3,1.132-12.084,3.183-16.323,4.3a12.6,12.6,0,0,1,3.122-3.367.469.469,0,0,0-.559-.753,13.548,13.548,0,0,0-3.729,4.246,15.173,15.173,0,0,1-6.823-6.337.469.469,0,0,0-.819.457,15.947,15.947,0,0,0,7.672,6.921c.257.107-1.012.365,17.37-4.477,1.464-.395,1.516-.355,1.656-.539A15.99,15.99,0,0,0,55.887,58.952Zm0,0" transform="translate(-29.583 -55.196)" fill="rgba(255,255,255,0)"/>
      </g>
    </g>
    <path id="agenda-2" data-name="agenda" d="M29.957,9.243V.511A.511.511,0,0,0,29.447,0H25.362a.511.511,0,1,0,0,1.021h3.574v8.17H27.915V2.553a.511.511,0,1,0-1.021,0V9.7a.511.511,0,0,0,.511.511H29.45a1.533,1.533,0,0,1,1.528,1.532v3.4a1.534,1.534,0,0,1-1.532,1.532H27.4a.511.511,0,0,0-.511.511v1.532H25.872V2.553a.511.511,0,1,0-1.021,0V19.234a.511.511,0,0,0,.511.511H27.4a1.534,1.534,0,0,1,1.533,1.532v3.4a1.534,1.534,0,0,1-1.531,1.532H25.362a.511.511,0,0,0-.511.511v2.723a.511.511,0,0,0,1.021,0V27.234h1.021v2.213a.511.511,0,0,0,1.021,0V27.183a2.542,2.542,0,0,0,1.021-.461v4.257H23.83V.511A.511.511,0,0,0,23.319,0H3.234a.511.511,0,0,0-.511.511v1.7H1.532a1.532,1.532,0,1,0,0,3.064H2.723v5.106H1.532a1.532,1.532,0,0,0,0,3.064H2.723v5.106H1.532a1.532,1.532,0,1,0,0,3.064H2.723v5.106H1.532a1.532,1.532,0,1,0,0,3.064H2.723v1.7A.511.511,0,0,0,3.234,32H29.447a.511.511,0,0,0,.511-.511V17.651A2.557,2.557,0,0,0,32,15.149v-3.4A2.557,2.557,0,0,0,29.957,9.243ZM1.021,3.745a.511.511,0,0,1,.511-.511h3.4a.511.511,0,0,1,0,1.021h-3.4A.511.511,0,0,1,1.021,3.745Zm0,8.17a.511.511,0,0,1,.511-.511h3.4a.511.511,0,0,1,0,1.021h-3.4A.511.511,0,0,1,1.021,11.915Zm0,8.17a.511.511,0,0,1,.511-.511h3.4a.511.511,0,1,1,0,1.021h-3.4A.511.511,0,0,1,1.021,20.085Zm0,8.17a.511.511,0,0,1,.511-.511h3.4a.511.511,0,1,1,0,1.021h-3.4A.511.511,0,0,1,1.021,28.255Zm2.723,1.532H4.936a1.532,1.532,0,1,0,0-3.064H3.745V21.617H4.936a1.532,1.532,0,1,0,0-3.064H3.745V13.447H4.936a1.532,1.532,0,1,0,0-3.064H3.745V5.277H4.936a1.532,1.532,0,1,0,0-3.064H3.745V1.021H22.809V30.979H3.745Zm24.17-11.012V17.7h1.021v1.533A2.542,2.542,0,0,0,27.915,18.775Z" transform="translate(389 328)" fill="#007041"/>
  </g>
</svg>
