<svg xmlns="http://www.w3.org/2000/svg" width="32" height="32" viewBox="0 0 32 32">
  <g id="bandeja" transform="translate(-1316 -166)">
    <g id="adesivo" transform="translate(800 44)">
      <rect id="Rectangle_110" data-name="Rectangle 110" width="32" height="32" transform="translate(516 122)" fill="rgba(255,255,255,0)"/>
      <g id="free-delivery" transform="translate(516 122.5)">
        <path id="Path_107" data-name="Path 107" d="M2.064,22.177A15.057,15.057,0,0,1,24.241,3.888a.469.469,0,1,0,.514-.785A16,16,0,0,0,1.2,22.531a.469.469,0,1,0,.868-.355Zm0,0" transform="translate(0 -0.5)" fill="rgba(255,255,255,0)"/>
        <path id="Path_108" data-name="Path 108" d="M55.887,58.952a.469.469,0,0,0-.6.717,15.053,15.053,0,0,1,2.54,20.289,13.246,13.246,0,0,0-13.2-.4.469.469,0,0,0,.444.826,12.312,12.312,0,0,1,11.676.031c-4.3,1.132-12.084,3.183-16.323,4.3a12.6,12.6,0,0,1,3.122-3.367.469.469,0,0,0-.559-.753,13.548,13.548,0,0,0-3.729,4.246,15.173,15.173,0,0,1-6.823-6.337.469.469,0,0,0-.819.457,15.947,15.947,0,0,0,7.672,6.921c.257.107-1.012.365,17.37-4.477,1.464-.395,1.516-.355,1.656-.539A15.99,15.99,0,0,0,55.887,58.952Zm0,0" transform="translate(-29.583 -55.196)" fill="rgba(255,255,255,0)"/>
      </g>
    </g>
    <g id="Bandeja-2" data-name="Bandeja" transform="translate(836 -145)">
      <rect id="Rectangle_110-2" data-name="Rectangle 110" width="32" height="32" transform="translate(480 311)" fill="rgba(255,255,255,0)"/>
      <g id="cookies" transform="translate(480 315.5)">
        <path id="Path_126" data-name="Path 126" d="M31.985,19.124A90.594,90.594,0,0,0,25.034,3.387,5.415,5.415,0,0,0,23.2,1.2,5.65,5.65,0,0,0,20.366.663L14.944.612c-.545,0-1.115-.03-1.667-.054A24.459,24.459,0,0,0,9.832.567a1.564,1.564,0,0,0-1.273,1.04c-.036.066-.072.133-.112.2L1.54,13.963C.522,15.753-.5,17.827.27,19.782a4.733,4.733,0,0,0,2.781,2.54,12.519,12.519,0,0,0,3.636.657c3.615.276,7.259.414,10.9.414,2.773,0,5.544-.08,8.3-.24a7.9,7.9,0,0,0,2.984-.578,8.293,8.293,0,0,0,3.077-3.181A.313.313,0,0,0,31.985,19.124ZM13.248,1.182c.557.025,1.133.05,1.689.055l5.422.05a7.06,7.06,0,0,1,2,.154l-.428,1.994-.009.043c-1.641-.061-3.306-.01-4.916.039a51.905,51.905,0,0,1-6.748-.087A8.229,8.229,0,0,0,10,1.179c.434-.039.879-.054,1.329-.054C11.968,1.125,12.615,1.154,13.248,1.182Zm-3.1,2.938c.006-.023.01-.046.015-.069a35.216,35.216,0,0,0,3.56.159c1.107,0,2.21-.034,3.294-.067,1.589-.049,3.23-.1,4.839-.04,0,.007,0,.013,0,.02a2.091,2.091,0,0,0,.252.7c.568,1.111,1.16,2.234,1.732,3.32A98.054,98.054,0,0,1,29,18.987c-.151,0-.257,0-.291,0-1.313-.059-2.628-.082-3.943-.082l-8.505-.2-8.579-.2-4.237-.1c1.872-4.3,3.911-8.582,6.064-12.743l.008-.015A6.924,6.924,0,0,0,10.153,4.12ZM2.083,14.272,8.991,2.117a3.673,3.673,0,0,1,.438-.63,5.725,5.725,0,0,1,.117,2.485,6.339,6.339,0,0,1-.587,1.386l-.008.015C6.752,9.621,4.672,14,2.767,18.387l-2.138-.05A8.845,8.845,0,0,1,2.083,14.272ZM28.606,22.01a7.413,7.413,0,0,1-2.754.519,143.224,143.224,0,0,1-19.117-.173,12.035,12.035,0,0,1-3.459-.617A4.113,4.113,0,0,1,.851,19.553a3.147,3.147,0,0,1-.167-.59l30.323.714A6.557,6.557,0,0,1,28.606,22.01Zm1.059-3.026A96.594,96.594,0,0,0,24.4,7.855c-.571-1.084-1.162-2.206-1.728-3.313a1.562,1.562,0,0,1-.188-.492,1.582,1.582,0,0,1,.055-.483l.4-1.85a5.63,5.63,0,0,1,1.553,1.976A89.936,89.936,0,0,1,31.3,19.059,7.864,7.864,0,0,0,29.665,18.984Zm0,0" transform="translate(-0.001 -0.5)" fill="#007041"/>
      </g>
    </g>
  </g>
</svg>
