<svg xmlns="http://www.w3.org/2000/svg" width="32" height="32" viewBox="0 0 32 32">
  <g id="bolsa" transform="translate(-2194 -4)">
    <rect id="Rectangle_1354" data-name="Rectangle 1354" width="32" height="32" transform="translate(2194 4)" fill="rgba(255,255,255,0)"/>
    <g id="beach-bag" transform="translate(2194 4.258)">
      <path id="Path_1550" data-name="Path 1550" d="M79.095,376.525H56.242a.505.505,0,0,1-.488-.375l-.814-3.033a.505.505,0,0,1,.488-.636h24.48a.505.505,0,0,1,.488.636l-.814,3.033A.505.505,0,0,1,79.095,376.525ZM56.63,375.514H78.707l.542-2.022H56.088Zm0,0" transform="translate(-51.668 -350.65)" fill="#007041"/>
      <path id="Path_1551" data-name="Path 1551" d="M30.274,131.145H1.726a.506.506,0,0,1-.492-.387L.014,125.7a.506.506,0,0,1,.491-.624H9.611a.506.506,0,0,1,0,1.011H1.148l.976,4.044H29.877l.976-4.044H21.781a.506.506,0,0,1,0-1.011h9.714a.506.506,0,0,1,.491.624l-1.22,5.056A.505.505,0,0,1,30.274,131.145Zm0,0" transform="translate(0 -117.909)" fill="#007041"/>
      <path id="Path_1552" data-name="Path 1552" d="M193.787,126.089h-8.594a.506.506,0,1,1,0-1.011h8.594a.506.506,0,1,1,0,1.011Zm0,0" transform="translate(-173.743 -117.909)" fill="#007041"/>
      <path id="Path_1553" data-name="Path 1553" d="M88.525,429.229H72.641a3.729,3.729,0,0,1-3.553-2.953v-.006l-.424-1.991a.506.506,0,0,1,.494-.611H92.01a.505.505,0,0,1,.494.611l-.424,1.991A3.73,3.73,0,0,1,88.525,429.229Zm-18.45-3.173a2.746,2.746,0,0,0,2.566,2.162H88.525a2.746,2.746,0,0,0,2.567-2.165l.293-1.374h-21.6Zm0,0" transform="translate(-64.583 -398.804)" fill="#007041"/>
      <path id="Path_1554" data-name="Path 1554" d="M48.834,215.446H21.913a.506.506,0,0,1-.5-.406L20.6,211a.506.506,0,0,1,.5-.605H49.648a.506.506,0,0,1,.5.605l-.814,4.044A.506.506,0,0,1,48.834,215.446Zm-26.507-1.011H48.42l.61-3.033H21.717Zm0,0" transform="translate(-19.373 -198.166)" fill="#007041"/>
      <path id="Path_1555" data-name="Path 1555" d="M60.535,285.209H36.056a.506.506,0,0,1-.494-.4l-1.22-5.561a.505.505,0,0,1,.494-.614H61.756a.505.505,0,0,1,.494.614l-1.22,5.561A.506.506,0,0,1,60.535,285.209ZM36.462,284.2H60.129l1-4.55H35.463Zm0,0" transform="translate(-32.295 -262.367)" fill="#007041"/>
      <path id="Path_1556" data-name="Path 1556" d="M171.227,9.7H169.71a.506.506,0,0,1-.505-.506V5.653c0-2.43-1.928-3.518-3.839-3.518a3.47,3.47,0,0,0-3.744,3.538V9.192a.506.506,0,0,1-.505.506H159.6a.506.506,0,0,1-.506-.506V5.653c0-3.535,2.55-5.911,6.344-5.911,3.765,0,6.295,2.375,6.295,5.911V9.192A.506.506,0,0,1,171.227,9.7Zm-1.011-1.011h.506V5.653c0-2.976-2.074-4.9-5.284-4.9-3.24,0-5.333,1.923-5.333,4.9V8.686h.506V5.653a4.464,4.464,0,0,1,4.755-4.529c2.856,0,4.85,1.863,4.85,4.529Zm0,0" transform="translate(-149.666)" fill="#007041"/>
    </g>
  </g>
</svg>
