<svg xmlns="http://www.w3.org/2000/svg" width="32" height="32" viewBox="0 0 32 32">
  <g id="pipoca" transform="translate(-800 -436)">
    <g id="adesivo" transform="translate(284 314)">
      <rect id="Rectangle_110" data-name="Rectangle 110" width="32" height="32" transform="translate(516 122)" fill="rgba(255,255,255,0)"/>
      <g id="free-delivery" transform="translate(516 122.5)">
        <path id="Path_107" data-name="Path 107" d="M2.064,22.177A15.057,15.057,0,0,1,24.241,3.888a.469.469,0,1,0,.514-.785A16,16,0,0,0,1.2,22.531a.469.469,0,1,0,.868-.355Zm0,0" transform="translate(0 -0.5)" fill="rgba(255,255,255,0)"/>
        <path id="Path_108" data-name="Path 108" d="M55.887,58.952a.469.469,0,0,0-.6.717,15.053,15.053,0,0,1,2.54,20.289,13.246,13.246,0,0,0-13.2-.4.469.469,0,0,0,.444.826,12.312,12.312,0,0,1,11.676.031c-4.3,1.132-12.084,3.183-16.323,4.3a12.6,12.6,0,0,1,3.122-3.367.469.469,0,0,0-.559-.753,13.548,13.548,0,0,0-3.729,4.246,15.173,15.173,0,0,1-6.823-6.337.469.469,0,0,0-.819.457,15.947,15.947,0,0,0,7.672,6.921c.257.107-1.012.365,17.37-4.477,1.464-.395,1.516-.355,1.656-.539A15.99,15.99,0,0,0,55.887,58.952Zm0,0" transform="translate(-29.583 -55.196)" fill="rgba(255,255,255,0)"/>
      </g>
    </g>
    <g id="adesivo-2" data-name="adesivo" transform="translate(284 314)">
      <rect id="Rectangle_110-2" data-name="Rectangle 110" width="32" height="32" transform="translate(516 122)" fill="rgba(255,255,255,0)"/>
      <g id="free-delivery-2" data-name="free-delivery" transform="translate(516 122.5)">
        <path id="Path_107-2" data-name="Path 107" d="M2.064,22.177A15.057,15.057,0,0,1,24.241,3.888a.469.469,0,1,0,.514-.785A16,16,0,0,0,1.2,22.531a.469.469,0,1,0,.868-.355Zm0,0" transform="translate(0 -0.5)" fill="rgba(255,255,255,0)"/>
        <path id="Path_108-2" data-name="Path 108" d="M55.887,58.952a.469.469,0,0,0-.6.717,15.053,15.053,0,0,1,2.54,20.289,13.246,13.246,0,0,0-13.2-.4.469.469,0,0,0,.444.826,12.312,12.312,0,0,1,11.676.031c-4.3,1.132-12.084,3.183-16.323,4.3a12.6,12.6,0,0,1,3.122-3.367.469.469,0,0,0-.559-.753,13.548,13.548,0,0,0-3.729,4.246,15.173,15.173,0,0,1-6.823-6.337.469.469,0,0,0-.819.457,15.947,15.947,0,0,0,7.672,6.921c.257.107-1.012.365,17.37-4.477,1.464-.395,1.516-.355,1.656-.539A15.99,15.99,0,0,0,55.887,58.952Zm0,0" transform="translate(-29.583 -55.196)" fill="rgba(255,255,255,0)"/>
      </g>
    </g>
    <g id="popcorn" transform="translate(780.496 436)">
      <g id="Group_901" data-name="Group 901" transform="translate(21.504 6.823)">
        <g id="Group_900" data-name="Group 900" transform="translate(0)">
          <path id="Path_1500" data-name="Path 1500" d="M26.816,110.959A1.788,1.788,0,0,0,23.87,109.6a1.788,1.788,0,0,0-1.18,3.375,1.788,1.788,0,0,0,3.5-.655A1.791,1.791,0,0,0,26.816,110.959Zm-1.372.742-.329.185.111.361a.85.85,0,1,1-1.66.313l-.027-.375-.372-.055a.85.85,0,1,1,.567-1.568l.361.22.256-.337a.85.85,0,1,1,1.093,1.255Z" transform="translate(-21.504 -109.171)" fill="#007041"/>
        </g>
      </g>
      <g id="Group_903" data-name="Group 903" transform="translate(26.623 0.969)">
        <g id="Group_902" data-name="Group 902" transform="translate(0)">
          <path id="Path_1501" data-name="Path 1501" d="M108.6,17.144a1.646,1.646,0,0,0-2.69-1.272,1.645,1.645,0,0,0-2.142,1.734,1.645,1.645,0,0,0,2.09,2.463,1.645,1.645,0,0,0,2.193-1.552q0-.071-.006-.141A1.648,1.648,0,0,0,108.6,17.144Zm-1.3.618-.33.185.111.361a.708.708,0,0,1-1.033.82l-.286-.168-.253.214a.7.7,0,0,1-.457.167.708.708,0,0,1-.469-1.238l.219-.194-.078-.282a.708.708,0,0,1,1.05-.8l.361.22.256-.337a.708.708,0,1,1,.91,1.045Z" transform="translate(-103.406 -15.499)" fill="#007041"/>
        </g>
      </g>
      <g id="Group_905" data-name="Group 905" transform="translate(45.622 4.438)">
        <g id="Group_904" data-name="Group 904" transform="translate(0)">
          <path id="Path_1502" data-name="Path 1502" d="M412.6,72.649a2.617,2.617,0,0,0-4.841.294,1.629,1.629,0,0,0,.009.168,2.19,2.19,0,0,0,4.283.911c0-.047,0-.094-.006-.141A1.648,1.648,0,0,0,412.6,72.649Zm-1.3.618-.33.185.111.361a.708.708,0,0,1-1.034.82l-.286-.168-.253.214a.7.7,0,0,1-.457.167.708.708,0,0,1-.469-1.238l.219-.194-.078-.282a.708.708,0,0,1,1.05-.8l.361.22.256-.337a.708.708,0,1,1,.91,1.045Z" transform="translate(-407.402 -71.004)" fill="#007041"/>
        </g>
      </g>
      <g id="Group_907" data-name="Group 907" transform="translate(40.943 0)">
        <g id="Group_906" data-name="Group 906" transform="translate(0 0)">
          <path id="Path_1503" data-name="Path 1503" d="M337.415,2.035a1.772,1.772,0,0,0-1-.719,1.788,1.788,0,0,0-3.455.92,1.8,1.8,0,0,0-.118,2.164,1.776,1.776,0,0,0,1.144.751,1.807,1.807,0,0,0,.339.032,1.793,1.793,0,0,0,1.146-.419,1.791,1.791,0,0,0,1.474-.246h0A1.79,1.79,0,0,0,337.415,2.035ZM336.772,3.2a.845.845,0,0,1-.357.544h0a.852.852,0,0,1-.858.057l-.338-.168-.236.295a.854.854,0,0,1-.186.172.85.85,0,0,1-1.006-1.37l.3-.233-.164-.339a.854.854,0,0,1,.288-1.072.844.844,0,0,1,.476-.147.86.86,0,0,1,.161.015.851.851,0,0,1,.69.792l.021.423.423.022a.85.85,0,0,1,.791,1.008Z" transform="translate(-332.532 0)" fill="#007041"/>
        </g>
      </g>
      <g id="Group_909" data-name="Group 909" transform="translate(25.891 4.063)">
        <g id="Group_908" data-name="Group 908" transform="translate(0)">
          <path id="Path_1504" data-name="Path 1504" d="M111.741,74.113a1.651,1.651,0,0,0-.168-.725,1.647,1.647,0,0,0-1.152-2.34,1.645,1.645,0,0,0-2.22-2.133,2.159,2.159,0,0,0-1.917-.555,1.641,1.641,0,0,0-.434-.31,1.788,1.788,0,0,0-2.43-2.619,1.792,1.792,0,0,0-1.55.191,1.788,1.788,0,0,0-2.978,1.661A1.65,1.65,0,0,0,97.559,68.7a1.944,1.944,0,0,0-1.684.306,1.646,1.646,0,0,0-2.147,1.732,1.65,1.65,0,0,0-.177,1.788A1.787,1.787,0,0,0,92.323,75.5a2.828,2.828,0,0,0-.623,2.008l2.55,15.43h14.67l2.545-15.392,0-.038a2.827,2.827,0,0,0-.336-1.58,1.806,1.806,0,0,0,.058-.446q0-.071-.006-.141A1.648,1.648,0,0,0,111.741,74.113ZM95.045,92h0L92.633,77.417A1.882,1.882,0,0,1,94.51,75.4h.02a1.876,1.876,0,0,1,1.88,1.809v.009l0,.057q0,.057,0,.115L97.577,92Zm3.473,0L97.352,77.244A1.882,1.882,0,0,1,99.234,75.4a1.884,1.884,0,0,1,1.882,1.882V92Zm3.536,0h0V77.283a1.882,1.882,0,0,1,3.238-1.3,1.864,1.864,0,0,1,.525,1.266L104.651,92Zm8.483-14.587L108.124,92h-2.532l1.159-14.594v-.019q0-.058,0-.115l0-.047V77.21a1.876,1.876,0,0,1,1.88-1.809h.02a1.882,1.882,0,0,1,1.877,2.017Zm-.1-2.687-.288.162a2.826,2.826,0,0,0-1.493-.429h-.02a2.811,2.811,0,0,0-2.354,1.262,2.863,2.863,0,0,0-.32-.4,2.818,2.818,0,0,0-4.382.4,2.818,2.818,0,0,0-4.382-.4,2.859,2.859,0,0,0-.32.4,2.811,2.811,0,0,0-2.354-1.262h-.02a2.826,2.826,0,0,0-1.482.422.85.85,0,0,1,1.068-1.3l.361.22.256-.336a.859.859,0,0,1,.2-.192l.8-.542L94.8,72.44a.708.708,0,0,1-.254-1.2l.219-.194-.079-.282a.708.708,0,0,1,1.05-.795l.361.221.256-.337a.834.834,0,0,1,.6-.282,1.255,1.255,0,0,1,.9.359,1.439,1.439,0,0,0,.157.117l.365.22.252-.339.23-.3-.223-.285a.7.7,0,0,1-.151-.436.709.709,0,0,1,.7-.708l.264.015.151-.2a.844.844,0,0,1,.145-.148l.295-.233-.164-.339a.85.85,0,0,1,1.469-.847.8.8,0,0,1,.046.078l.334.641.449-.567a.851.851,0,0,1,1.109-.2l.361.22.256-.336a.85.85,0,1,1,1.094,1.255l-.329.185.11.361a.868.868,0,0,1,.038.243c0,.013,0,.025,0,.038v.41l.407.054a.706.706,0,0,1,.5.322l.2.321.356-.135a1.219,1.219,0,0,1,1.441.463l.3.453.4-.369a.708.708,0,1,1,.825,1.138l-.331.186.114.363a.643.643,0,0,1,.024.118l.081.7.612-.34a.708.708,0,0,1,.9,1.057l-.227.29.228.289a.7.7,0,0,1,.15.436A.71.71,0,0,1,110.441,74.73Z" transform="translate(-91.69 -65.005)" fill="#007041"/>
        </g>
      </g>
      <g id="Group_911" data-name="Group 911" transform="translate(32.316 8.406)">
        <g id="Group_910" data-name="Group 910" transform="translate(0)">
          <path id="Path_1505" data-name="Path 1505" d="M199.563,135a1.369,1.369,0,0,0-.4.06,1.75,1.75,0,0,0-2.993.817,1.752,1.752,0,0,0-1.665,1.748h.937a.81.81,0,0,1,1.036-.78l.673.192-.078-.7a.822.822,0,0,1-.006-.092.812.812,0,0,1,1.532-.375l.259.5.443-.341a.433.433,0,0,1,.266-.091.438.438,0,0,1,.437.438h.938A1.377,1.377,0,0,0,199.563,135Z" transform="translate(-194.501 -134.503)" fill="#007041"/>
        </g>
      </g>
      <g id="Group_913" data-name="Group 913" transform="translate(37.191 10.625)">
        <g id="Group_912" data-name="Group 912">
          <path id="Path_1506" data-name="Path 1506" d="M275.813,170a1.631,1.631,0,0,0-1.195.526,1.594,1.594,0,0,0-2.118,1.505h.938a.657.657,0,0,1,.656-.656.649.649,0,0,1,.393.132l.46.345.246-.52a.687.687,0,0,1,1.308.293h.937A1.627,1.627,0,0,0,275.813,170Z" transform="translate(-272.501 -170.003)" fill="#007041"/>
        </g>
      </g>
      <g id="Group_915" data-name="Group 915" transform="translate(27.772 16.253)">
        <g id="Group_914" data-name="Group 914" transform="translate(0)">
          <rect id="Rectangle_1920" data-name="Rectangle 1920" width="0.937" height="3.689" transform="translate(0 0.153) rotate(-9.393)" fill="#007041"/>
        </g>
      </g>
      <g id="Group_917" data-name="Group 917" transform="translate(29.253 25.205)">
        <g id="Group_916" data-name="Group 916">
          <rect id="Rectangle_1921" data-name="Rectangle 1921" width="0.937" height="2.302" transform="matrix(0.987, -0.163, 0.163, 0.987, 0, 0.153)" fill="#007041"/>
        </g>
      </g>
      <g id="Group_919" data-name="Group 919" transform="translate(37.194 27.054)">
        <g id="Group_918" data-name="Group 918">
          <rect id="Rectangle_1922" data-name="Rectangle 1922" width="1.22" height="0.937" transform="translate(0 1.216) rotate(-85.458)" fill="#007041"/>
        </g>
      </g>
      <g id="Group_921" data-name="Group 921" transform="translate(37.583 19.804)">
        <g id="Group_920" data-name="Group 920" transform="translate(0)">
          <rect id="Rectangle_1923" data-name="Rectangle 1923" width="3.574" height="0.937" transform="translate(0 3.563) rotate(-85.458)" fill="#007041"/>
        </g>
      </g>
      <g id="Group_923" data-name="Group 923" transform="translate(37.98 16.295)">
        <g id="Group_922" data-name="Group 922">
          <rect id="Rectangle_1924" data-name="Rectangle 1924" width="2.079" height="0.937" transform="translate(0 2.072) rotate(-85.458)" fill="#007041"/>
        </g>
      </g>
    </g>
  </g>
</svg>
