<svg xmlns="http://www.w3.org/2000/svg" width="32" height="32" viewBox="0 0 32 32">
  <g id="caixa_surpresa" transform="translate(-800 -544)">
    <g id="adesivo" transform="translate(284 422)">
      <rect id="Rectangle_110" data-name="Rectangle 110" width="32" height="32" transform="translate(516 122)" fill="rgba(255,255,255,0)"/>
      <g id="free-delivery" transform="translate(516 122.5)">
        <path id="Path_107" data-name="Path 107" d="M2.064,22.177A15.057,15.057,0,0,1,24.241,3.888a.469.469,0,1,0,.514-.785A16,16,0,0,0,1.2,22.531a.469.469,0,1,0,.868-.355Zm0,0" transform="translate(0 -0.5)" fill="rgba(255,255,255,0)"/>
        <path id="Path_108" data-name="Path 108" d="M55.887,58.952a.469.469,0,0,0-.6.717,15.053,15.053,0,0,1,2.54,20.289,13.246,13.246,0,0,0-13.2-.4.469.469,0,0,0,.444.826,12.312,12.312,0,0,1,11.676.031c-4.3,1.132-12.084,3.183-16.323,4.3a12.6,12.6,0,0,1,3.122-3.367.469.469,0,0,0-.559-.753,13.548,13.548,0,0,0-3.729,4.246,15.173,15.173,0,0,1-6.823-6.337.469.469,0,0,0-.819.457,15.947,15.947,0,0,0,7.672,6.921c.257.107-1.012.365,17.37-4.477,1.464-.395,1.516-.355,1.656-.539A15.99,15.99,0,0,0,55.887,58.952Zm0,0" transform="translate(-29.583 -55.196)" fill="rgba(255,255,255,0)"/>
      </g>
    </g>
    <g id="chocolate-box" transform="translate(803 544)">
      <path id="Path_155" data-name="Path 155" d="M395.1,274.258a7.6,7.6,0,0,1-.72,1.333A8.582,8.582,0,0,0,395.1,274.258Zm0,0" transform="translate(-369.751 -257.114)" fill="#007041"/>
      <path id="Path_156" data-name="Path 156" d="M384.374,266.266a.657.657,0,0,1-.365-.109.666.666,0,0,1-.192-.923,7.937,7.937,0,0,0,.665-1.231.666.666,0,0,1,1.23.511,8.2,8.2,0,0,1-.782,1.451A.663.663,0,0,1,384.374,266.266Zm0,0" transform="translate(-359.75 -247.122)" fill="#007041"/>
      <path id="Path_157" data-name="Path 157" d="M410.283,223.91v.347a6.818,6.818,0,0,1-.333,2.107,7.266,7.266,0,0,0,.307-2.441h.013Zm0,0" transform="translate(-384.351 -209.913)" fill="#007041"/>
      <path id="Path_158" data-name="Path 158" d="M399.96,217.148a.641.641,0,0,1-.2-.031.666.666,0,0,1-.439-.828,6.565,6.565,0,0,0,.28-2.215.666.666,0,0,1,.545-.69.655.655,0,0,1,.395.033.663.663,0,0,1,.418.609v.347a7.48,7.48,0,0,1-.366,2.314A.669.669,0,0,1,399.96,217.148Zm0,0" transform="translate(-374.362 -200.031)" fill="#007041"/>
      <path id="Path_160" data-name="Path 160" d="M1.143,231.943a.666.666,0,0,1-.667-.667v-5.334a.667.667,0,0,1,.621-.665l1.948-.128c7.311-.465,15.6-.993,20.574-5.97a6.914,6.914,0,0,0,2.087-5.186.666.666,0,0,1,.384-.638l.037-.017a.666.666,0,0,1,.947.606l-.01,5.334a8.248,8.248,0,0,1-2.506,6.18c-5.333,5.333-13.886,5.878-21.432,6.359l-1.941.128A.438.438,0,0,0,1.143,231.943Zm.667-5.377v4l1.236-.081c7.311-.465,15.6-.994,20.574-5.971a6.937,6.937,0,0,0,2.116-5.2v-.643a8.666,8.666,0,0,1-1.174,1.455c-5.333,5.333-13.886,5.878-21.432,6.359Zm0,0" transform="translate(-0.475 -199.943)" fill="#007041"/>
      <path id="Path_161" data-name="Path 161" d="M1.124,26.665a.667.667,0,0,1-.667-.712c.052-.74.1-1.5.145-2.28.436-7.092.975-15.916,6.223-21.164C9.892-.56,14.589-.855,17.292,1.847a8.513,8.513,0,0,1,2.567,5.978A6.272,6.272,0,0,1,25.2,9.71c2.7,2.7,2.407,7.4-.66,10.467-5.333,5.333-13.886,5.878-21.432,6.359l-1.942.128ZM12.664,1.328a7.017,7.017,0,0,0-4.9,2.123c-4.89,4.89-5.39,13.077-5.832,20.3q-.046.776-.094,1.531L3.028,25.2c7.311-.465,15.6-.994,20.574-5.971,2.547-2.548,2.843-6.4.66-8.581A4.973,4.973,0,0,0,19.231,9.3a.667.667,0,0,1-.816-.816c.5-1.881-.657-4.291-2.064-5.7A5.148,5.148,0,0,0,12.664,1.328Zm0,0" transform="translate(-0.455 0.001)" fill="#007041"/>
      <path id="Path_162" data-name="Path 162" d="M101.314,178.576h-.005a.666.666,0,0,1-.567-.323c-.458-.759-2.681-4.648-1.568-6.614a2.253,2.253,0,0,1,2.141-1.064,2.315,2.315,0,0,1,2.22,1.1c1.1,1.988-1.186,5.838-1.655,6.589A.664.664,0,0,1,101.314,178.576Zm0-6.668c-.76,0-.924.291-.979.387-.437.775.212,2.69.989,4.246.8-1.542,1.475-3.442,1.043-4.222C102.31,172.219,102.139,171.908,101.314,171.908Zm0,0" transform="translate(-92.714 -159.911)" fill="#007041"/>
      <path id="Path_163" data-name="Path 163" d="M132.964,253.759c-2.031,0-4.663-1.508-5.274-1.876a.667.667,0,0,1,0-1.143c.76-.456,4.65-2.672,6.616-1.562a2.679,2.679,0,0,1,0,4.273A2.7,2.7,0,0,1,132.964,253.759Zm-3.536-2.447c1.552.772,3.454,1.414,4.221.977.1-.054.387-.219.387-.979s-.29-.919-.384-.974C132.877,249.9,130.98,250.542,129.428,251.311Zm0,0" transform="translate(-119.434 -233.313)" fill="#007041"/>
      <path id="Path_164" data-name="Path 164" d="M49.094,279.076a.666.666,0,0,1-.472-1.137c1.764-1.764,5.33-1.37,5.481-1.352a.667.667,0,0,1-.155,1.324c-.853-.1-3.3-.113-4.385.971A.658.658,0,0,1,49.094,279.076Zm0,0" transform="translate(-45.428 -259.25)" fill="#007041"/>
      <path id="Path_165" data-name="Path 165" d="M109.446,283.513a.666.666,0,0,1-.472-1.138c1.088-1.088,1.07-3.534.971-4.385a.667.667,0,0,1,1.326-.153c.017.151.411,3.718-1.354,5.481A.67.67,0,0,1,109.446,283.513Zm0,0" transform="translate(-102.007 -259.916)" fill="#007041"/>
      <path id="Path_166" data-name="Path 166" d="M44.7,189.927a.667.667,0,0,1-.667-.667V184.2L31.555,171.729a.667.667,0,0,1,.943-.943l12.669,12.669a.666.666,0,0,1,.195.472v5.334A.664.664,0,0,1,44.7,189.927Zm0,0" transform="translate(-29.428 -159.927)" fill="#007041"/>
    </g>
  </g>
</svg>
