<svg xmlns="http://www.w3.org/2000/svg" width="32" height="32" viewBox="0 0 32 32">
  <g id="hamburguer" transform="translate(-800 -274)">
    <g id="adesivo" transform="translate(284 152)">
      <rect id="Rectangle_110" data-name="Rectangle 110" width="32" height="32" transform="translate(516 122)" fill="rgba(255,255,255,0)"/>
      <g id="free-delivery" transform="translate(516 122.5)">
        <path id="Path_107" data-name="Path 107" d="M2.064,22.177A15.057,15.057,0,0,1,24.241,3.888a.469.469,0,1,0,.514-.785A16,16,0,0,0,1.2,22.531a.469.469,0,1,0,.868-.355Zm0,0" transform="translate(0 -0.5)" fill="rgba(255,255,255,0)"/>
        <path id="Path_108" data-name="Path 108" d="M55.887,58.952a.469.469,0,0,0-.6.717,15.053,15.053,0,0,1,2.54,20.289,13.246,13.246,0,0,0-13.2-.4.469.469,0,0,0,.444.826,12.312,12.312,0,0,1,11.676.031c-4.3,1.132-12.084,3.183-16.323,4.3a12.6,12.6,0,0,1,3.122-3.367.469.469,0,0,0-.559-.753,13.548,13.548,0,0,0-3.729,4.246,15.173,15.173,0,0,1-6.823-6.337.469.469,0,0,0-.819.457,15.947,15.947,0,0,0,7.672,6.921c.257.107-1.012.365,17.37-4.477,1.464-.395,1.516-.355,1.656-.539A15.99,15.99,0,0,0,55.887,58.952Zm0,0" transform="translate(-29.583 -55.196)" fill="rgba(255,255,255,0)"/>
      </g>
    </g>
    <g id="hamburguer-2" data-name="hamburguer" transform="translate(800.981 273.998)">
      <path id="Path_1493" data-name="Path 1493" d="M29.857,159.735h-1.6A1.941,1.941,0,0,0,27.862,157a1.941,1.941,0,0,0,.391-2.731h1.6a.39.39,0,0,0,.39-.39,8.516,8.516,0,0,0-8.507-8.507H8.526a8.516,8.516,0,0,0-8.507,8.507.39.39,0,0,0,.39.39h1.6A1.941,1.941,0,0,0,2.4,157a1.941,1.941,0,0,0-.391,2.731H.41a.413.413,0,0,0-.39.416A5.886,5.886,0,0,0,5.9,166.03h18.47a5.891,5.891,0,0,0,5.879-5.9A.39.39,0,0,0,29.857,159.735ZM8.526,146.155H21.741a7.736,7.736,0,0,1,7.716,7.336H21.376a.39.39,0,0,0,0,.78H26.7a1.171,1.171,0,0,1,0,2.341H15.757a.39.39,0,1,0,0,.78H26.7a1.171,1.171,0,0,1,0,2.341H12.645l3.105-5.463H18.8a.39.39,0,0,0,0-.78H.809a7.736,7.736,0,0,1,7.716-7.336ZM2.4,155.442a1.172,1.172,0,0,1,1.171-1.171H14.852L10.88,161.26l-3.417-6.011a.39.39,0,1,0-.679.386l.556.978H3.57A1.172,1.172,0,0,1,2.4,155.442Zm21.969,9.807H5.9a5.108,5.108,0,0,1-5.084-4.734H7.432a.39.39,0,0,0,0-.78H3.57a1.171,1.171,0,1,1,0-2.341H7.784l2.757,4.849a.39.39,0,0,0,.679,0l.982-1.728H29.454A5.106,5.106,0,0,1,24.368,165.249Zm0,0" transform="translate(0 -134.028)" fill="#007041"/>
      <path id="Path_1494" data-name="Path 1494" d="M318.9,188.373a.39.39,0,1,0,.731-.274,5.241,5.241,0,0,0-1.812-2.452.39.39,0,1,0-.46.63A4.474,4.474,0,0,1,318.9,188.373Zm0,0" transform="translate(-292.422 -171.089)" fill="#007041"/>
      <path id="Path_1495" data-name="Path 1495" d="M296.014,176.806a2.373,2.373,0,0,1,.321.078.39.39,0,0,0,.227-.747,3.034,3.034,0,0,0-.444-.1.39.39,0,0,0-.1.774Zm0,0" transform="translate(-272.584 -162.289)" fill="#007041"/>
      <path id="Path_1496" data-name="Path 1496" d="M124.322,32.1a.386.386,0,0,0,.075-.007.39.39,0,0,0,.309-.458,5.248,5.248,0,0,1,.3-3.231,4.515,4.515,0,0,0,.37-2.225.39.39,0,0,0-.775.089,3.778,3.778,0,0,1-.329,1.869,5.98,5.98,0,0,0-.336,3.648A.39.39,0,0,0,124.322,32.1Zm0,0" transform="translate(-114.117 -23.827)" fill="#007041"/>
      <path id="Path_1497" data-name="Path 1497" d="M125.916,1.3a.39.39,0,0,0,.712-.316q-.094-.214-.209-.444a.39.39,0,0,0-.7.349Q125.83,1.1,125.916,1.3Zm0,0" transform="translate(-115.866 -0.318)" fill="#007041"/>
      <path id="Path_1498" data-name="Path 1498" d="M183.5,7.965a.39.39,0,1,0,.765-.149,5.247,5.247,0,0,1,.3-3.231,4.572,4.572,0,0,0-.337-4.361.39.39,0,1,0-.7.349,3.85,3.85,0,0,1,.3,3.746A5.983,5.983,0,0,0,183.5,7.965Zm0,0" transform="translate(-169.025 -0.004)" fill="#007041"/>
      <path id="Path_1499" data-name="Path 1499" d="M243.043,7.962a.39.39,0,0,0,.766-.149,5.246,5.246,0,0,1,.3-3.231A4.574,4.574,0,0,0,243.775.22a.39.39,0,1,0-.7.349,3.85,3.85,0,0,1,.3,3.746A5.984,5.984,0,0,0,243.043,7.962Zm0,0" transform="translate(-223.926)" fill="#007041"/>
    </g>
  </g>
</svg>
