<svg xmlns="http://www.w3.org/2000/svg" width="32" height="32" viewBox="0 0 32 32">
  <g id="Group_1055" data-name="Group 1055" transform="translate(-800 -382)">
    <g id="adesivo" transform="translate(284 260)">
      <rect id="Rectangle_110" data-name="Rectangle 110" width="32" height="32" transform="translate(516 122)" fill="rgba(255,255,255,0)"/>
      <g id="free-delivery" transform="translate(516 122.5)">
        <path id="Path_107" data-name="Path 107" d="M2.064,22.177A15.057,15.057,0,0,1,24.241,3.888a.469.469,0,1,0,.514-.785A16,16,0,0,0,1.2,22.531a.469.469,0,1,0,.868-.355Zm0,0" transform="translate(0 -0.5)" fill="rgba(255,255,255,0)"/>
        <path id="Path_108" data-name="Path 108" d="M55.887,58.952a.469.469,0,0,0-.6.717,15.053,15.053,0,0,1,2.54,20.289,13.246,13.246,0,0,0-13.2-.4.469.469,0,0,0,.444.826,12.312,12.312,0,0,1,11.676.031c-4.3,1.132-12.084,3.183-16.323,4.3a12.6,12.6,0,0,1,3.122-3.367.469.469,0,0,0-.559-.753,13.548,13.548,0,0,0-3.729,4.246,15.173,15.173,0,0,1-6.823-6.337.469.469,0,0,0-.819.457,15.947,15.947,0,0,0,7.672,6.921c.257.107-1.012.365,17.37-4.477,1.464-.395,1.516-.355,1.656-.539A15.99,15.99,0,0,0,55.887,58.952Zm0,0" transform="translate(-29.583 -55.196)" fill="rgba(255,255,255,0)"/>
      </g>
    </g>
    <g id="french-fries" transform="translate(803.001 382)">
      <path id="Path_1507" data-name="Path 1507" d="M3.733,32H21.866a.533.533,0,0,0,.526-.45l3.2-20.267a.534.534,0,0,0-.4-.6l-.51-.128a6.254,6.254,0,0,0-1.752-.182V6.4a.534.534,0,0,0-.365-.506l-2.835-.945V3.2a.534.534,0,0,0-.7-.506l-2.5.833v-.86a.534.534,0,0,0-.365-.506l-2.835-.945V.534a.534.534,0,0,0-.7-.506L9.43,1.094a.533.533,0,0,0-.365.506V3.527l-2.5-.833a.533.533,0,0,0-.7.506V4.416L3.03,5.361a.533.533,0,0,0-.365.506v4.6a6.251,6.251,0,0,0-2.28.217.534.534,0,0,0-.38.6l3.2,20.267A.533.533,0,0,0,3.733,32ZM21.866,6.785V10.5a6.158,6.158,0,0,0-2.133.9V6.074Zm-3.2-2.845v8.368a6.329,6.329,0,0,0-.551.666,6.812,6.812,0,0,1-1.582,1.579v-9.9Zm-3.2-.889v12.12a6.712,6.712,0,0,1-2.133.59V2.34ZM10.133,1.985l2.133-.711V15.787a6.734,6.734,0,0,1-2.133-.452ZM6.933,3.94l2.133.711V14.805a6.771,6.771,0,0,1-1.837-1.663L7.044,12.9c-.036-.046-.074-.09-.111-.135Zm-3.2,2.311L5.866,5.54v6.182a6.159,6.159,0,0,0-2.133-1.059Zm2.462,7.3.186.244a7.832,7.832,0,0,0,12.6-.195,5.126,5.126,0,0,1,5.443-2.006l.036.009L21.41,30.934H4.188L1.136,11.6A5.116,5.116,0,0,1,6.194,13.547Zm0,0" transform="translate(0)" fill="#007041"/>
      <path id="Path_1508" data-name="Path 1508" d="M53.438,254.859l1.052-.176.711,4.267-1.052.175Zm0,0" transform="translate(-49.876 -237.704)" fill="#007041"/>
      <path id="Path_1509" data-name="Path 1509" d="M48.109,222.863l1.052-.175.178,1.067-1.052.175Zm0,0" transform="translate(-44.903 -207.841)" fill="#007041"/>
    </g>
  </g>
</svg>
