<svg xmlns="http://www.w3.org/2000/svg" width="32" height="32" viewBox="0 0 32 32">
  <g id="caixinha_bombom" transform="translate(-1316 -58)">
    <rect id="Rectangle_1349" data-name="Rectangle 1349" width="32" height="32" transform="translate(1316 58)" fill="rgba(255,255,255,0)"/>
    <g id="chocolate-box" transform="translate(1316.001 60)">
      <path id="Path_1529" data-name="Path 1529" d="M219.434,187.391a.625.625,0,0,0,0-1.25h0a.625.625,0,0,0,0,1.25Zm0,0" transform="translate(-205.134 -174.507)" fill="#007041"/>
      <path id="Path_1530" data-name="Path 1530" d="M31.56,10.066l-.349-.259.153-.407a1.087,1.087,0,0,0-1.325-1.425l-2.4.706q-.071-.193-.152-.381l0-.005h0a7.237,7.237,0,0,0-3.319-3.561A7.4,7.4,0,0,0,17.5,4.626L15.032,5.777,12.569,4.626a8.12,8.12,0,0,0-.793-.321c.208-.124.383-.24.515-.334a1.068,1.068,0,0,0,.347-1.262A4.521,4.521,0,0,0,9.984.073,1.223,1.223,0,0,0,9.57,0a1.011,1.011,0,0,0-.846.429A8.153,8.153,0,0,0,7.792,2.21,4.472,4.472,0,0,0,3.759,3.57,4.467,4.467,0,0,0,2.43,7.611a8.153,8.153,0,0,0-1.775.945A1.068,1.068,0,0,0,.309,9.819a4.42,4.42,0,0,0,1.042,1.605A4.575,4.575,0,0,0,2,11.96a7.377,7.377,0,0,0,1.412,3.717l.005.008.041.054.04.053-2.722.8a1.087,1.087,0,0,0-.4,1.87l.37.317-.14.467A1.087,1.087,0,0,0,1.96,20.6l4.474-1.318,5.981,7.09a3.424,3.424,0,0,0,5.233,0l2.381-2.822a4.518,4.518,0,0,0,1.912.411c.074,0,.148,0,.222-.006h.006c.017,0,.033,0,.049,0a5.087,5.087,0,0,0,1.1-.183,4.608,4.608,0,0,0,3.011-2.5,7.858,7.858,0,0,0,1.45.132,8.023,8.023,0,0,0,.809-.04,1.07,1.07,0,0,0,.921-.928,4.142,4.142,0,0,0,.055-.677,4.514,4.514,0,0,0-1.07-2.924,1.127,1.127,0,0,0-.844-.407.972.972,0,0,0-.428.1,8.136,8.136,0,0,0-1.688,1.093,3.522,3.522,0,0,0-.3-.238l1.1-1.3a7.451,7.451,0,0,0,1.567-3.115l3.313-.976a1.087,1.087,0,0,0,.341-1.916ZM14.767,7.033a.625.625,0,0,0,.529,0l2.728-1.275a6.173,6.173,0,0,1,5.567.084,5.99,5.99,0,0,1,2.427,2.312l-9.433,2.779a.625.625,0,0,0,.353,1.2l9.6-2.827,0,.005q.081.246.141.5v.005c.019.079.036.158.051.237l.006.028c.015.079.029.157.041.237l0,.036c.01.066.018.132.026.2,0,.019,0,.038.007.058.008.073.014.146.019.219,0,.021,0,.041,0,.062q.005.088.008.177c0,.021,0,.042,0,.063,0,.074,0,.149,0,.223,0,.016,0,.032,0,.048q0,.1-.008.208c0,.01,0,.021,0,.032q-.007.123-.02.246V11.9a6.2,6.2,0,0,1-.352,1.521l-18.7,5.508L6.4,17.306,5,15.649l7.041-2.074a.625.625,0,1,0-.353-1.2L4.183,14.587a6.122,6.122,0,0,1-.835-2.061h.03a1.015,1.015,0,0,0,.8-.364l.012-.015,0,0q.018-.022.034-.046a8.091,8.091,0,0,0,.517-.852l.013-.025c.022-.042.044-.085.066-.128l.016-.032.067-.138.012-.024q.078-.166.152-.347l.018-.045c.018-.044.035-.089.053-.135l.022-.058q.024-.066.048-.133l.02-.058.014-.041A4.347,4.347,0,0,0,8.011,9.37l.009-.006.015-.01L8.1,9.312l.092-.062c.037-.026.074-.052.111-.08l.107-.081.1-.077c.039-.032.078-.066.117-.1L8.7,8.841c.053-.048.1-.1.156-.149l.032-.031L8.9,8.648C8.949,8.6,9,8.55,9.04,8.5l.039-.043q.071-.079.137-.161l.03-.037q.06-.075.118-.152l.022-.03c.042-.058.083-.117.123-.176l.026-.04q.06-.092.116-.185l.006-.01c.037-.062.071-.124.1-.187l.016-.029q.051-.1.1-.2l.011-.024q.1-.206.169-.417l.007-.02a4.442,4.442,0,0,0,.175-.667v0a3.982,3.982,0,0,0,.059-.9,6.566,6.566,0,0,1,1.742.541Zm-10.98.715A2.656,2.656,0,0,1,3.862,5.6,3.546,3.546,0,0,1,7.01,8.5a2.917,2.917,0,0,1-1.9.293l-.012,0c-.044-.01-.088-.021-.13-.033h0a1.87,1.87,0,0,1-.8-.468q-.059-.059-.112-.122A1.857,1.857,0,0,1,3.788,7.748ZM9.654,1.285a3.291,3.291,0,0,1,1.775,1.762A6.746,6.746,0,0,1,9.92,3.8q-.034-.065-.072-.128L9.83,3.646c-.03-.049-.061-.1-.093-.145l0-.006c-.032-.046-.065-.091-.1-.136l-.019-.025c-.035-.044-.071-.087-.108-.129l-.022-.024q-.058-.065-.12-.127c-.033-.033-.066-.064-.1-.1l-.039-.034L9.16,2.868,9.112,2.83l-.061-.048L9,2.746,8.942,2.7A6.846,6.846,0,0,1,9.654,1.285ZM7.026,3.38a2.216,2.216,0,0,1,.913.187,1.829,1.829,0,0,1,.718.574,1.913,1.913,0,0,1,.3.589l0,.013a2.975,2.975,0,0,1-.494,2.476,3.907,3.907,0,0,1-.372.467,4.81,4.81,0,0,0-.407-.944,4.773,4.773,0,0,0-3.07-2.259l.032-.033A3.461,3.461,0,0,1,7.026,3.38Zm-4.1,5.378c.016.023.034.046.051.069l.029.04c.018.023.036.045.054.068l.032.04c.019.022.038.044.058.066l.033.038c.031.034.063.067.1.1s.085.081.128.12l.025.022q.063.055.129.106l.027.02c.044.033.089.066.135.1l.007.005q.071.047.144.09l.032.019c.042.024.084.048.126.07l-.03.087-.016.045-.044.117-.021.054L3.9,10.1l-.025.059-.028.065-.027.061-.026.055q-.032.069-.064.135l-.013.026-.04.078-.013.026-.042.08-.007.012c-.113.212-.225.394-.321.54-.042-.017-.084-.035-.126-.054l-.035-.016-.094-.046-.064-.034a3.267,3.267,0,0,1-.742-.555A3.2,3.2,0,0,1,1.518,9.48,6.823,6.823,0,0,1,2.931,8.758ZM1.895,19.319l.171-.569a.625.625,0,0,0-.193-.654l-.452-.386,2.951-.869,1.182,1.4Zm15.464,3.853-.006,0-.084.046-.008,0-.084.044q-.046-.057-.089-.117l-.026-.036c-.019-.028-.038-.055-.056-.083l-.033-.052-.043-.072-.035-.061-.035-.065-.036-.069-.027-.057q-.068-.144-.123-.3l-.017-.047c-.01-.029-.019-.058-.028-.087l-.017-.056c-.008-.028-.016-.056-.024-.085l-.016-.062c-.007-.027-.013-.054-.02-.082l-.014-.069c-.005-.026-.01-.051-.015-.077s-.009-.057-.013-.086-.007-.041-.009-.061c-.006-.048-.011-.1-.015-.145,0-.017,0-.034,0-.051,0-.033,0-.067-.006-.1s0-.038,0-.057,0-.058,0-.086,0-.08,0-.12c0-.019,0-.038,0-.057,0-.058.009-.116.017-.174l.135-.009h.025l.055,0,.043,0,.049,0,.068,0h.286l.076,0h.041l.093,0H17.4l.121.008.038,0,.088.008.048,0,.084.009.048.006.1.012.037,0,.125.019c0,.025.006.05.009.075s0,.039.007.058.01.059.014.089,0,.031.008.047c.007.035.014.069.022.1l.007.031q.016.067.034.135c.016.056.034.112.053.167l.011.031q.028.079.061.157l.013.03c.022.051.045.1.07.151l0,.008c.025.051.053.1.081.15l.018.032q.037.063.076.124c-.071.063-.142.124-.213.182h0l-.116.093-.006.005A6.85,6.85,0,0,1,17.359,23.171Zm4.4-.461a3.015,3.015,0,0,1-1.515-.464l-.015-.011q-.1-.068-.192-.142l-.008-.006-.064-.056c-.033-.03-.066-.06-.1-.092l-.009-.009,0,0a1.845,1.845,0,0,1-.538-1.293c0-.053,0-.105.006-.158,0,0,0-.006,0-.008,0-.049.01-.1.018-.146v0a2.118,2.118,0,0,1,.065-.279l.009-.028c.011-.036.024-.071.037-.106l.014-.037c.013-.034.028-.067.042-.1s.021-.045.032-.068l.019-.037a3.026,3.026,0,0,1,.887-1.029A3.546,3.546,0,0,1,21.76,22.71Zm1.344-.179a4.68,4.68,0,0,0-1.453-4.5l.044-.013L21.779,18l.051-.013.1-.022.038-.008.115-.022.012,0a3.792,3.792,0,0,1,.644-.056,3.415,3.415,0,0,1,.986.142l.024.007.086.029c.066.023.131.048.2.075l.018.007a2.307,2.307,0,0,1,.951.735,1.846,1.846,0,0,1,.291.594,1.872,1.872,0,0,1,.02.932A3.148,3.148,0,0,1,23.1,22.531Zm4.508-4.806a3.312,3.312,0,0,1,.7,2.031,2.922,2.922,0,0,1-.024.377,6.771,6.771,0,0,1-1.686-.083c0-.049,0-.1,0-.147,0-.011,0-.023,0-.034,0-.058,0-.115-.01-.172v-.007c0-.056-.012-.112-.02-.168l0-.031c-.009-.055-.019-.111-.031-.166l-.007-.032c-.013-.057-.027-.114-.042-.17s-.026-.089-.041-.132l-.007-.019c-.013-.038-.026-.075-.04-.112l-.013-.033c-.012-.031-.025-.063-.039-.094-.006-.014-.013-.028-.02-.043s-.024-.053-.037-.08A6.822,6.822,0,0,1,27.612,17.725Zm-3.532-.911a4.781,4.781,0,0,0-2.186-.119l-.019,0-.107.021-.069.013-.022.005c-.107.023-.214.049-.321.079q-.084.024-.167.05l-.022.007-.134.045-.074.028-.076.029-.107.043-.038.016-.134.059,0,0a4.3,4.3,0,0,0-2.387,2.586l-.164-.023-.023,0-.156-.018-.05-.005-.129-.012-.048,0-.139-.009-.029,0c-.114-.006-.224-.01-.33-.012h-.18l-.137,0h-.006c-.247.006-.458.021-.618.038a.958.958,0,0,0-.155.029l-.014,0-.04.013-.042.014-.009,0a1.058,1.058,0,0,0-.578.577,1.249,1.249,0,0,0-.084.287c0,.008,0,.016,0,.024-.009.058-.017.116-.024.175,0,.03-.006.06-.009.09s-.006.075-.009.113a4.259,4.259,0,0,0-.006.45c0,.012,0,.025,0,.037,0,.056.007.111.011.167,0,.016,0,.031,0,.047q.008.081.018.162c0,.017,0,.033.007.05.008.054.016.108.025.161l0,.023c.017.094.038.188.062.281.009.034.017.069.026.1s.019.066.029.1.025.081.038.121.02.058.03.087q.024.067.05.134c.009.024.019.049.028.073q.034.083.071.164l.017.039q.048.1.1.205l.013.024c.031.058.063.115.1.171l.033.053q.043.07.088.137l.039.057c.031.045.064.09.1.134l.035.048c.046.059.093.117.141.173l.006.006c.023.027.048.052.073.076l.024.023c.021.019.042.037.064.054l.025.02c.029.022.059.043.089.062l.014.008c.026.015.052.03.078.043l.04.019.055.023.046.017.058.017c.027.008.055.014.083.019l.044.008.056.006.051,0,.037,0h.012c.03,0,.06,0,.09,0l.035,0,.066-.011.034-.008.071-.02.025-.008a.95.95,0,0,0,.1-.039l.092-.045-.963,1.142a2.174,2.174,0,0,1-3.323,0l-4.723-5.6,16.972-5q-.113.152-.236.3ZM28.092,11.6a7.527,7.527,0,0,0-.117-1.7l0-.019,2.107-.621-.2.542a.625.625,0,0,0,.213.722l.465.345Zm0,0" transform="translate(0)" fill="#007041"/>
    </g>
  </g>
</svg>
