<svg xmlns="http://www.w3.org/2000/svg" width="32" height="32" viewBox="0 0 32 32">
  <g id="calendario_bolso" transform="translate(0 -166)">
    <g id="adesivo" transform="translate(-516 44)">
      <rect id="Rectangle_110" data-name="Rectangle 110" width="32" height="32" transform="translate(516 122)" fill="rgba(255,255,255,0)"/>
      <g id="free-delivery" transform="translate(516 122.5)">
        <path id="Path_107" data-name="Path 107" d="M2.064,22.177A15.057,15.057,0,0,1,24.241,3.888a.469.469,0,1,0,.514-.785A16,16,0,0,0,1.2,22.531a.469.469,0,1,0,.868-.355Zm0,0" transform="translate(0 -0.5)" fill="rgba(255,255,255,0)"/>
        <path id="Path_108" data-name="Path 108" d="M55.887,58.952a.469.469,0,0,0-.6.717,15.053,15.053,0,0,1,2.54,20.289,13.246,13.246,0,0,0-13.2-.4.469.469,0,0,0,.444.826,12.312,12.312,0,0,1,11.676.031c-4.3,1.132-12.084,3.183-16.323,4.3a12.6,12.6,0,0,1,3.122-3.367.469.469,0,0,0-.559-.753,13.548,13.548,0,0,0-3.729,4.246,15.173,15.173,0,0,1-6.823-6.337.469.469,0,0,0-.819.457,15.947,15.947,0,0,0,7.672,6.921c.257.107-1.012.365,17.37-4.477,1.464-.395,1.516-.355,1.656-.539A15.99,15.99,0,0,0,55.887,58.952Zm0,0" transform="translate(-29.583 -55.196)" fill="rgba(255,255,255,0)"/>
      </g>
    </g>
    <g id="calendar" transform="translate(0 81.886)">
      <g id="Group_825" data-name="Group 825" transform="translate(25.111 95.233)">
        <g id="Group_824" data-name="Group 824" transform="translate(0 0)">
          <circle id="Ellipse_130" data-name="Ellipse 130" cx="0.769" cy="0.769" r="0.769" fill="#007041"/>
        </g>
      </g>
      <g id="Group_827" data-name="Group 827" transform="translate(20.171 95.233)">
        <g id="Group_826" data-name="Group 826" transform="translate(0 0)">
          <circle id="Ellipse_131" data-name="Ellipse 131" cx="0.769" cy="0.769" r="0.769" fill="#007041"/>
        </g>
      </g>
      <g id="Group_829" data-name="Group 829" transform="translate(15.231 95.233)">
        <g id="Group_828" data-name="Group 828" transform="translate(0 0)">
          <circle id="Ellipse_132" data-name="Ellipse 132" cx="0.769" cy="0.769" r="0.769" fill="#007041"/>
        </g>
      </g>
      <g id="Group_831" data-name="Group 831" transform="translate(10.291 95.233)">
        <g id="Group_830" data-name="Group 830" transform="translate(0 0)">
          <circle id="Ellipse_133" data-name="Ellipse 133" cx="0.769" cy="0.769" r="0.769" fill="#007041"/>
        </g>
      </g>
      <g id="Group_833" data-name="Group 833" transform="translate(5.35 95.233)">
        <g id="Group_832" data-name="Group 832" transform="translate(0 0)">
          <circle id="Ellipse_134" data-name="Ellipse 134" cx="0.769" cy="0.769" r="0.769" fill="#007041"/>
        </g>
      </g>
      <g id="Group_835" data-name="Group 835" transform="translate(25.111 100.173)">
        <g id="Group_834" data-name="Group 834">
          <circle id="Ellipse_135" data-name="Ellipse 135" cx="0.769" cy="0.769" r="0.769" fill="#007041"/>
        </g>
      </g>
      <g id="Group_837" data-name="Group 837" transform="translate(20.171 100.173)">
        <g id="Group_836" data-name="Group 836">
          <circle id="Ellipse_136" data-name="Ellipse 136" cx="0.769" cy="0.769" r="0.769" fill="#007041"/>
        </g>
      </g>
      <g id="Group_839" data-name="Group 839" transform="translate(15.231 100.173)">
        <g id="Group_838" data-name="Group 838">
          <circle id="Ellipse_137" data-name="Ellipse 137" cx="0.769" cy="0.769" r="0.769" fill="#007041"/>
        </g>
      </g>
      <g id="Group_841" data-name="Group 841" transform="translate(5.35 100.173)">
        <g id="Group_840" data-name="Group 840">
          <circle id="Ellipse_138" data-name="Ellipse 138" cx="0.769" cy="0.769" r="0.769" fill="#007041"/>
        </g>
      </g>
      <g id="Group_843" data-name="Group 843" transform="translate(25.111 105.114)">
        <g id="Group_842" data-name="Group 842" transform="translate(0 0)">
          <circle id="Ellipse_139" data-name="Ellipse 139" cx="0.769" cy="0.769" r="0.769" fill="#007041"/>
        </g>
      </g>
      <g id="Group_845" data-name="Group 845" transform="translate(20.171 105.114)">
        <g id="Group_844" data-name="Group 844" transform="translate(0 0)">
          <circle id="Ellipse_140" data-name="Ellipse 140" cx="0.769" cy="0.769" r="0.769" fill="#007041"/>
        </g>
      </g>
      <g id="Group_847" data-name="Group 847" transform="translate(15.231 105.114)">
        <g id="Group_846" data-name="Group 846" transform="translate(0 0)">
          <circle id="Ellipse_141" data-name="Ellipse 141" cx="0.769" cy="0.769" r="0.769" fill="#007041"/>
        </g>
      </g>
      <g id="Group_849" data-name="Group 849" transform="translate(10.291 105.114)">
        <g id="Group_848" data-name="Group 848" transform="translate(0 0)">
          <circle id="Ellipse_142" data-name="Ellipse 142" cx="0.769" cy="0.769" r="0.769" fill="#007041"/>
        </g>
      </g>
      <g id="Group_851" data-name="Group 851" transform="translate(5.35 105.114)">
        <g id="Group_850" data-name="Group 850" transform="translate(0 0)">
          <circle id="Ellipse_143" data-name="Ellipse 143" cx="0.769" cy="0.769" r="0.769" fill="#007041"/>
        </g>
      </g>
      <g id="Group_853" data-name="Group 853" transform="translate(8.077 97.96)">
        <g id="Group_852" data-name="Group 852" transform="translate(0 0)">
          <path id="Path_1419" data-name="Path 1419" d="M134.534,230.65h-4.643a.661.661,0,0,0-.661.661v4.643a.661.661,0,0,0,.661.661h4.643a.661.661,0,0,0,.661-.661v-4.643A.661.661,0,0,0,134.534,230.65Zm-.661,4.643h-3.321v-3.321h3.321v3.321Z" transform="translate(-129.23 -230.65)" fill="#007041"/>
        </g>
      </g>
      <g id="Group_855" data-name="Group 855" transform="translate(0 89.114)">
        <g id="Group_854" data-name="Group 854" transform="translate(0 0)">
          <path id="Path_1420" data-name="Path 1420" d="M29.8,89.114H2.2a2.207,2.207,0,0,0-2.2,2.2v18.036a2.207,2.207,0,0,0,2.2,2.2H29.8a2.207,2.207,0,0,0,2.2-2.2V91.318A2.207,2.207,0,0,0,29.8,89.114Zm0,20.975H2.2a.736.736,0,0,1-.735-.735V91.318a.736.736,0,0,1,.735-.735H29.8a.736.736,0,0,1,.735.735v18.036h0A.736.736,0,0,1,29.8,110.089Z" transform="translate(0 -89.114)" fill="#007041"/>
        </g>
      </g>
    </g>
  </g>
</svg>
