<svg xmlns="http://www.w3.org/2000/svg" width="32" height="32" viewBox="0 0 32 32">
  <g id="calendario_triangular" transform="translate(0 -220)">
    <g id="adesivo" transform="translate(-516 98)">
      <rect id="Rectangle_110" data-name="Rectangle 110" width="32" height="32" transform="translate(516 122)" fill="rgba(255,255,255,0)"/>
      <g id="free-delivery" transform="translate(516 122.5)">
        <path id="Path_107" data-name="Path 107" d="M2.064,22.177A15.057,15.057,0,0,1,24.241,3.888a.469.469,0,1,0,.514-.785A16,16,0,0,0,1.2,22.531a.469.469,0,1,0,.868-.355Zm0,0" transform="translate(0 -0.5)" fill="rgba(255,255,255,0)"/>
        <path id="Path_108" data-name="Path 108" d="M55.887,58.952a.469.469,0,0,0-.6.717,15.053,15.053,0,0,1,2.54,20.289,13.246,13.246,0,0,0-13.2-.4.469.469,0,0,0,.444.826,12.312,12.312,0,0,1,11.676.031c-4.3,1.132-12.084,3.183-16.323,4.3a12.6,12.6,0,0,1,3.122-3.367.469.469,0,0,0-.559-.753,13.548,13.548,0,0,0-3.729,4.246,15.173,15.173,0,0,1-6.823-6.337.469.469,0,0,0-.819.457,15.947,15.947,0,0,0,7.672,6.921c.257.107-1.012.365,17.37-4.477,1.464-.395,1.516-.355,1.656-.539A15.99,15.99,0,0,0,55.887,58.952Zm0,0" transform="translate(-29.583 -55.196)" fill="rgba(255,255,255,0)"/>
      </g>
    </g>
    <g id="calendar_2_" data-name="calendar (2)" transform="translate(0 220)">
      <path id="Path_1422" data-name="Path 1422" d="M26.656,3.627c0-.018-.015-.033-.021-.051A.491.491,0,0,0,26.6,3.49a.511.511,0,0,0-.06-.089.544.544,0,0,0-.061-.064.484.484,0,0,0-.088-.059.4.4,0,0,0-.19-.063.542.542,0,0,0-.068-.015H23.445c-.138-1.857-1-3.2-2.111-3.2S19.36,1.344,19.223,3.2H18.111C17.974,1.344,17.112,0,16,0s-1.973,1.344-2.111,3.2H12.778c-.138-1.857-1-3.2-2.111-3.2S8.693,1.344,8.556,3.2H7.444C7.307,1.344,6.445,0,5.333,0S3.36,1.344,3.222,3.2H.533A.533.533,0,0,0,0,3.733V31.467A.533.533,0,0,0,.533,32h25.6a.533.533,0,0,0,.533-.533v-1.6h4.8a.533.533,0,0,0,.522-.64Zm-5.322-2.56c.385,0,.923.817,1.041,2.133h-2.08C20.411,1.884,20.948,1.067,21.334,1.067ZM16,1.067c.385,0,.923.817,1.041,2.133h-2.08C15.078,1.884,15.615,1.067,16,1.067Zm-5.333,0c.385,0,.923.817,1.041,2.133H9.628C9.744,1.884,10.282,1.067,10.667,1.067Zm-5.333,0c.385,0,.923.817,1.041,2.133H4.294C4.411,1.884,4.948,1.067,5.333,1.067Zm-4.267,3.2H3.222c.138,1.857,1,3.2,2.111,3.2a.533.533,0,1,0,0-1.067c-.385,0-.923-.817-1.041-2.133H8.556c.139,1.857,1,3.2,2.111,3.2a.533.533,0,1,0,0-1.067c-.385,0-.923-.817-1.041-2.133h4.264c.139,1.857,1,3.2,2.111,3.2A.533.533,0,1,0,16,6.4c-.385,0-.923-.817-1.041-2.133h4.264c.139,1.857,1,3.2,2.111,3.2a.533.533,0,1,0,0-1.067c-.385,0-.923-.817-1.041-2.133H25.6V9.6H1.067ZM25.6,30.934H1.067V10.667H25.6ZM26.667,28.8V8.907L30.812,28.8Zm0,0" fill="#007041"/>
      <path id="Path_1423" data-name="Path 1423" d="M138.667,288h-2.133a.533.533,0,0,0-.533.533v2.133a.533.533,0,0,0,.533.533h2.133a.533.533,0,0,0,.533-.533v-2.133A.533.533,0,0,0,138.667,288Zm-.533,2.133h-1.067v-1.067h1.067Zm0,0" transform="translate(-126.933 -268.8)" fill="#007041"/>
      <path id="Path_1424" data-name="Path 1424" d="M218.667,288h-2.133a.533.533,0,0,0-.533.533v2.133a.533.533,0,0,0,.533.533h2.133a.533.533,0,0,0,.533-.533v-2.133A.533.533,0,0,0,218.667,288Zm-.533,2.133h-1.067v-1.067h1.067Zm0,0" transform="translate(-201.6 -268.8)" fill="#007041"/>
      <path id="Path_1425" data-name="Path 1425" d="M58.667,288H56.533a.533.533,0,0,0-.533.533v2.133a.533.533,0,0,0,.533.533h2.133a.533.533,0,0,0,.533-.533v-2.133A.533.533,0,0,0,58.667,288Zm-.533,2.133H57.067v-1.067h1.067Zm0,0" transform="translate(-52.267 -268.8)" fill="#007041"/>
      <path id="Path_1426" data-name="Path 1426" d="M138.667,368h-2.133a.533.533,0,0,0-.533.533v2.133a.533.533,0,0,0,.533.533h2.133a.533.533,0,0,0,.533-.533v-2.133A.533.533,0,0,0,138.667,368Zm-.533,2.133h-1.067v-1.067h1.067Zm0,0" transform="translate(-126.933 -343.466)" fill="#007041"/>
      <path id="Path_1427" data-name="Path 1427" d="M218.667,368h-2.133a.533.533,0,0,0-.533.533v2.133a.533.533,0,0,0,.533.533h2.133a.533.533,0,0,0,.533-.533v-2.133A.533.533,0,0,0,218.667,368Zm-.533,2.133h-1.067v-1.067h1.067Zm0,0" transform="translate(-201.6 -343.466)" fill="#007041"/>
      <path id="Path_1428" data-name="Path 1428" d="M58.667,368H56.533a.533.533,0,0,0-.533.533v2.133a.533.533,0,0,0,.533.533h2.133a.533.533,0,0,0,.533-.533v-2.133A.533.533,0,0,0,58.667,368Zm-.533,2.133H57.067v-1.067h1.067Zm0,0" transform="translate(-52.267 -343.466)" fill="#007041"/>
      <path id="Path_1429" data-name="Path 1429" d="M138.667,208h-2.133a.533.533,0,0,0-.533.533v2.133a.533.533,0,0,0,.533.533h2.133a.533.533,0,0,0,.533-.533v-2.133A.533.533,0,0,0,138.667,208Zm-.533,2.133h-1.067v-1.067h1.067Zm0,0" transform="translate(-126.933 -194.133)" fill="#007041"/>
      <path id="Path_1430" data-name="Path 1430" d="M218.667,208h-2.133a.533.533,0,0,0-.533.533v2.133a.533.533,0,0,0,.533.533h2.133a.533.533,0,0,0,.533-.533v-2.133A.533.533,0,0,0,218.667,208Zm-.533,2.133h-1.067v-1.067h1.067Zm0,0" transform="translate(-201.6 -194.133)" fill="#007041"/>
      <path id="Path_1431" data-name="Path 1431" d="M298.667,288h-2.133a.533.533,0,0,0-.533.533v2.133a.533.533,0,0,0,.533.533h2.133a.533.533,0,0,0,.533-.533v-2.133A.533.533,0,0,0,298.667,288Zm-.533,2.133h-1.067v-1.067h1.067Zm0,0" transform="translate(-276.266 -268.8)" fill="#007041"/>
      <path id="Path_1432" data-name="Path 1432" d="M298.667,368h-2.133a.533.533,0,0,0-.533.533v2.133a.533.533,0,0,0,.533.533h2.133a.533.533,0,0,0,.533-.533v-2.133A.533.533,0,0,0,298.667,368Zm-.533,2.133h-1.067v-1.067h1.067Zm0,0" transform="translate(-276.266 -343.466)" fill="#007041"/>
      <path id="Path_1433" data-name="Path 1433" d="M298.667,208h-2.133a.533.533,0,0,0-.533.533v2.133a.533.533,0,0,0,.533.533h2.133a.533.533,0,0,0,.533-.533v-2.133A.533.533,0,0,0,298.667,208Zm-.533,2.133h-1.067v-1.067h1.067Zm0,0" transform="translate(-276.266 -194.133)" fill="#007041"/>
      <path id="Path_1434" data-name="Path 1434" d="M58.667,208H56.533a.533.533,0,0,0-.533.533v2.133a.533.533,0,0,0,.533.533h2.133a.533.533,0,0,0,.533-.533v-2.133A.533.533,0,0,0,58.667,208Zm-.533,2.133H57.067v-1.067h1.067Zm0,0" transform="translate(-52.267 -194.133)" fill="#007041"/>
    </g>
  </g>
</svg>
