<svg xmlns="http://www.w3.org/2000/svg" width="32" height="32" viewBox="0 0 32 32">
  <g id="camisa" transform="translate(-2194 -382)">
    <g id="adesivo" transform="translate(1678 260)">
      <rect id="Rectangle_110" data-name="Rectangle 110" width="32" height="32" transform="translate(516 122)" fill="rgba(255,255,255,0)"/>
      <g id="free-delivery" transform="translate(516 122.5)">
        <path id="Path_107" data-name="Path 107" d="M2.064,22.177A15.057,15.057,0,0,1,24.241,3.888a.469.469,0,1,0,.514-.785A16,16,0,0,0,1.2,22.531a.469.469,0,1,0,.868-.355Zm0,0" transform="translate(0 -0.5)" fill="rgba(255,255,255,0)"/>
        <path id="Path_108" data-name="Path 108" d="M55.887,58.952a.469.469,0,0,0-.6.717,15.053,15.053,0,0,1,2.54,20.289,13.246,13.246,0,0,0-13.2-.4.469.469,0,0,0,.444.826,12.312,12.312,0,0,1,11.676.031c-4.3,1.132-12.084,3.183-16.323,4.3a12.6,12.6,0,0,1,3.122-3.367.469.469,0,0,0-.559-.753,13.548,13.548,0,0,0-3.729,4.246,15.173,15.173,0,0,1-6.823-6.337.469.469,0,0,0-.819.457,15.947,15.947,0,0,0,7.672,6.921c.257.107-1.012.365,17.37-4.477,1.464-.395,1.516-.355,1.656-.539A15.99,15.99,0,0,0,55.887,58.952Zm0,0" transform="translate(-29.583 -55.196)" fill="rgba(255,255,255,0)"/>
      </g>
    </g>
    <g id="shirt" transform="translate(2179.942 382)">
      <g id="Group_927" data-name="Group 927" transform="translate(15.057)">
        <g id="Group_926" data-name="Group 926">
          <path id="Path_1531" data-name="Path 1531" d="M227.86,28.816h2.607a.505.505,0,0,0,0-1.01H227.86a.505.505,0,0,0,0,1.01Z" transform="translate(-214.086 -26.067)" fill="#007041"/>
          <path id="Path_1532" data-name="Path 1532" d="M45.161,12.043,43.422,4.88a3.823,3.823,0,0,0-2.1-2.451c-1.2-.511-5.009-1.956-5.962-2.317A.5.5,0,0,0,35.04,0H25.265l-.048,0-.021,0-.026,0-.024.006L25.124.02,25.1.028l-.013,0c-.2.074-4.823,1.823-6.174,2.4a3.819,3.819,0,0,0-2.1,2.435h0l0,.009,0,.007-1.236,5.09h0l-.5,2.073a.505.505,0,0,0,.3.589l4.967,1.973V31.495a.505.505,0,0,0,.505.505H39.384a.505.505,0,0,0,.505-.505V19.82a.505.505,0,1,0-1.01,0v9.115H26.461a.505.505,0,1,0,0,1.01H38.879v1.044H21.354V29.946h3.423a.505.505,0,0,0,0-1.01H21.354V8.18a.505.505,0,0,0-.073-.261L18.733,3.7a2.44,2.44,0,0,1,.576-.345c1.034-.44,4.136-1.623,5.491-2.137.325,2.986,2.644,5.388,5.353,5.388S35.168,4.222,35.5,1.249c1.388.527,4.4,1.679,5.421,2.111A2.441,2.441,0,0,1,41.5,3.7L38.952,7.919a.505.505,0,0,0-.073.261v9.956a.505.505,0,0,0,1.011,0V14.605l4.967-1.973A.505.505,0,0,0,45.161,12.043ZM20.343,13.518l-4.186-1.663.26-1.07,3.926,1.647v1.086Zm0-5.2v3.015L16.659,9.79l1.133-4.669a2.774,2.774,0,0,1,.256-.6ZM30.153,5.6A4.765,4.765,0,0,1,25.792,1.01h8.722A4.765,4.765,0,0,1,30.153,5.6ZM39.89,8.321l2.3-3.8a3.024,3.024,0,0,1,.228.506h0l.009.027v0l.006.018,0,.006,0,.012V5.1l0,.007v.007L43.574,9.79,39.89,11.336V8.321Zm0,5.2V12.432l3.926-1.647.26,1.07Z" transform="translate(-15.057)" fill="#007041"/>
        </g>
      </g>
    </g>
  </g>
</svg>
