<svg xmlns="http://www.w3.org/2000/svg" width="32" height="32" viewBox="0 0 32 32"><defs><style>.a{fill:rgba(255,255,255,0);}.b{fill:#1b4e01;}</style></defs><g transform="translate(-2588 84)"><rect class="a" width="32" height="32" transform="translate(2588 -84)"/><g transform="translate(2589 -84)"><path class="b" d="M2.552,40.31a.552.552,0,0,0,.552-.552,1.655,1.655,0,1,1,3.31,0,.552.552,0,0,0,1.1,0,2.759,2.759,0,1,0-5.517,0A.552.552,0,0,0,2.552,40.31Z" transform="translate(-2 -16.586)"/><path class="b" d="M2.552,34.31a.552.552,0,0,0,.552-.552,1.655,1.655,0,1,1,3.31,0,.552.552,0,0,0,1.1,0,2.759,2.759,0,0,0-5.517,0A.552.552,0,0,0,2.552,34.31Z" transform="translate(-2 -13.897)"/><path class="b" d="M2.552,28.31a.552.552,0,0,0,.552-.552,1.655,1.655,0,0,1,3.31,0,.552.552,0,0,0,1.1,0,2.759,2.759,0,1,0-5.517,0A.552.552,0,0,0,2.552,28.31Z" transform="translate(-2 -11.207)"/><path class="b" d="M2.552,22.31a.552.552,0,0,0,.552-.552,1.655,1.655,0,1,1,3.31,0,.552.552,0,0,0,1.1,0,2.759,2.759,0,1,0-5.517,0A.552.552,0,0,0,2.552,22.31Z" transform="translate(-2 -8.517)"/><path class="b" d="M3.1,15.759a1.655,1.655,0,0,1,3.31,0,.552.552,0,1,0,1.1,0,2.759,2.759,0,0,0-5.517,0,.552.552,0,1,0,1.1,0Z" transform="translate(-2 -5.828)"/><path class="b" d="M29.588,0H11.379V0H4.207V3.918A2.763,2.763,0,0,0,2,6.621a.552.552,0,1,0,1.1,0,1.655,1.655,0,0,1,3.31,0,.552.552,0,1,0,1.1,0,2.763,2.763,0,0,0-2.207-2.7V1.1h4.966V30.9H5.31V27.034a.552.552,0,1,0-1.1,0v1a1.652,1.652,0,1,1,2.207-1.553.552.552,0,1,0,1.1,0,2.759,2.759,0,1,0-3.31,2.7V32H29.588a2.208,2.208,0,0,0,2.205-2.2V2.207A2.208,2.208,0,0,0,29.588,0ZM11.379,30.9V1.106H24.621V30.9Zm14.345,0V1.106h1.655V30.9Zm4.966-1.1a1.1,1.1,0,0,1-1.1,1.1H28.483V1.106h1.105a1.1,1.1,0,0,1,1.1,1.1Z" transform="translate(-2)"/></g></g></svg>