<svg xmlns="http://www.w3.org/2000/svg" width="32" height="32" viewBox="0 0 32 32">
  <g id="cartao_visita" transform="translate(0 -328)">
    <g id="adesivo" transform="translate(-516 206)">
      <rect id="Rectangle_110" data-name="Rectangle 110" width="32" height="32" transform="translate(516 122)" fill="rgba(255,255,255,0)"/>
      <g id="free-delivery" transform="translate(516 122.5)">
        <path id="Path_107" data-name="Path 107" d="M2.064,22.177A15.057,15.057,0,0,1,24.241,3.888a.469.469,0,1,0,.514-.785A16,16,0,0,0,1.2,22.531a.469.469,0,1,0,.868-.355Zm0,0" transform="translate(0 -0.5)" fill="rgba(255,255,255,0)"/>
        <path id="Path_108" data-name="Path 108" d="M55.887,58.952a.469.469,0,0,0-.6.717,15.053,15.053,0,0,1,2.54,20.289,13.246,13.246,0,0,0-13.2-.4.469.469,0,0,0,.444.826,12.312,12.312,0,0,1,11.676.031c-4.3,1.132-12.084,3.183-16.323,4.3a12.6,12.6,0,0,1,3.122-3.367.469.469,0,0,0-.559-.753,13.548,13.548,0,0,0-3.729,4.246,15.173,15.173,0,0,1-6.823-6.337.469.469,0,0,0-.819.457,15.947,15.947,0,0,0,7.672,6.921c.257.107-1.012.365,17.37-4.477,1.464-.395,1.516-.355,1.656-.539A15.99,15.99,0,0,0,55.887,58.952Zm0,0" transform="translate(-29.583 -55.196)" fill="rgba(255,255,255,0)"/>
      </g>
    </g>
    <g id="busines-card" transform="translate(0 266.872)">
      <path id="Path_1435" data-name="Path 1435" d="M31.5,67.128H.5a.5.5,0,0,0-.5.5V86.375a.5.5,0,0,0,.5.5h31a.5.5,0,0,0,.5-.5V67.63A.5.5,0,0,0,31.5,67.128ZM31,85.873H1V68.132H31V85.873Z" fill="#007041"/>
      <path id="Path_1436" data-name="Path 1436" d="M58.744,114.36a3.059,3.059,0,1,0-3.057-3.059A3.061,3.061,0,0,0,58.744,114.36Zm0-5.113a2.054,2.054,0,1,1-2.053,2.054A2.056,2.056,0,0,1,58.744,109.247Z" transform="translate(-50.606 -37.363)" fill="#007041"/>
      <path id="Path_1437" data-name="Path 1437" d="M42.994,193.819a.5.5,0,0,0,.5-.5V191.9a1.973,1.973,0,0,1,1.971-1.971H48.06a1.973,1.973,0,0,1,1.971,1.971v1.42a.5.5,0,1,0,1,0V191.9a2.979,2.979,0,0,0-2.975-2.975H45.467a2.979,2.979,0,0,0-2.975,2.975v1.42A.5.5,0,0,0,42.994,193.819Z" transform="translate(-38.615 -110.681)" fill="#007041"/>
      <path id="Path_1438" data-name="Path 1438" d="M146.926,109.247h13.758a.5.5,0,1,0,0-1H146.926a.5.5,0,0,0,0,1Z" transform="translate(-133.063 -37.363)" fill="#007041"/>
      <path id="Path_1439" data-name="Path 1439" d="M198.483,231.58H188.52a.5.5,0,0,0,0,1h9.963a.5.5,0,1,0,0-1Z" transform="translate(-170.862 -149.446)" fill="#007041"/>
      <path id="Path_1440" data-name="Path 1440" d="M236.021,171.441h-6.193a.5.5,0,1,0,0,1h6.193a.5.5,0,1,0,0-1Z" transform="translate(-208.4 -94.795)" fill="#007041"/>
      <path id="Path_1441" data-name="Path 1441" d="M236.021,201.506h-6.193a.5.5,0,1,0,0,1h6.193a.5.5,0,1,0,0-1Z" transform="translate(-208.4 -122.116)" fill="#007041"/>
    </g>
  </g>
</svg>
