<svg xmlns="http://www.w3.org/2000/svg" width="32" height="32" viewBox="0 0 32 32">
  <g id="chapeu" transform="translate(-1316 -220)">
    <g id="adesivo" transform="translate(800 98)">
      <rect id="Rectangle_110" data-name="Rectangle 110" width="32" height="32" transform="translate(516 122)" fill="rgba(255,255,255,0)"/>
      <g id="free-delivery" transform="translate(516 122.5)">
        <path id="Path_107" data-name="Path 107" d="M2.064,22.177A15.057,15.057,0,0,1,24.241,3.888a.469.469,0,1,0,.514-.785A16,16,0,0,0,1.2,22.531a.469.469,0,1,0,.868-.355Zm0,0" transform="translate(0 -0.5)" fill="rgba(255,255,255,0)"/>
        <path id="Path_108" data-name="Path 108" d="M55.887,58.952a.469.469,0,0,0-.6.717,15.053,15.053,0,0,1,2.54,20.289,13.246,13.246,0,0,0-13.2-.4.469.469,0,0,0,.444.826,12.312,12.312,0,0,1,11.676.031c-4.3,1.132-12.084,3.183-16.323,4.3a12.6,12.6,0,0,1,3.122-3.367.469.469,0,0,0-.559-.753,13.548,13.548,0,0,0-3.729,4.246,15.173,15.173,0,0,1-6.823-6.337.469.469,0,0,0-.819.457,15.947,15.947,0,0,0,7.672,6.921c.257.107-1.012.365,17.37-4.477,1.464-.395,1.516-.355,1.656-.539A15.99,15.99,0,0,0,55.887,58.952Zm0,0" transform="translate(-29.583 -55.196)" fill="rgba(255,255,255,0)"/>
      </g>
    </g>
    <g id="Chapeu-2" data-name="Chapeu" transform="translate(1006 -261)">
      <rect id="Rectangle_115" data-name="Rectangle 115" width="32" height="32" transform="translate(310 481)" fill="rgba(255,255,255,0)"/>
      <g id="hat" transform="translate(314 481)">
        <path id="Path_171" data-name="Path 171" d="M23.673,30.819,20.269,1.3A1.466,1.466,0,0,0,17.63.6L.129,24.613A.656.656,0,0,0,0,24.986c-.016.828,1.006,1.651,3.321,2.7A52.618,52.618,0,0,0,11.2,30.359a52.629,52.629,0,0,0,8.177,1.554c.644.059,1.208.088,1.7.088,1.471,0,2.269-.27,2.544-.843A.621.621,0,0,0,23.673,30.819Zm-1.457-1.862a19.824,19.824,0,0,0-2.793-1.352c-1-.412-2.025-.78-3.055-1.119q-.959-.316-1.927-.6l6.944-4.049Zm-3.556-27.6a.191.191,0,0,1,.343.09l.442,3.788L13.134,8.912Zm-7.407,10.13,8.353-4.87.727,6.229-7,4.081a.638.638,0,0,0,.642,1.1l6.518-3.8.727,6.229L12.73,25.406q-.366-.1-.733-.191a53.651,53.651,0,0,0-7.1-1.361q-.39-.044-.78-.076l5.446-3.165a.638.638,0,1,0-.641-1.1L2.77,23.086Zm7.74,19.107a53.872,53.872,0,0,1-7.465-1.466,53.9,53.9,0,0,1-7.219-2.4A10.035,10.035,0,0,1,1.419,25.1a4.846,4.846,0,0,1,1.192-.116,19.924,19.924,0,0,1,2.635.19c1.007.127,2.007.3,3,.493s2,.421,2.994.668,1.995.518,2.983.812c1.189.353,2.369.739,3.531,1.172a27.548,27.548,0,0,1,3.073,1.323c.283.147.563.3.833.473a3.816,3.816,0,0,1,.645.486A10.038,10.038,0,0,1,18.993,30.591Zm0,0" transform="translate(-0.001 0)" fill="#007041"/>
        <path id="Path_172" data-name="Path 172" d="M171.366,285.937a.64.64,0,1,1-.64-.64A.64.64,0,0,1,171.366,285.937Zm0,0" transform="translate(-159.283 -267.177)" fill="#1b4e01"/>
      </g>
    </g>
  </g>
</svg>
