<svg xmlns="http://www.w3.org/2000/svg" width="32" height="32" viewBox="0 0 32 32">
  <g id="cachorro_quente" transform="translate(-800 -220)">
    <g id="adesivo" transform="translate(284 98)">
      <rect id="Rectangle_110" data-name="Rectangle 110" width="32" height="32" transform="translate(516 122)" fill="rgba(255,255,255,0)"/>
      <g id="free-delivery" transform="translate(516 122.5)">
        <path id="Path_107" data-name="Path 107" d="M2.064,22.177A15.057,15.057,0,0,1,24.241,3.888a.469.469,0,1,0,.514-.785A16,16,0,0,0,1.2,22.531a.469.469,0,1,0,.868-.355Zm0,0" transform="translate(0 -0.5)" fill="rgba(255,255,255,0)"/>
        <path id="Path_108" data-name="Path 108" d="M55.887,58.952a.469.469,0,0,0-.6.717,15.053,15.053,0,0,1,2.54,20.289,13.246,13.246,0,0,0-13.2-.4.469.469,0,0,0,.444.826,12.312,12.312,0,0,1,11.676.031c-4.3,1.132-12.084,3.183-16.323,4.3a12.6,12.6,0,0,1,3.122-3.367.469.469,0,0,0-.559-.753,13.548,13.548,0,0,0-3.729,4.246,15.173,15.173,0,0,1-6.823-6.337.469.469,0,0,0-.819.457,15.947,15.947,0,0,0,7.672,6.921c.257.107-1.012.365,17.37-4.477,1.464-.395,1.516-.355,1.656-.539A15.99,15.99,0,0,0,55.887,58.952Zm0,0" transform="translate(-29.583 -55.196)" fill="rgba(255,255,255,0)"/>
      </g>
    </g>
    <g id="hot-dog" transform="translate(800.001 175.987)">
      <g id="Group_899" data-name="Group 899" transform="translate(-0.001 47.013)">
        <g id="Group_898" data-name="Group 898" transform="translate(0 0)">
          <path id="Path_1489" data-name="Path 1489" d="M31.087,182.016a3.905,3.905,0,0,0-3.907-1.286l-3.456.834a37.074,37.074,0,0,0-15.3.022v.014l-3.607-.87a3.9,3.9,0,0,0-3,7.088,3.792,3.792,0,0,0-.213,1.265,7.493,7.493,0,0,0,5.834,7.334l.325.075a37.567,37.567,0,0,0,16.5.067l.788-.175a7.481,7.481,0,0,0,5.893-7.349,3.733,3.733,0,0,0-.327-1.522A3.9,3.9,0,0,0,31.087,182.016Zm-7.34.639c.064.013.126.022.188.036l-.653,1.088-1.2-.721Zm-2.639-.46h0l-1.982.48a13.385,13.385,0,0,1-6.258,0l-1.877-.453A35.873,35.873,0,0,1,21.109,182.2Zm-1.359,1.426-.756,1.259-1.672-.836a14.362,14.362,0,0,0,2.054-.333Zm-5.23.41-2.039.874-.858-1.435,1,.241A14.4,14.4,0,0,0,14.52,184.031Zm-5.1-1.092-1.673.836L7.2,182.4Zm15.391,12.4-.788.175A36.5,36.5,0,0,1,8,195.452l-.325-.075a6.435,6.435,0,0,1-5.009-6.309,2.665,2.665,0,0,1,3.266-2.6l4.769,1.1a24.163,24.163,0,0,0,10.6.043l5.318-1.181a2.667,2.667,0,0,1,3.246,2.6A6.421,6.421,0,0,1,24.808,195.342Zm5.217-8.743a3.8,3.8,0,0,0-.488-.477,3.716,3.716,0,0,0-3.147-.733l-5.317,1.182a23.068,23.068,0,0,1-10.134-.041l-4.769-1.1a3.708,3.708,0,0,0-3.854,1.443,2.834,2.834,0,0,1,2.25-5.105l.826.2L3.4,183.561a.534.534,0,1,0,.667.833l2.105-1.684.8,2a.533.533,0,0,0,.693.3l.041-.018,2.759-1.379,1.346,2.243a.533.533,0,0,0,.667.213l3.506-1.5,2.979,1.493a.533.533,0,0,0,.693-.2l1.326-2.21,2.209,1.325a.533.533,0,0,0,.732-.182l1.326-2.21,2.209,1.325A.533.533,0,0,0,28,182.99l-1.616-.97,1.039-.251a2.833,2.833,0,0,1,2.6,4.829Z" transform="translate(0.001 -171.711)" fill="#007041"/>
          <rect id="Rectangle_1911" data-name="Rectangle 1911" width="1.067" height="1.067" transform="translate(4.797 17.601)" fill="#007041"/>
          <rect id="Rectangle_1912" data-name="Rectangle 1912" width="1.067" height="1.067" transform="translate(6.931 17.068)" fill="#007041"/>
          <rect id="Rectangle_1913" data-name="Rectangle 1913" width="1.067" height="1.067" transform="translate(9.064 17.601)" fill="#007041"/>
          <rect id="Rectangle_1914" data-name="Rectangle 1914" width="1.067" height="1.067" transform="translate(15.465 22.401)" fill="#007041"/>
          <rect id="Rectangle_1915" data-name="Rectangle 1915" width="1.067" height="1.067" transform="translate(17.598 21.335)" fill="#007041"/>
          <rect id="Rectangle_1916" data-name="Rectangle 1916" width="1.067" height="1.067" transform="translate(13.331 21.335)" fill="#007041"/>
          <rect id="Rectangle_1917" data-name="Rectangle 1917" width="1.067" height="1.067" transform="translate(21.865 17.601)" fill="#007041"/>
          <rect id="Rectangle_1918" data-name="Rectangle 1918" width="1.067" height="1.067" transform="translate(23.999 17.068)" fill="#007041"/>
          <rect id="Rectangle_1919" data-name="Rectangle 1919" width="1.067" height="1.067" transform="translate(26.133 17.601)" fill="#007041"/>
          <path id="Path_1490" data-name="Path 1490" d="M152.938,50.888c.4.332.609.524.609.924s-.209.59-.608.924c-.114.095-.227.189-.332.291a.533.533,0,1,0,.737.771c.089-.085.183-.163.278-.243a2.028,2.028,0,0,0,0-3.487c-.4-.334-.608-.526-.608-.923s.209-.591.609-.924c.113-.094.226-.189.331-.289a.533.533,0,0,0-.736-.772c-.088.084-.183.163-.278.242a2.028,2.028,0,0,0,0,3.487Z" transform="translate(-141.815 -47.013)" fill="#007041"/>
          <path id="Path_1491" data-name="Path 1491" d="M296.938,50.888c.4.332.609.524.609.924s-.209.59-.608.924c-.114.095-.227.189-.332.291a.533.533,0,0,0,.737.771c.088-.084.183-.163.278-.242a2.029,2.029,0,0,0,0-3.487c-.4-.334-.608-.526-.608-.923s.209-.591.609-.924c.113-.094.226-.189.331-.289a.533.533,0,0,0-.736-.772c-.088.084-.183.163-.278.242a2.028,2.028,0,0,0,0,3.487Z" transform="translate(-276.214 -47.013)" fill="#007041"/>
          <path id="Path_1492" data-name="Path 1492" d="M224.938,50.888c.4.332.609.524.609.924s-.209.59-.608.924c-.114.095-.227.189-.332.291a.533.533,0,1,0,.737.771c.089-.085.183-.163.278-.243a2.028,2.028,0,0,0,0-3.487c-.4-.334-.608-.526-.608-.923s.209-.591.609-.924c.113-.094.226-.189.331-.289a.533.533,0,0,0-.736-.772c-.088.084-.183.163-.278.242a2.028,2.028,0,0,0,0,3.487Z" transform="translate(-209.015 -47.013)" fill="#007041"/>
        </g>
      </g>
    </g>
  </g>
</svg>
