<svg xmlns="http://www.w3.org/2000/svg" width="32" height="32" viewBox="0 0 32 32">
  <g id="faixa_fosca" transform="translate(-2194 -598)">
    <g id="adesivo" transform="translate(1678 476)">
      <rect id="Rectangle_110" data-name="Rectangle 110" width="32" height="32" transform="translate(516 122)" fill="rgba(255,255,255,0)"/>
      <g id="free-delivery" transform="translate(516 122.5)">
        <path id="Path_107" data-name="Path 107" d="M2.064,22.177A15.057,15.057,0,0,1,24.241,3.888a.469.469,0,1,0,.514-.785A16,16,0,0,0,1.2,22.531a.469.469,0,1,0,.868-.355Zm0,0" transform="translate(0 -0.5)" fill="rgba(255,255,255,0)"/>
        <path id="Path_108" data-name="Path 108" d="M55.887,58.952a.469.469,0,0,0-.6.717,15.053,15.053,0,0,1,2.54,20.289,13.246,13.246,0,0,0-13.2-.4.469.469,0,0,0,.444.826,12.312,12.312,0,0,1,11.676.031c-4.3,1.132-12.084,3.183-16.323,4.3a12.6,12.6,0,0,1,3.122-3.367.469.469,0,0,0-.559-.753,13.548,13.548,0,0,0-3.729,4.246,15.173,15.173,0,0,1-6.823-6.337.469.469,0,0,0-.819.457,15.947,15.947,0,0,0,7.672,6.921c.257.107-1.012.365,17.37-4.477,1.464-.395,1.516-.355,1.656-.539A15.99,15.99,0,0,0,55.887,58.952Zm0,0" transform="translate(-29.583 -55.196)" fill="rgba(255,255,255,0)"/>
      </g>
    </g>
    <g id="advertising" transform="translate(2247.333 515.667) rotate(90)">
      <g id="Group_933" data-name="Group 933" transform="translate(85.333 21.333)">
        <g id="Group_932" data-name="Group 932" transform="translate(0 0)">
          <path id="Path_1580" data-name="Path 1580" d="M112.28,22.175c0-.465-.842-.842-.842-.842H86.175l-.842.842v3.368s.377.842.842.842h.842V48.28h-.842a.842.842,0,0,0-.842.842v3.368c0,.465.842.842.842.842h25.263s.842-.377.842-.842V49.122a.842.842,0,0,0-.842-.842H110.6V26.386h.842a.842.842,0,0,0,.842-.842ZM110.6,51.649H87.017V49.965H110.6v1.684ZM88.7,48.28V26.386h20.21V48.28H88.7ZM110.6,24.7H87.017V23.017H110.6V24.7Z" transform="translate(-85.333 -21.333)" fill="#007041"/>
        </g>
      </g>
    </g>
  </g>
</svg>
