<svg xmlns="http://www.w3.org/2000/svg" width="32" height="32" viewBox="0 0 32 32">
  <g id="Folhetos" transform="translate(0 -382)">
    <g id="adesivo" transform="translate(-516 260)">
      <rect id="Rectangle_110" data-name="Rectangle 110" width="32" height="32" transform="translate(516 122)" fill="rgba(255,255,255,0)"/>
      <g id="free-delivery" transform="translate(516 122.5)">
        <path id="Path_107" data-name="Path 107" d="M2.064,22.177A15.057,15.057,0,0,1,24.241,3.888a.469.469,0,1,0,.514-.785A16,16,0,0,0,1.2,22.531a.469.469,0,1,0,.868-.355Zm0,0" transform="translate(0 -0.5)" fill="rgba(255,255,255,0)"/>
        <path id="Path_108" data-name="Path 108" d="M55.887,58.952a.469.469,0,0,0-.6.717,15.053,15.053,0,0,1,2.54,20.289,13.246,13.246,0,0,0-13.2-.4.469.469,0,0,0,.444.826,12.312,12.312,0,0,1,11.676.031c-4.3,1.132-12.084,3.183-16.323,4.3a12.6,12.6,0,0,1,3.122-3.367.469.469,0,0,0-.559-.753,13.548,13.548,0,0,0-3.729,4.246,15.173,15.173,0,0,1-6.823-6.337.469.469,0,0,0-.819.457,15.947,15.947,0,0,0,7.672,6.921c.257.107-1.012.365,17.37-4.477,1.464-.395,1.516-.355,1.656-.539A15.99,15.99,0,0,0,55.887,58.952Zm0,0" transform="translate(-29.583 -55.196)" fill="rgba(255,255,255,0)"/>
      </g>
    </g>
    <g id="flyer" transform="translate(-25 382)">
      <g id="Group_857" data-name="Group 857" transform="translate(31.625 8.001)">
        <g id="Group_856" data-name="Group 856" transform="translate(0)">
          <path id="Path_1442" data-name="Path 1442" d="M106.123,128.015a5.125,5.125,0,1,0,5.125,5.125A5.131,5.131,0,0,0,106.123,128.015Zm0,9A3.875,3.875,0,1,1,110,133.14,3.879,3.879,0,0,1,106.123,137.015Z" transform="translate(-100.998 -128.015)" fill="#007041"/>
        </g>
      </g>
      <g id="Group_859" data-name="Group 859" transform="translate(40.687 20.841)">
        <g id="Group_858" data-name="Group 858" transform="translate(0)">
          <path id="Path_1443" data-name="Path 1443" d="M247.058,333.64a.625.625,0,1,0,.183.442A.628.628,0,0,0,247.058,333.64Z" transform="translate(-245.991 -333.457)" fill="#007041"/>
        </g>
      </g>
      <g id="Group_861" data-name="Group 861" transform="translate(31.562 20.841)">
        <g id="Group_860" data-name="Group 860" transform="translate(0)">
          <path id="Path_1444" data-name="Path 1444" d="M107.451,333.458h-6.828a.625.625,0,0,0,0,1.25h6.828a.625.625,0,0,0,0-1.25Z" transform="translate(-99.998 -333.458)" fill="#007041"/>
        </g>
      </g>
      <g id="Group_863" data-name="Group 863" transform="translate(31.562 23.693)">
        <g id="Group_862" data-name="Group 862" transform="translate(0)">
          <path id="Path_1445" data-name="Path 1445" d="M109.748,379.081h-9.125a.625.625,0,1,0,0,1.25h9.125a.625.625,0,1,0,0-1.25Z" transform="translate(-99.998 -379.081)" fill="#007041"/>
        </g>
      </g>
      <g id="Group_865" data-name="Group 865" transform="translate(34.031 26.544)">
        <g id="Group_864" data-name="Group 864" transform="translate(0)">
          <path id="Path_1446" data-name="Path 1446" d="M146.784,424.705h-6.656a.625.625,0,1,0,0,1.25h6.656a.625.625,0,1,0,0-1.25Z" transform="translate(-139.503 -424.705)" fill="#007041"/>
        </g>
      </g>
      <g id="Group_867" data-name="Group 867" transform="translate(31.562 26.544)">
        <g id="Group_866" data-name="Group 866" transform="translate(0)">
          <path id="Path_1447" data-name="Path 1447" d="M101.062,424.888a.625.625,0,1,0,.183.442A.629.629,0,0,0,101.062,424.888Z" transform="translate(-99.995 -424.705)" fill="#007041"/>
        </g>
      </g>
      <g id="Group_869" data-name="Group 869" transform="translate(27)">
        <g id="Group_868" data-name="Group 868" transform="translate(0)">
          <path id="Path_1448" data-name="Path 1448" d="M55,0H36.75a.625.625,0,0,0-.625.625V3.376h-8.5A.625.625,0,0,0,27,4V31.375a.625.625,0,0,0,.625.625h18.25a.625.625,0,0,0,.625-.625V28.624H55A.625.625,0,0,0,55.625,28V.625A.625.625,0,0,0,55,0ZM45.25,30.75h-17V4.626h17Zm9.126-3.376H46.5V4a.625.625,0,0,0-.625-.625h-8.5V1.25h17Z" transform="translate(-27)" fill="#007041"/>
        </g>
      </g>
    </g>
  </g>
</svg>
