<svg xmlns="http://www.w3.org/2000/svg" width="32" height="32" viewBox="0 0 32 32">
  <g id="forma_docinho" transform="translate(-1316 -4)">
    <rect id="Rectangle_1348" data-name="Rectangle 1348" width="32" height="32" transform="translate(1316 4)" fill="rgba(255,255,255,0)"/>
    <path id="muffin-with-chocolate" d="M32,17.422a3.022,3.022,0,0,0-1.925-2.812,14.083,14.083,0,0,0-28.15,0,3.016,3.016,0,0,0,.242,5.706L5.2,30.136a3.636,3.636,0,0,0,3.521,2.721H23.281A3.636,3.636,0,0,0,26.8,30.136l3.031-9.82A3.022,3.022,0,0,0,32,17.422ZM25.519,29.757l-.009.032a2.3,2.3,0,0,1-2.229,1.731H22.109L24.25,22.8a.669.669,0,0,0-1.3-.319l-2.22,9.038H16.669V22.641a.669.669,0,1,0-1.338,0V31.52H11.269l-2.22-9.038a.669.669,0,0,0-1.3.319L9.891,31.52H8.719A2.3,2.3,0,0,1,6.49,29.789c0-.011-.006-.021-.009-.032L3.605,20.439h24.79ZM28.983,19.1H3.017a1.679,1.679,0,0,1,0-3.359H24.488a.669.669,0,0,0,0-1.338H3.272a12.746,12.746,0,0,1,25.459.05.669.669,0,0,0,.252,1.288,1.679,1.679,0,0,1,0,3.359ZM11.209,7.408a.958.958,0,1,1-.958-.958A.961.961,0,0,1,11.209,7.408ZM8.334,11.241a.961.961,0,0,1-.958.958h0a.958.958,0,1,1,0-1.916h0A.961.961,0,0,1,8.334,11.241ZM16,10.283a.958.958,0,1,1-.958-.958A.961.961,0,0,1,16,10.283ZM21.494,12.6h0a.961.961,0,0,1-.958.958h0a.961.961,0,0,1-.958-.958h0a.961.961,0,0,1,.958-.958h0A.961.961,0,0,1,21.494,12.6ZM19.578,7.2h0a.958.958,0,0,1,0-1.916h0a.958.958,0,1,1,0,1.916ZM14.084,5.956A.958.958,0,1,1,15.042,5,.961.961,0,0,1,14.084,5.956ZM26.54,11.241a.961.961,0,0,1-.958.958h0a.958.958,0,1,1,0-1.916h0A.961.961,0,0,1,26.54,11.241Z" transform="translate(1316 3.01)" fill="#007041"/>
  </g>
</svg>
