<svg xmlns="http://www.w3.org/2000/svg" width="32" height="32" viewBox="0 0 32 32">
  <g id="Group_1050" data-name="Group 1050" transform="translate(-800 -112)">
    <rect id="Rectangle_1345" data-name="Rectangle 1345" width="32" height="32" transform="translate(800 112)" fill="rgba(255,255,255,0)"/>
    <g id="magnetic-resonance" transform="translate(772.624 112)">
      <g id="Group_973" data-name="Group 973" transform="translate(27.376)">
        <g id="Group_972" data-name="Group 972" transform="translate(0)">
          <path id="Path_1593" data-name="Path 1593" d="M51.769,4.185a14.289,14.289,0,0,0-24.393,10.1V31.363a.637.637,0,0,0,.637.637h27.3a.637.637,0,0,0,.637-.637V14.289A14.2,14.2,0,0,0,51.769,4.185Zm2.91,26.54H28.651V14.289a13.014,13.014,0,0,1,26.028,0Z" transform="translate(-27.376)" fill="#007041"/>
        </g>
      </g>
      <g id="Group_975" data-name="Group 975" transform="translate(30.415 2.184)">
        <g id="Group_974" data-name="Group 974" transform="translate(0)">
          <path id="Path_1594" data-name="Path 1594" d="M98.069,49.409A2.647,2.647,0,0,0,95.837,48.2H93.526a6.37,6.37,0,0,0-.04-2.56h2.258a2.66,2.66,0,0,0,2.406-3.8,12.072,12.072,0,0,0-21.806,0,2.66,2.66,0,0,0,2.406,3.8h2.258a6.37,6.37,0,0,0-.04,2.56H78.658a2.663,2.663,0,0,0-2.424,3.76,12.072,12.072,0,0,0,22.028,0A2.663,2.663,0,0,0,98.069,49.409ZM78.751,44.361a1.382,1.382,0,0,1-1.175-.648,1.354,1.354,0,0,1-.08-1.329,10.8,10.8,0,0,1,19.5,0,1.354,1.354,0,0,1-.08,1.329,1.382,1.382,0,0,1-1.175.648H93.058a6.388,6.388,0,0,0-11.621,0H78.751ZM90.087,51.84H81.041V50.494H93.454V51.84h-.726a.637.637,0,0,0-.607.444,5.116,5.116,0,0,1-9.4.831h7.365a.637.637,0,0,0,0-1.275Zm-7.954-4.823a5.114,5.114,0,1,1,9.73,2.2H82.632A5.116,5.116,0,0,1,82.133,47.017ZM97.1,51.434a10.8,10.8,0,0,1-19.7,0,1.374,1.374,0,0,1,.1-1.332,1.36,1.36,0,0,1,1.161-.631H79.9a.634.634,0,0,0-.131.386v2.621a.637.637,0,0,0,.637.637h.915a6.391,6.391,0,0,0,11.858,0h.915a.638.638,0,0,0,.637-.637V49.857a.634.634,0,0,0-.131-.386h1.239A1.36,1.36,0,0,1,97,50.1,1.375,1.375,0,0,1,97.1,51.434Z" transform="translate(-75.997 -34.949)" fill="#007041"/>
        </g>
      </g>
      <g id="Group_977" data-name="Group 977" transform="translate(40.081 5.242)">
        <g id="Group_976" data-name="Group 976">
          <path id="Path_1595" data-name="Path 1595" d="M233.187,83.875h-1.893a.637.637,0,0,0,0,1.275h1.893a.637.637,0,0,0,0-1.275Z" transform="translate(-230.656 -83.875)" fill="#007041"/>
        </g>
      </g>
      <g id="Group_979" data-name="Group 979" transform="translate(43.794 28.395)">
        <g id="Group_978" data-name="Group 978">
          <path id="Path_1596" data-name="Path 1596" d="M291.508,454.324h-.8a.637.637,0,0,0,0,1.275h.8a.637.637,0,0,0,0-1.275Z" transform="translate(-290.07 -454.324)" fill="#007041"/>
        </g>
      </g>
      <g id="Group_981" data-name="Group 981" transform="translate(47.143 28.395)">
        <g id="Group_980" data-name="Group 980" transform="translate(0)">
          <path id="Path_1597" data-name="Path 1597" d="M349.243,454.324h-4.951a.637.637,0,0,0,0,1.275h4.951a.637.637,0,0,0,0-1.275Z" transform="translate(-343.655 -454.324)" fill="#007041"/>
        </g>
      </g>
    </g>
  </g>
</svg>
