<svg xmlns="http://www.w3.org/2000/svg" width="32" height="32" viewBox="0 0 32 32">
  <g id="lona_backlight" transform="translate(-2194 -436)">
    <g id="adesivo" transform="translate(1678 314)">
      <rect id="Rectangle_110" data-name="Rectangle 110" width="32" height="32" transform="translate(516 122)" fill="rgba(255,255,255,0)"/>
      <g id="free-delivery" transform="translate(516 122.5)">
        <path id="Path_107" data-name="Path 107" d="M2.064,22.177A15.057,15.057,0,0,1,24.241,3.888a.469.469,0,1,0,.514-.785A16,16,0,0,0,1.2,22.531a.469.469,0,1,0,.868-.355Zm0,0" transform="translate(0 -0.5)" fill="rgba(255,255,255,0)"/>
        <path id="Path_108" data-name="Path 108" d="M55.887,58.952a.469.469,0,0,0-.6.717,15.053,15.053,0,0,1,2.54,20.289,13.246,13.246,0,0,0-13.2-.4.469.469,0,0,0,.444.826,12.312,12.312,0,0,1,11.676.031c-4.3,1.132-12.084,3.183-16.323,4.3a12.6,12.6,0,0,1,3.122-3.367.469.469,0,0,0-.559-.753,13.548,13.548,0,0,0-3.729,4.246,15.173,15.173,0,0,1-6.823-6.337.469.469,0,0,0-.819.457,15.947,15.947,0,0,0,7.672,6.921c.257.107-1.012.365,17.37-4.477,1.464-.395,1.516-.355,1.656-.539A15.99,15.99,0,0,0,55.887,58.952Zm0,0" transform="translate(-29.583 -55.196)" fill="rgba(255,255,255,0)"/>
      </g>
    </g>
    <g id="banner_2_" data-name="banner (2)" transform="translate(2194 437)">
      <path id="Path_1575" data-name="Path 1575" d="M31.876.152a.469.469,0,0,0-.662-.029L26.823,4.15a1.4,1.4,0,0,0-2.682.549.468.468,0,0,0,0,.926V5.96H17.094a.469.469,0,0,0,0,.937h6.838V22.172H8.068V6.9h6.838a.469.469,0,0,0,0-.938H7.858V5.625a.468.468,0,0,0,0-.926A1.4,1.4,0,0,0,5.176,4.15L.785.123A.469.469,0,0,0,.152.814L4.722,5.006a.467.467,0,0,0,.342.614v.45a1.126,1.126,0,0,0-.643,1.015v14.9A1.126,1.126,0,0,0,5.064,23v.486a.467.467,0,0,0-.342.614L.152,28.291a.469.469,0,1,0,.634.691l4.4-4.037a1.4,1.4,0,0,0,2.669-.538.468.468,0,0,0,0-.926V23.11H24.142v.371a.468.468,0,0,0,0,.926,1.4,1.4,0,0,0,2.669.538l4.4,4.037a.469.469,0,0,0,.634-.691L27.277,24.1a.467.467,0,0,0-.342-.614V23a1.126,1.126,0,0,0,.643-1.015V15.646a.469.469,0,1,0-.937,0v6.338a.188.188,0,0,1-.183.188H24.869V6.9h1.588a.188.188,0,0,1,.184.188v6.374a.469.469,0,1,0,.937,0V7.085a1.126,1.126,0,0,0-.643-1.015V5.62a.468.468,0,0,0,.341-.614L31.848.814a.469.469,0,0,0,.029-.662ZM6.461,4.24a.46.46,0,0,1,.459.454H6A.46.46,0,0,1,6.461,4.24ZM6,5.631H6.92v.329H6Zm.459,19.2A.46.46,0,0,1,6,24.412h.915A.46.46,0,0,1,6.461,24.83Zm.46-1.355H6V23.11H6.92Zm.21-1.3H5.542a.188.188,0,0,1-.184-.187V7.085A.188.188,0,0,1,5.542,6.9H7.13ZM25.539,24.83a.46.46,0,0,1-.457-.418H26A.46.46,0,0,1,25.539,24.83Zm-.459-1.72H26v.365h-.919Zm.459-18.87A.46.46,0,0,1,26,4.693H25.08A.46.46,0,0,1,25.539,4.24ZM26,5.959h-.919V5.631H26Zm0,0" fill="#007041"/>
      <path id="Path_1576" data-name="Path 1576" d="M181.9,155.5a.689.689,0,0,0,0-.973l-.8-.8a.689.689,0,0,0-.973,0l-.5.5-.342-.342a.689.689,0,0,0-.973,0l-.8.8a.688.688,0,0,0,0,.973l.342.342-.388.387a3.688,3.688,0,1,0,1.769,1.774l.39-.39.34.34a.688.688,0,0,0,.973,0l.8-.8a.689.689,0,0,0,0-.973l-.34-.34Zm-1.339.013a.689.689,0,0,0,0,.973l.34.34-.446.446-.34-.34a.689.689,0,0,0-.973,0l-.811.81a.469.469,0,0,0-.072.571,2.744,2.744,0,1,1-1.065-1.015.684.684,0,0,0,.81-.12l.691-.691a.689.689,0,0,0,0-.973l-.342-.342.446-.446.342.342a.689.689,0,0,0,.973,0l.5-.5.446.446Zm0,0" transform="translate(-161.452 -143.93)" fill="#007041"/>
      <path id="Path_1577" data-name="Path 1577" d="M197.9,219.444a2.116,2.116,0,1,0,3.084.094A2.117,2.117,0,0,0,197.9,219.444Zm2.33,2.33a1.179,1.179,0,1,1,.059-1.607A1.18,1.18,0,0,1,200.227,221.775Zm0,0" transform="translate(-184.948 -205.15)" fill="#007041"/>
    </g>
  </g>
</svg>
