<svg xmlns="http://www.w3.org/2000/svg" width="32" height="32" viewBox="0 0 32 32">
  <g id="marcador_livro" transform="translate(0 -598)">
    <g id="adesivo" transform="translate(-516 476)">
      <rect id="Rectangle_110" data-name="Rectangle 110" width="32" height="32" transform="translate(516 122)" fill="rgba(255,255,255,0)"/>
      <g id="free-delivery" transform="translate(516 122.5)">
        <path id="Path_107" data-name="Path 107" d="M2.064,22.177A15.057,15.057,0,0,1,24.241,3.888a.469.469,0,1,0,.514-.785A16,16,0,0,0,1.2,22.531a.469.469,0,1,0,.868-.355Zm0,0" transform="translate(0 -0.5)" fill="rgba(255,255,255,0)"/>
        <path id="Path_108" data-name="Path 108" d="M55.887,58.952a.469.469,0,0,0-.6.717,15.053,15.053,0,0,1,2.54,20.289,13.246,13.246,0,0,0-13.2-.4.469.469,0,0,0,.444.826,12.312,12.312,0,0,1,11.676.031c-4.3,1.132-12.084,3.183-16.323,4.3a12.6,12.6,0,0,1,3.122-3.367.469.469,0,0,0-.559-.753,13.548,13.548,0,0,0-3.729,4.246,15.173,15.173,0,0,1-6.823-6.337.469.469,0,0,0-.819.457,15.947,15.947,0,0,0,7.672,6.921c.257.107-1.012.365,17.37-4.477,1.464-.395,1.516-.355,1.656-.539A15.99,15.99,0,0,0,55.887,58.952Zm0,0" transform="translate(-29.583 -55.196)" fill="rgba(255,255,255,0)"/>
      </g>
    </g>
    <g id="bookmark" transform="translate(-67.921 598)">
      <path id="Path_1599" data-name="Path 1599" d="M90.79,0H76.572a.651.651,0,0,0-.651.651v30.7a.651.651,0,0,0,1.056.51l7.108-5.643a.651.651,0,1,0-.81-1.02L77.223,30V1.3H90.139V30l-2.906-2.306a.651.651,0,1,0-.81,1.02l3.962,3.144a.651.651,0,0,0,1.056-.51V.651A.651.651,0,0,0,90.79,0Z" fill="#007041"/>
      <path id="Path_1600" data-name="Path 1600" d="M97.572,25.057h9.659a.651.651,0,0,0,0-1.3H97.572a.651.651,0,0,0,0,1.3Z" transform="translate(-18.721 -21.177)" fill="#007041"/>
      <path id="Path_1601" data-name="Path 1601" d="M97.572,48.711h9.659a.651.651,0,0,0,0-1.3H97.572a.651.651,0,0,0,0,1.3Z" transform="translate(-18.721 -42.264)" fill="#007041"/>
      <path id="Path_1602" data-name="Path 1602" d="M104.355,71.063H97.572a.651.651,0,0,0,0,1.3h6.783a.651.651,0,1,0,0-1.3Z" transform="translate(-18.721 -63.35)" fill="#007041"/>
    </g>
  </g>
</svg>
