<svg xmlns="http://www.w3.org/2000/svg" width="32" height="32" viewBox="0 0 32 32">
  <g id="Group_1092" data-name="Group 1092" transform="translate(-2194 -490)">
    <g id="adesivo" transform="translate(1678 368)">
      <rect id="Rectangle_110" data-name="Rectangle 110" width="32" height="32" transform="translate(516 122)" fill="rgba(255,255,255,0)"/>
      <g id="free-delivery" transform="translate(516 122.5)">
        <path id="Path_107" data-name="Path 107" d="M2.064,22.177A15.057,15.057,0,0,1,24.241,3.888a.469.469,0,1,0,.514-.785A16,16,0,0,0,1.2,22.531a.469.469,0,1,0,.868-.355Zm0,0" transform="translate(0 -0.5)" fill="rgba(255,255,255,0)"/>
        <path id="Path_108" data-name="Path 108" d="M55.887,58.952a.469.469,0,0,0-.6.717,15.053,15.053,0,0,1,2.54,20.289,13.246,13.246,0,0,0-13.2-.4.469.469,0,0,0,.444.826,12.312,12.312,0,0,1,11.676.031c-4.3,1.132-12.084,3.183-16.323,4.3a12.6,12.6,0,0,1,3.122-3.367.469.469,0,0,0-.559-.753,13.548,13.548,0,0,0-3.729,4.246,15.173,15.173,0,0,1-6.823-6.337.469.469,0,0,0-.819.457,15.947,15.947,0,0,0,7.672,6.921c.257.107-1.012.365,17.37-4.477,1.464-.395,1.516-.355,1.656-.539A15.99,15.99,0,0,0,55.887,58.952Zm0,0" transform="translate(-29.583 -55.196)" fill="rgba(255,255,255,0)"/>
      </g>
    </g>
    <g id="banner" transform="translate(2194.5 490)">
      <path id="Path_1563" data-name="Path 1563" d="M98.578,321.561a.628.628,0,0,0-.058-.108.624.624,0,0,0-.173-.173.65.65,0,0,0-.108-.057.669.669,0,0,0-.117-.036.615.615,0,0,0-.244,0,.639.639,0,0,0-.225.093.619.619,0,0,0-.095.078.606.606,0,0,0-.077.095.628.628,0,0,0-.058.108.647.647,0,0,0-.036.117.618.618,0,0,0-.012.122.635.635,0,0,0,.012.123.676.676,0,0,0,.036.117.642.642,0,0,0,.058.108.617.617,0,0,0,.077.095.627.627,0,0,0,.442.183.613.613,0,0,0,.123-.012.648.648,0,0,0,.117-.035.633.633,0,0,0,.108-.058.635.635,0,0,0,.173-.173.64.64,0,0,0,.058-.107.685.685,0,0,0,.036-.117.633.633,0,0,0,.012-.123.619.619,0,0,0-.012-.122A.628.628,0,0,0,98.578,321.561Zm0,0" transform="translate(-90.82 -301.101)" fill="#007041"/>
      <path id="Path_1566" data-name="Path 1566" d="M29.451,3.736h-3.5A5.288,5.288,0,0,0,20.906,0H9.171A2.619,2.619,0,0,0,6.555,2.616v.7H5.532a1.435,1.435,0,0,0-1.013.418H2.38a1.88,1.88,0,0,0,0,3.759H4.093V30.083a1.912,1.912,0,0,0,2.747,1.725l6.273-3.027a1.885,1.885,0,0,1,1.653,0l6.2,3.016a1.915,1.915,0,0,0,2.752-1.722V28.594a1.915,1.915,0,0,0,2.462-1.835V7.5h3.267a1.88,1.88,0,0,0,0-3.76ZM4.093,6.246H2.38a.63.63,0,1,1,0-1.259H4.093ZM24.934,26.759a.665.665,0,0,1-.956.6l-.607-.3h0l-5.6-2.72a3.128,3.128,0,0,0-2.743,0L8.759,27.365a.665.665,0,0,1-.954-.6V23.2a.625.625,0,0,0-1.25,0v3.567a1.9,1.9,0,0,0,.9,1.622c.037.023.075.045.113.066l.039.02.077.038.047.02.072.029.051.018.071.023.052.015.071.018.053.011.073.013.052.008.076.008.05,0,.083,0h.082l.075,0,.044,0,.069-.007.046-.007.067-.011.047-.009.066-.015.046-.012.067-.02.043-.014.073-.027.036-.014q.054-.022.107-.048l6.273-3.028a1.885,1.885,0,0,1,1.653,0l5.244,2.55v2.062a.665.665,0,0,1-.956.6l-6.2-3.016a3.128,3.128,0,0,0-2.742,0L6.3,30.682a.665.665,0,0,1-.954-.6V4.757a.181.181,0,0,1,.005-.043s0-.008,0-.012a.185.185,0,0,1,.012-.031.188.188,0,0,1,.167-.1H6.555V18.2a.625.625,0,0,0,1.25,0V2.616A1.368,1.368,0,0,1,9.171,1.25H20.906A4.035,4.035,0,0,1,24.87,4.566c.006.037.013.073.019.11s.006.048.009.072c.006.043.012.085.016.128s0,.062.007.093.006.071.008.106q.005.1.005.2ZM29.451,6.246H26.184V5.279c0-.084,0-.168-.006-.253,0-.009,0-.018,0-.028s0-.008,0-.012h3.275a.63.63,0,0,1,0,1.26Zm0,0" fill="#007041"/>
    </g>
  </g>
</svg>
