<svg xmlns="http://www.w3.org/2000/svg" width="32" height="32" viewBox="0 0 32 32">
  <g id="mouse_pad" transform="translate(-2194 -112)">
    <rect id="Rectangle_1356" data-name="Rectangle 1356" width="32" height="32" transform="translate(2194 112)" fill="rgba(255,255,255,0)"/>
    <g id="mouse" transform="translate(2196.582 124.484)">
      <path id="Path_1534" data-name="Path 1534" d="M1048.995,893.664a.625.625,0,1,0,0-1.25h-1.979a.625.625,0,0,0,0,1.25Zm0,0" transform="translate(-1022.077 -878.774)" fill="#007041"/>
      <path id="Path_1535" data-name="Path 1535" d="M974.9,893.664a.625.625,0,1,0,0-1.25h-.017a.625.625,0,1,0,0,1.25Zm0,0" transform="translate(-951.794 -878.774)" fill="#007041"/>
      <path id="Path_1536" data-name="Path 1536" d="M172.984-8.234H173a.625.625,0,0,0,.625-.625A.625.625,0,0,0,173-9.484h-.017a.625.625,0,0,0-.625.625A.625.625,0,0,0,172.984-8.234Zm0,0" transform="translate(-170.456)" fill="#007041"/>
      <path id="Path_1537" data-name="Path 1537" d="M26.793-9.484H5.043a.625.625,0,0,0-.625.625.625.625,0,0,0,.625.625h21.75a1.376,1.376,0,0,1,1.375,1.375v21a1.377,1.377,0,0,1-1.375,1.375H.043a1.377,1.377,0,0,1-1.375-1.375v-21A1.376,1.376,0,0,1,.043-8.234h.69a.625.625,0,0,0,.625-.625.625.625,0,0,0-.625-.625H.043A2.628,2.628,0,0,0-2.582-6.859v21A2.628,2.628,0,0,0,.043,16.766h26.75a2.628,2.628,0,0,0,2.625-2.625v-21A2.628,2.628,0,0,0,26.793-9.484Zm0,0" fill="#007041"/>
    </g>
  </g>
</svg>
