<svg xmlns="http://www.w3.org/2000/svg" width="32" height="32.353" viewBox="0 0 32 32.353">
  <g id="papel_parede" transform="translate(-390 4845)">
    <rect id="Rectangle_1996" data-name="Rectangle 1996" width="32" height="32" transform="translate(390 -4845)" fill="rgba(255,255,255,0)"/>
    <g id="wallpaper_1_" data-name="wallpaper (1)" transform="translate(436.834 -4859.824) rotate(90)">
      <path id="Path_1649" data-name="Path 1649" d="M98.483,86.25a.407.407,0,0,0-.407.407v.366a.407.407,0,0,0,.814,0v-.366A.407.407,0,0,0,98.483,86.25Z" transform="translate(-55.485 -48.175)" fill="#007041"/>
      <path id="Path_1650" data-name="Path 1650" d="M16.237,15.648H42.6V36.854a.407.407,0,0,0,.814,0V15.241A.407.407,0,0,0,43,14.834H16.237a.407.407,0,0,0,0,.814Z" transform="translate(-0.004)" fill="#007041"/>
      <path id="Path_1651" data-name="Path 1651" d="M16.237,20.751a.407.407,0,0,0,.407-.407v-.312a.407.407,0,0,0-.814,0v.312A.407.407,0,0,0,16.237,20.751Z" transform="translate(-0.004 -3.232)" fill="#007041"/>
      <path id="Path_1652" data-name="Path 1652" d="M44.825,47.226H21.479c-1.319,0-2.352,1.519-2.352,3.458a4.413,4.413,0,0,0,.668,2.434,4.523,4.523,0,0,1-3.157-4.305V26.074a.407.407,0,0,0-.814,0V48.812a5.337,5.337,0,0,0,5.329,5.329.388.388,0,0,0,.085-.017,1.7,1.7,0,0,0,.239.017c1.319,0,2.352-1.519,2.352-3.458a4.254,4.254,0,0,0-.822-2.644H44.824c.834,0,1.539,1.211,1.539,2.644s-.7,2.644-1.539,2.644h-20.8a.407.407,0,1,0,0,.814h20.8c1.319,0,2.352-1.519,2.352-3.458S46.146,47.226,44.825,47.226ZM23.018,50.684c0,1.432-.7,2.644-1.539,2.644s-1.539-1.211-1.539-2.644.7-2.644,1.539-2.644S23.018,49.251,23.018,50.684Z" transform="translate(0 -7.308)" fill="#007041"/>
      <path id="Path_1653" data-name="Path 1653" d="M26.5,26.193a.614.614,0,0,1,.614.614.407.407,0,0,0,.814,0,1.427,1.427,0,1,0-2.855,0v2.354a1.427,1.427,0,0,0,2.855,0,.407.407,0,1,0-.814,0,.614.614,0,1,1-1.228,0V26.807a.614.614,0,0,1,.614-.614Z" transform="translate(-6.236 -7.113)" fill="#007041"/>
      <path id="Path_1654" data-name="Path 1654" d="M43.567,29H41.212a1.427,1.427,0,0,0,0,2.855h2.355a1.427,1.427,0,1,0,0-2.855Zm0,2.041H41.212a.614.614,0,0,1,0-1.228h2.355a.614.614,0,0,1,0,1.228Z" transform="translate(-16.163 -9.556)" fill="#007041"/>
      <path id="Path_1655" data-name="Path 1655" d="M62.04,30.59a1.429,1.429,0,0,0,1.427-1.428V26.807a1.427,1.427,0,1,0-2.855,0v2.354A1.429,1.429,0,0,0,62.04,30.59Zm-.614-3.782a.614.614,0,1,1,1.228,0v2.354a.614.614,0,1,1-1.228,0Z" transform="translate(-30.213 -7.114)" fill="#007041"/>
      <path id="Path_1656" data-name="Path 1656" d="M79.11,29H76.754a1.427,1.427,0,1,0,0,2.855h2.355a1.427,1.427,0,1,0,0-2.855Zm0,2.041H76.754a.614.614,0,0,1,0-1.228h2.355a.614.614,0,1,1,0,1.228Z" transform="translate(-40.139 -9.556)" fill="#007041"/>
      <path id="Path_1657" data-name="Path 1657" d="M85.42,47.277a1.427,1.427,0,1,0-2.855,0v2.355a1.427,1.427,0,1,0,2.855,0Zm-.814,2.355a.614.614,0,0,1-1.228,0V47.277a.614.614,0,0,1,1.228,0Z" transform="translate(-45.022 -20.923)" fill="#007041"/>
      <path id="Path_1658" data-name="Path 1658" d="M64.4,51.51a.407.407,0,0,0,0,.814,1.427,1.427,0,1,0,0-2.855H62.041a1.427,1.427,0,1,0,0,2.855.407.407,0,0,0,0-.814.614.614,0,1,1,0-1.228H64.4a.614.614,0,1,1,0,1.228Z" transform="translate(-30.214 -23.364)" fill="#007041"/>
      <path id="Path_1659" data-name="Path 1659" d="M49.877,47.277a1.427,1.427,0,1,0-2.855,0v2.355a1.427,1.427,0,1,0,2.855,0Zm-.814,2.355a.614.614,0,1,1-1.228,0V47.277a.614.614,0,1,1,1.228,0Z" transform="translate(-21.045 -20.923)" fill="#007041"/>
      <path id="Path_1660" data-name="Path 1660" d="M30.279,50.9a1.429,1.429,0,0,0-1.427-1.427H26.5a1.427,1.427,0,0,0,0,2.855h2.355A1.429,1.429,0,0,0,30.279,50.9Zm-4.4,0a.614.614,0,0,1,.614-.614h2.355a.614.614,0,0,1,0,1.228H26.5A.614.614,0,0,1,25.883,50.9Z" transform="translate(-6.236 -23.364)" fill="#007041"/>
      <path id="Path_1661" data-name="Path 1661" d="M25.069,67.749V70.1a1.427,1.427,0,0,0,2.855,0V67.749a1.427,1.427,0,1,0-2.855,0Zm2.041,0V70.1a.614.614,0,0,1-1.228,0V67.749a.614.614,0,1,1,1.228,0Z" transform="translate(-6.236 -34.733)" fill="#007041"/>
      <path id="Path_1662" data-name="Path 1662" d="M43.567,71.98H41.212a.407.407,0,1,0,0,.814h2.355a1.427,1.427,0,1,0,0-2.855H41.212a1.429,1.429,0,0,0-1.427,1.427.407.407,0,0,0,.814,0,.614.614,0,0,1,.614-.614h2.355a.614.614,0,0,1,0,1.228Z" transform="translate(-16.163 -37.172)" fill="#007041"/>
      <path id="Path_1663" data-name="Path 1663" d="M60.612,67.749V70.1a1.427,1.427,0,0,0,2.855,0V67.749a1.427,1.427,0,1,0-2.855,0Zm2.041,0V70.1a.614.614,0,0,1-1.228,0V67.749a.614.614,0,1,1,1.228,0Z" transform="translate(-30.213 -34.733)" fill="#007041"/>
      <path id="Path_1664" data-name="Path 1664" d="M76.754,72.794h2.355a1.427,1.427,0,0,0,0-2.855H76.754a1.427,1.427,0,0,0,0,2.855Zm0-2.041h2.355a.614.614,0,0,1,0,1.228H76.754a.614.614,0,1,1,0-1.228Z" transform="translate(-40.139 -37.172)" fill="#007041"/>
    </g>
  </g>
</svg>
