<svg xmlns="http://www.w3.org/2000/svg" width="32.353" height="32" viewBox="0 0 32.353 32">
  <g id="papel-fotografico" transform="translate(-441 4803)">
    <rect id="Rectangle_1997" data-name="Rectangle 1997" width="32" height="32" transform="translate(441 -4803)" fill="rgba(255,255,255,0)"/>
    <g id="wallpaper_1_" data-name="wallpaper (1)" transform="translate(489.177 -4756.166) rotate(180)">
      <path id="Path_1649" data-name="Path 1649" d="M98.483,86.25a.407.407,0,0,0-.407.407v.366a.407.407,0,0,0,.814,0v-.366A.407.407,0,0,0,98.483,86.25Z" transform="translate(-55.485 -48.175)" fill="#007041"/>
      <path id="Path_1665" data-name="Path 1665" d="M98.483,86.25a.407.407,0,0,0-.407.407v20.366a.407.407,0,0,0,.814,0V86.657A.407.407,0,0,0,98.483,86.25Z" transform="translate(-106.423 35.997) rotate(-47)" fill="#007041"/>
      <path id="Path_1666" data-name="Path 1666" d="M98.483,86.25a.407.407,0,0,0-.407.407v15.366a.407.407,0,0,0,.814,0V86.657A.407.407,0,0,0,98.483,86.25Z" transform="translate(-108.587 30.991) rotate(-47)" fill="#007041"/>
      <path id="Path_1650" data-name="Path 1650" d="M16.237,15.648H42.6V36.854a.407.407,0,0,0,.814,0V15.241A.407.407,0,0,0,43,14.834H16.237a.407.407,0,0,0,0,.814Z" transform="translate(-0.004)" fill="#007041"/>
      <path id="Path_1651" data-name="Path 1651" d="M16.237,20.751a.407.407,0,0,0,.407-.407v-.312a.407.407,0,0,0-.814,0v.312A.407.407,0,0,0,16.237,20.751Z" transform="translate(-0.004 -3.232)" fill="#007041"/>
      <path id="Path_1652" data-name="Path 1652" d="M44.825,47.226H21.479c-1.319,0-2.352,1.519-2.352,3.458a4.413,4.413,0,0,0,.668,2.434,4.523,4.523,0,0,1-3.157-4.305V26.074a.407.407,0,0,0-.814,0V48.812a5.337,5.337,0,0,0,5.329,5.329.388.388,0,0,0,.085-.017,1.7,1.7,0,0,0,.239.017c1.319,0,2.352-1.519,2.352-3.458a4.254,4.254,0,0,0-.822-2.644H44.824c.834,0,1.539,1.211,1.539,2.644s-.7,2.644-1.539,2.644h-20.8a.407.407,0,1,0,0,.814h20.8c1.319,0,2.352-1.519,2.352-3.458S46.146,47.226,44.825,47.226ZM23.018,50.684c0,1.432-.7,2.644-1.539,2.644s-1.539-1.211-1.539-2.644.7-2.644,1.539-2.644S23.018,49.251,23.018,50.684Z" transform="translate(0 -7.308)" fill="#007041"/>
    </g>
  </g>
</svg>
