<svg xmlns="http://www.w3.org/2000/svg" width="32" height="32" viewBox="0 0 32 32">
  <g id="Pasta" transform="translate(-389 -4)">
    <rect id="Rectangle_110" data-name="Rectangle 110" width="32" height="32" transform="translate(389 4)" fill="rgba(255,255,255,0)"/>
    <g id="flyer_1_" data-name="flyer (1)" transform="translate(389 3.997)">
      <g id="Group_871" data-name="Group 871" transform="translate(0 0.003)">
        <g id="Group_870" data-name="Group 870">
          <path id="Path_1456" data-name="Path 1456" d="M35.192,74.675H45.325a1.107,1.107,0,0,0,1.067-1.14V62.529a1.112,1.112,0,0,0-.906-1.127L35.353,59.755a1.018,1.018,0,0,0-.826.234,1.165,1.165,0,0,0-.4.893V73.534A1.107,1.107,0,0,0,35.192,74.675Zm0-13.793c0-.04.014-.065,0-.072l10.1,1.639a.112.112,0,0,1,.027.08v8.61L41.99,67.387a.533.533,0,0,0-.775-.023l-1.588,1.588L38.26,67.39a.534.534,0,0,0-.4-.182.593.593,0,0,0-.4.177l-2.27,2.522Zm0,10.62,2.661-2.957,3.337,3.815a.534.534,0,0,0,.8-.7l-1.663-1.9,1.238-1.238,3.756,4.226v.79a.124.124,0,0,1-.02.074l-10.086.007a.111.111,0,0,1-.027-.08Z" transform="translate(-31.992 -56.008)" fill="#007041"/>
          <path id="Path_1457" data-name="Path 1457" d="M293.255,85.339l-11.2,1.6A.533.533,0,0,0,282.13,88a.543.543,0,0,0,.076-.005l11.2-1.6a.533.533,0,1,0-.151-1.056Z" transform="translate(-263.997 -80)" fill="#007041"/>
          <path id="Path_1458" data-name="Path 1458" d="M282.136,147.2l.051,0,11.2-1.067a.533.533,0,0,0-.1-1.062l-11.2,1.067a.533.533,0,0,0,.05,1.064Z" transform="translate(-264.003 -136.003)" fill="#007041"/>
          <path id="Path_1459" data-name="Path 1459" d="M293.333,213.335h-11.2a.533.533,0,0,0,0,1.067h11.2a.533.533,0,1,0,0-1.067Z" transform="translate(-264 -200.002)" fill="#007041"/>
          <path id="Path_1460" data-name="Path 1460" d="M293.333,264.535h-11.2a.533.533,0,0,0,0,1.067h11.2a.533.533,0,1,0,0-1.067Z" transform="translate(-264 -248.002)" fill="#007041"/>
          <path id="Path_1461" data-name="Path 1461" d="M31.446.4A1.589,1.589,0,0,0,30.181.019L16,1.994,1.819.019A1.585,1.585,0,0,0,.554.4,1.614,1.614,0,0,0,0,1.614V30.392A1.614,1.614,0,0,0,.554,31.61,1.594,1.594,0,0,0,1.6,32a1.55,1.55,0,0,0,.219-.015L16,30.011l14.181,1.976A1.541,1.541,0,0,0,30.4,32a1.594,1.594,0,0,0,1.046-.392A1.614,1.614,0,0,0,32,30.392V1.614A1.614,1.614,0,0,0,31.446.4ZM1.672,30.931a.517.517,0,0,1-.418-.125.541.541,0,0,1-.187-.414V22.977l8.081-.389a3.7,3.7,0,0,1,3.418,1.9l2.584,4.568Zm13.794-3.484L13.494,23.96a4.783,4.783,0,0,0-4.4-2.437l-8.03.386V1.614A.541.541,0,0,1,1.254,1.2.519.519,0,0,1,1.6,1.07a.56.56,0,0,1,.074.005L15.467,3v24.45Zm15.467,2.945a.541.541,0,0,1-.187.414.514.514,0,0,1-.418.125L16.85,29.053l2.584-4.568a3.7,3.7,0,0,1,3.418-1.9l8.081.389v7.415Zm0-8.483-8.03-.386a4.774,4.774,0,0,0-4.4,2.438l-1.972,3.487V3L30.328,1.075a.523.523,0,0,1,.418.125.541.541,0,0,1,.188.414V21.909Z" transform="translate(0 -0.003)" fill="#007041"/>
          <path id="Path_1462" data-name="Path 1462" d="M146.667,122.668a1.6,1.6,0,1,0-1.6-1.6A1.6,1.6,0,0,0,146.667,122.668Zm0-2.133a.533.533,0,1,1-.533.533A.533.533,0,0,1,146.667,120.535Z" transform="translate(-136 -112.001)" fill="#007041"/>
        </g>
      </g>
    </g>
  </g>
</svg>
