<svg xmlns="http://www.w3.org/2000/svg" width="32" height="32" viewBox="0 0 32 32">
  <g id="pasta_orelha" transform="translate(-800 -166)">
    <g id="adesivo" transform="translate(284 44)">
      <rect id="Rectangle_110" data-name="Rectangle 110" width="32" height="32" transform="translate(516 122)" fill="rgba(255,255,255,0)"/>
      <g id="free-delivery" transform="translate(516 122.5)">
        <path id="Path_107" data-name="Path 107" d="M2.064,22.177A15.057,15.057,0,0,1,24.241,3.888a.469.469,0,1,0,.514-.785A16,16,0,0,0,1.2,22.531a.469.469,0,1,0,.868-.355Zm0,0" transform="translate(0 -0.5)" fill="rgba(255,255,255,0)"/>
        <path id="Path_108" data-name="Path 108" d="M55.887,58.952a.469.469,0,0,0-.6.717,15.053,15.053,0,0,1,2.54,20.289,13.246,13.246,0,0,0-13.2-.4.469.469,0,0,0,.444.826,12.312,12.312,0,0,1,11.676.031c-4.3,1.132-12.084,3.183-16.323,4.3a12.6,12.6,0,0,1,3.122-3.367.469.469,0,0,0-.559-.753,13.548,13.548,0,0,0-3.729,4.246,15.173,15.173,0,0,1-6.823-6.337.469.469,0,0,0-.819.457,15.947,15.947,0,0,0,7.672,6.921c.257.107-1.012.365,17.37-4.477,1.464-.395,1.516-.355,1.656-.539A15.99,15.99,0,0,0,55.887,58.952Zm0,0" transform="translate(-29.583 -55.196)" fill="rgba(255,255,255,0)"/>
      </g>
    </g>
    <path id="folder" d="M30.661,14.033H28.8V10.69a1.459,1.459,0,0,0-1.457-1.457h-13.2L11.475,5.5H1.457A1.459,1.459,0,0,0,0,6.957v23.3H0a1.362,1.362,0,0,0,1.365,1.377H25.239a1.354,1.354,0,0,0,1.307-.967L32,15.713v-.094A1.429,1.429,0,0,0,30.661,14.033ZM1.067,6.957a.391.391,0,0,1,.39-.39h9.468L13.592,10.3h13.75a.391.391,0,0,1,.39.39v3.343H6.79A1.367,1.367,0,0,0,5.484,15L1.067,27.046ZM25.53,30.344a.3.3,0,0,1-.291.222H1.368a.294.294,0,0,1-.239-.118.289.289,0,0,1-.066-.218L6.5,15.322a.3.3,0,0,1,.291-.222H30.661c.2,0,.254.291.268.437Z" transform="translate(800 163.5)" fill="#007041"/>
  </g>
</svg>
