<svg xmlns="http://www.w3.org/2000/svg" width="32" height="32" viewBox="0 0 32 32">
  <g id="photobook" transform="translate(-1316 -382)">
    <g id="adesivo" transform="translate(800 260)">
      <rect id="Rectangle_110" data-name="Rectangle 110" width="32" height="32" transform="translate(516 122)" fill="rgba(255,255,255,0)"/>
      <g id="free-delivery" transform="translate(516 122.5)">
        <path id="Path_107" data-name="Path 107" d="M2.064,22.177A15.057,15.057,0,0,1,24.241,3.888a.469.469,0,1,0,.514-.785A16,16,0,0,0,1.2,22.531a.469.469,0,1,0,.868-.355Zm0,0" transform="translate(0 -0.5)" fill="rgba(255,255,255,0)"/>
        <path id="Path_108" data-name="Path 108" d="M55.887,58.952a.469.469,0,0,0-.6.717,15.053,15.053,0,0,1,2.54,20.289,13.246,13.246,0,0,0-13.2-.4.469.469,0,0,0,.444.826,12.312,12.312,0,0,1,11.676.031c-4.3,1.132-12.084,3.183-16.323,4.3a12.6,12.6,0,0,1,3.122-3.367.469.469,0,0,0-.559-.753,13.548,13.548,0,0,0-3.729,4.246,15.173,15.173,0,0,1-6.823-6.337.469.469,0,0,0-.819.457,15.947,15.947,0,0,0,7.672,6.921c.257.107-1.012.365,17.37-4.477,1.464-.395,1.516-.355,1.656-.539A15.99,15.99,0,0,0,55.887,58.952Zm0,0" transform="translate(-29.583 -55.196)" fill="rgba(255,255,255,0)"/>
      </g>
    </g>
    <g id="photo-album" transform="translate(1316 302.208)">
      <g id="Group_925" data-name="Group 925" transform="translate(0 85.792)">
        <g id="Group_924" data-name="Group 924">
          <path id="Path_1510" data-name="Path 1510" d="M301.381,121.655h0a1.217,1.217,0,0,0-1.216-1.216H293.1a1.217,1.217,0,0,0-1.216,1.216v3.084a1.217,1.217,0,0,0,1.216,1.216h7.061a1.217,1.217,0,0,0,1.216-1.216Zm-1.216,3.362H293.1a.278.278,0,0,1-.278-.278v-3.084a.278.278,0,0,1,.278-.278h7.061a.278.278,0,0,1,.278.278v3.084h0A.278.278,0,0,1,300.165,125.017Z" transform="translate(-273.646 -118.274)" fill="#007041"/>
          <path id="Path_1511" data-name="Path 1511" d="M293.1,236.2a1.217,1.217,0,0,0-1.216,1.216V240.5a1.217,1.217,0,0,0,1.216,1.216h7.061a1.217,1.217,0,0,0,1.216-1.216v-3.084a1.217,1.217,0,0,0-1.216-1.216Zm7.339,1.216V240.5h0a.278.278,0,0,1-.278.278H293.1a.278.278,0,0,1-.278-.278v-3.084a.278.278,0,0,1,.278-.278h7.061A.278.278,0,0,1,300.444,237.417Z" transform="translate(-273.646 -226.8)" fill="#007041"/>
          <path id="Path_1512" data-name="Path 1512" d="M76.512,236.2H69.451a1.217,1.217,0,0,0-1.216,1.216V240.5a1.217,1.217,0,0,0,1.216,1.216h7.061a1.217,1.217,0,0,0,1.216-1.216v-3.084A1.217,1.217,0,0,0,76.512,236.2Zm0,4.578H69.451a.278.278,0,0,1-.278-.278v-3.084a.278.278,0,0,1,.278-.278h7.061a.278.278,0,0,1,.278.278V240.5h0A.278.278,0,0,1,76.512,240.779Z" transform="translate(-63.97 -226.8)" fill="#007041"/>
          <path id="Path_1513" data-name="Path 1513" d="M76.512,120.438H69.451a1.217,1.217,0,0,0-1.216,1.216v3.084a1.217,1.217,0,0,0,1.216,1.216h7.061a1.217,1.217,0,0,0,1.216-1.216v-3.084A1.217,1.217,0,0,0,76.512,120.438Zm0,4.578H69.451a.278.278,0,0,1-.278-.278v-3.084a.278.278,0,0,1,.278-.278h7.061a.278.278,0,0,1,.278.278v3.084h0A.278.278,0,0,1,76.512,125.016Z" transform="translate(-63.97 -118.273)" fill="#007041"/>
          <path id="Path_1514" data-name="Path 1514" d="M30.447,88.269v-.53A1.949,1.949,0,0,0,28.5,85.792H16.553a1.014,1.014,0,0,0-.553.164,1.014,1.014,0,0,0-.553-.164H3.5a1.949,1.949,0,0,0-1.947,1.947v.53A2.111,2.111,0,0,0,0,90.3v14.653a2.113,2.113,0,0,0,2.111,2.111H15.386a1.076,1.076,0,0,0,.614-.192,1.076,1.076,0,0,0,.614.192h5.527a.469.469,0,0,0,0-.937H16.614a.146.146,0,0,1-.145-.145v-.951c.028,0,.056,0,.084,0H28.5a1.949,1.949,0,0,0,1.947-1.947V92.777a.469.469,0,0,0-.937,0v8.15a1.01,1.01,0,0,1-1.009,1.009H16.553a.084.084,0,0,1-.084-.084V86.813a.084.084,0,0,1,.084-.084H28.5a1.01,1.01,0,0,1,1.009,1.009v2.428a.469.469,0,0,0,.938,0v-.894a1.173,1.173,0,0,1,.615,1.032v14.653a1.175,1.175,0,0,1-1.174,1.174H24.975a.469.469,0,0,0,0,.938h4.914A2.113,2.113,0,0,0,32,104.957V90.3A2.111,2.111,0,0,0,30.447,88.269ZM15.386,106.131H2.111a1.175,1.175,0,0,1-1.174-1.174V90.3a1.173,1.173,0,0,1,.615-1.032v13.819A1.949,1.949,0,0,0,3.5,105.039H15.447c.028,0,.056,0,.084,0v.951h0A.146.146,0,0,1,15.386,106.131Zm.145-4.279a.084.084,0,0,1-.084.084H7.006a.469.469,0,0,0,0,.938h8.442c.028,0,.056,0,.084,0v1.148a.084.084,0,0,1-.084.084H3.5a1.01,1.01,0,0,1-1.009-1.009v-.5a1.935,1.935,0,0,0,1.009.283h.734a.469.469,0,0,0,0-.937H3.5a1.01,1.01,0,0,1-1.009-1.009V87.739A1.01,1.01,0,0,1,3.5,86.73H15.447a.084.084,0,0,1,.084.084Zm1.021,1.021H28.5a1.936,1.936,0,0,0,1.009-.283v.5A1.01,1.01,0,0,1,28.5,104.1H16.553a.084.084,0,0,1-.084-.084v-1.148C16.5,102.871,16.524,102.873,16.553,102.873Z" transform="translate(0 -85.792)" fill="#007041"/>
        </g>
      </g>
    </g>
  </g>
</svg>
