<svg xmlns="http://www.w3.org/2000/svg" width="32" height="32" viewBox="0 0 32 32">
  <g id="guardanapo" transform="translate(-800 -490)">
    <g id="adesivo" transform="translate(284 368)">
      <rect id="Rectangle_110" data-name="Rectangle 110" width="32" height="32" transform="translate(516 122)" fill="rgba(255,255,255,0)"/>
      <g id="free-delivery" transform="translate(516 122.5)">
        <path id="Path_107" data-name="Path 107" d="M2.064,22.177A15.057,15.057,0,0,1,24.241,3.888a.469.469,0,1,0,.514-.785A16,16,0,0,0,1.2,22.531a.469.469,0,1,0,.868-.355Zm0,0" transform="translate(0 -0.5)" fill="rgba(255,255,255,0)"/>
        <path id="Path_108" data-name="Path 108" d="M55.887,58.952a.469.469,0,0,0-.6.717,15.053,15.053,0,0,1,2.54,20.289,13.246,13.246,0,0,0-13.2-.4.469.469,0,0,0,.444.826,12.312,12.312,0,0,1,11.676.031c-4.3,1.132-12.084,3.183-16.323,4.3a12.6,12.6,0,0,1,3.122-3.367.469.469,0,0,0-.559-.753,13.548,13.548,0,0,0-3.729,4.246,15.173,15.173,0,0,1-6.823-6.337.469.469,0,0,0-.819.457,15.947,15.947,0,0,0,7.672,6.921c.257.107-1.012.365,17.37-4.477,1.464-.395,1.516-.355,1.656-.539A15.99,15.99,0,0,0,55.887,58.952Zm0,0" transform="translate(-29.583 -55.196)" fill="rgba(255,255,255,0)"/>
      </g>
    </g>
    <g id="napkin" transform="translate(800 467.113)">
      <g id="Group_983" data-name="Group 983" transform="translate(0 22.887)">
        <g id="Group_982" data-name="Group 982">
          <rect id="Rectangle_1936" data-name="Rectangle 1936" width="0.937" height="0.937" transform="translate(25.81 13.588)" fill="#007041"/>
          <rect id="Rectangle_1937" data-name="Rectangle 1937" width="0.937" height="0.937" transform="translate(25.81 12.026)" fill="#007041"/>
          <rect id="Rectangle_1938" data-name="Rectangle 1938" width="0.937" height="0.937" transform="translate(25.81 15.151)" fill="#007041"/>
          <rect id="Rectangle_1939" data-name="Rectangle 1939" width="0.937" height="0.937" transform="translate(25.81 16.713)" fill="#007041"/>
          <path id="Path_1603" data-name="Path 1603" d="M436.951,151.828l-1.945,1.945h-2.058v.938h2.447l2.494-2.494v-19.8h-.937Z" transform="translate(-405.889 -125.571)" fill="#007041"/>
          <path id="Path_1604" data-name="Path 1604" d="M314.209,26.933V22.887l-9.8,9.9.666.659,8.193-8.283V48.837h.937V28.231l2.24-2.144V28.8h.937v-4.9Z" transform="translate(-285.386 -22.887)" fill="#007041"/>
          <path id="Path_1605" data-name="Path 1605" d="M19.033,192.685l-.667-.659L0,210.594H26.122v-.937H2.246Z" transform="translate(0 -181.455)" fill="#007041"/>
          <rect id="Rectangle_1940" data-name="Rectangle 1940" width="0.937" height="8.903" transform="translate(14.516 18.444) rotate(-135.385)" fill="#007041"/>
          <rect id="Rectangle_1941" data-name="Rectangle 1941" width="0.937" height="0.937" transform="translate(21.636 9.889) rotate(-45.385)" fill="#007041"/>
          <rect id="Rectangle_1942" data-name="Rectangle 1942" width="0.937" height="0.937" transform="matrix(-0.712, -0.702, 0.702, -0.712, 21.209, 11.658)" fill="#007041"/>
          <rect id="Rectangle_1943" data-name="Rectangle 1943" width="8.75" height="0.937" transform="translate(6.251 25.981)" fill="#007041"/>
          <rect id="Rectangle_1944" data-name="Rectangle 1944" width="0.937" height="0.937" transform="translate(29.469 13.253)" fill="#007041"/>
          <rect id="Rectangle_1945" data-name="Rectangle 1945" width="0.937" height="0.937" transform="translate(29.469 11.691)" fill="#007041"/>
          <rect id="Rectangle_1946" data-name="Rectangle 1946" width="0.937" height="4.708" transform="translate(29.469 6.357)" fill="#007041"/>
          <path id="Path_1606" data-name="Path 1606" d="M375.076,408.637h3v-3h-3Zm.938-2.059h1.122V407.7h-1.122Z" transform="translate(-351.634 -381.718)" fill="#007041"/>
          <path id="Path_1607" data-name="Path 1607" d="M317,408.637h3v-3h-3Zm.937-2.059h1.122V407.7h-1.122Z" transform="translate(-297.187 -381.718)" fill="#007041"/>
        </g>
      </g>
    </g>
  </g>
</svg>
