<svg xmlns="http://www.w3.org/2000/svg" width="32" height="32" viewBox="0 0 32 32">
  <g id="porta_copa" transform="translate(-2194 -166)">
    <g id="adesivo" transform="translate(1678 44)">
      <rect id="Rectangle_110" data-name="Rectangle 110" width="32" height="32" transform="translate(516 122)" fill="rgba(255,255,255,0)"/>
      <g id="free-delivery" transform="translate(516 122.5)">
        <path id="Path_107" data-name="Path 107" d="M2.064,22.177A15.057,15.057,0,0,1,24.241,3.888a.469.469,0,1,0,.514-.785A16,16,0,0,0,1.2,22.531a.469.469,0,1,0,.868-.355Zm0,0" transform="translate(0 -0.5)" fill="rgba(255,255,255,0)"/>
        <path id="Path_108" data-name="Path 108" d="M55.887,58.952a.469.469,0,0,0-.6.717,15.053,15.053,0,0,1,2.54,20.289,13.246,13.246,0,0,0-13.2-.4.469.469,0,0,0,.444.826,12.312,12.312,0,0,1,11.676.031c-4.3,1.132-12.084,3.183-16.323,4.3a12.6,12.6,0,0,1,3.122-3.367.469.469,0,0,0-.559-.753,13.548,13.548,0,0,0-3.729,4.246,15.173,15.173,0,0,1-6.823-6.337.469.469,0,0,0-.819.457,15.947,15.947,0,0,0,7.672,6.921c.257.107-1.012.365,17.37-4.477,1.464-.395,1.516-.355,1.656-.539A15.99,15.99,0,0,0,55.887,58.952Zm0,0" transform="translate(-29.583 -55.196)" fill="rgba(255,255,255,0)"/>
      </g>
    </g>
    <g id="can-of-beer" transform="translate(2066 38)">
      <path id="Path_1558" data-name="Path 1558" d="M160,144a16,16,0,1,0-16,16A16.018,16.018,0,0,0,160,144Zm-16,13.681A13.681,13.681,0,1,1,157.681,144,13.7,13.7,0,0,1,144,157.681Z" fill="#007041"/>
      <path id="Path_1559" data-name="Path 1559" d="M196.707,184.34,184.34,196.707a1.159,1.159,0,0,0,1.64,1.64l12.367-12.367a1.159,1.159,0,1,0-1.64-1.64Z" transform="translate(-47.343 -47.344)" fill="#007041"/>
      <path id="Path_1560" data-name="Path 1560" d="M185.16,191.267a1.156,1.156,0,0,0,.82-.339l4.947-4.947a1.159,1.159,0,0,0-1.64-1.64l-4.947,4.947a1.159,1.159,0,0,0,.82,1.979Z" transform="translate(-47.343 -47.344)" fill="#007041"/>
      <path id="Path_1561" data-name="Path 1561" d="M237.287,232.34l-4.947,4.947a1.159,1.159,0,0,0,1.64,1.64l4.947-4.947a1.159,1.159,0,1,0-1.64-1.64Z" transform="translate(-87.923 -87.923)" fill="#007041"/>
    </g>
  </g>
</svg>
