<svg xmlns="http://www.w3.org/2000/svg" width="32" height="32" viewBox="0 0 32 32">
  <g id="Group_1062" data-name="Group 1062" transform="translate(-1316 -436)">
    <g id="adesivo" transform="translate(800 314)">
      <rect id="Rectangle_110" data-name="Rectangle 110" width="32" height="32" transform="translate(516 122)" fill="rgba(255,255,255,0)"/>
      <g id="free-delivery" transform="translate(516 122.5)">
        <path id="Path_107" data-name="Path 107" d="M2.064,22.177A15.057,15.057,0,0,1,24.241,3.888a.469.469,0,1,0,.514-.785A16,16,0,0,0,1.2,22.531a.469.469,0,1,0,.868-.355Zm0,0" transform="translate(0 -0.5)" fill="rgba(255,255,255,0)"/>
        <path id="Path_108" data-name="Path 108" d="M55.887,58.952a.469.469,0,0,0-.6.717,15.053,15.053,0,0,1,2.54,20.289,13.246,13.246,0,0,0-13.2-.4.469.469,0,0,0,.444.826,12.312,12.312,0,0,1,11.676.031c-4.3,1.132-12.084,3.183-16.323,4.3a12.6,12.6,0,0,1,3.122-3.367.469.469,0,0,0-.559-.753,13.548,13.548,0,0,0-3.729,4.246,15.173,15.173,0,0,1-6.823-6.337.469.469,0,0,0-.819.457,15.947,15.947,0,0,0,7.672,6.921c.257.107-1.012.365,17.37-4.477,1.464-.395,1.516-.355,1.656-.539A15.99,15.99,0,0,0,55.887,58.952Zm0,0" transform="translate(-29.583 -55.196)" fill="rgba(255,255,255,0)"/>
      </g>
    </g>
    <g id="door-hanger" transform="translate(1196 436)">
      <g id="Group_929" data-name="Group 929" transform="translate(128)">
        <g id="Group_928" data-name="Group 928">
          <path id="Path_1568" data-name="Path 1568" d="M136,0a8.009,8.009,0,0,0-8,8v.667a2,2,0,0,0,4,0V8a4,4,0,0,1,8,0c0,1.62-1.6,2.94-4.878,4.035-.415.138-.95.276-1.533.428C131.1,13.108,128,13.911,128,16V29.333A2.669,2.669,0,0,0,130.667,32h10.667A2.669,2.669,0,0,0,144,29.333V8A8.009,8.009,0,0,0,136,0Zm6.667,29.333a1.335,1.335,0,0,1-1.333,1.333H130.667a1.335,1.335,0,0,1-1.333-1.333V16c0-1.057,2.874-1.8,4.59-2.247.617-.16,1.181-.307,1.62-.454,1.432-.477,5.789-1.93,5.789-5.3a5.333,5.333,0,0,0-10.667,0v.667a.667.667,0,0,1-1.333,0V8a6.667,6.667,0,1,1,13.333,0Z" transform="translate(-128)" fill="#007041"/>
          <path id="Path_1569" data-name="Path 1569" d="M187.778,298.667a2.5,2.5,0,0,0-1.778.918,2.5,2.5,0,0,0-1.778-.918,3.041,3.041,0,0,0-2.889,3.167,3.315,3.315,0,0,0,.822,2.213l3.349,3.732a.667.667,0,0,0,.992,0l3.351-3.735a3.311,3.311,0,0,0,.82-2.21A3.041,3.041,0,0,0,187.778,298.667Zm1.075,4.489L186,306.336l-2.851-3.177a1.985,1.985,0,0,1-.482-1.325A1.714,1.714,0,0,1,184.222,300c.331,0,.8.4,1.222,1.034a.692.692,0,0,0,1.112,0c.422-.638.891-1.034,1.222-1.034a1.714,1.714,0,0,1,1.555,1.833A1.981,1.981,0,0,1,188.853,303.156Z" transform="translate(-178 -280)" fill="#007041"/>
        </g>
      </g>
    </g>
  </g>
</svg>
