<svg xmlns="http://www.w3.org/2000/svg" width="32" height="32" viewBox="0 0 32 32">
  <g id="postal" transform="translate(-389 -112)">
    <rect id="Rectangle_110" data-name="Rectangle 110" width="32" height="32" transform="translate(389 112)" fill="rgba(255,255,255,0)"/>
    <g id="letter" transform="translate(389 108.5)">
      <path id="Path_1463" data-name="Path 1463" d="M0,8.5V31.433H32V8.5ZM30.933,30.367H1.067V9.567H30.933Z" fill="#007041"/>
      <path id="Path_1464" data-name="Path 1464" d="M48.333,15.5H43v5.333h5.333Zm-1.067,4.267h-3.2v-3.2h3.2Z" transform="translate(-20.067 -3.267)" fill="#007041"/>
      <path id="Path_1465" data-name="Path 1465" d="M7.533,20.567H18.2a.533.533,0,0,0,0-1.067H7.533a.533.533,0,1,0,0,1.067Z" transform="translate(-3.267 -5.133)" fill="#007041"/>
      <path id="Path_1466" data-name="Path 1466" d="M7.533,25.567H18.2a.533.533,0,0,0,0-1.067H7.533a.533.533,0,1,0,0,1.067Z" transform="translate(-3.267 -7.467)" fill="#007041"/>
      <path id="Path_1467" data-name="Path 1467" d="M7.533,15.567H11.8a.533.533,0,1,0,0-1.067H7.533a.533.533,0,1,0,0,1.067Z" transform="translate(-3.267 -2.8)" fill="#007041"/>
      <path id="Path_1468" data-name="Path 1468" d="M23,36.7a3.2,3.2,0,1,0,3.2-3.2A3.2,3.2,0,0,0,23,36.7Zm5.333,0A2.133,2.133,0,1,1,26.2,34.567,2.135,2.135,0,0,1,28.333,36.7Z" transform="translate(-10.733 -11.667)" fill="#007041"/>
      <path id="Path_1469" data-name="Path 1469" d="M36.944,35.907a.818.818,0,0,1,1.313,0,1.866,1.866,0,0,0,2.954,0,.818.818,0,0,1,1.313,0,1.866,1.866,0,0,0,2.954,0,.533.533,0,1,0-.821-.681.818.818,0,0,1-1.313,0,1.866,1.866,0,0,0-2.955,0,.818.818,0,0,1-1.313,0,1.866,1.866,0,0,0-2.954,0,.534.534,0,0,0,.821.682Z" transform="translate(-16.8 -12.133)" fill="#007041"/>
      <path id="Path_1470" data-name="Path 1470" d="M36.944,41.907a.818.818,0,0,1,1.313,0,1.866,1.866,0,0,0,2.954,0,.818.818,0,0,1,1.313,0,1.866,1.866,0,0,0,2.954,0,.533.533,0,1,0-.821-.681.818.818,0,0,1-1.313,0,1.866,1.866,0,0,0-2.955,0,.818.818,0,0,1-1.313,0,1.866,1.866,0,0,0-2.954,0,.534.534,0,0,0,.821.682Z" transform="translate(-16.8 -14.933)" fill="#007041"/>
    </g>
  </g>
</svg>
