<svg xmlns="http://www.w3.org/2000/svg" width="32" height="32" viewBox="0 0 32 32">
  <g id="revista" transform="translate(-389 -166)">
    <g id="adesivo" transform="translate(-127 44)">
      <rect id="Rectangle_110" data-name="Rectangle 110" width="32" height="32" transform="translate(516 122)" fill="rgba(255,255,255,0)"/>
      <g id="free-delivery" transform="translate(516 122.5)">
        <path id="Path_107" data-name="Path 107" d="M2.064,22.177A15.057,15.057,0,0,1,24.241,3.888a.469.469,0,1,0,.514-.785A16,16,0,0,0,1.2,22.531a.469.469,0,1,0,.868-.355Zm0,0" transform="translate(0 -0.5)" fill="rgba(255,255,255,0)"/>
        <path id="Path_108" data-name="Path 108" d="M55.887,58.952a.469.469,0,0,0-.6.717,15.053,15.053,0,0,1,2.54,20.289,13.246,13.246,0,0,0-13.2-.4.469.469,0,0,0,.444.826,12.312,12.312,0,0,1,11.676.031c-4.3,1.132-12.084,3.183-16.323,4.3a12.6,12.6,0,0,1,3.122-3.367.469.469,0,0,0-.559-.753,13.548,13.548,0,0,0-3.729,4.246,15.173,15.173,0,0,1-6.823-6.337.469.469,0,0,0-.819.457,15.947,15.947,0,0,0,7.672,6.921c.257.107-1.012.365,17.37-4.477,1.464-.395,1.516-.355,1.656-.539A15.99,15.99,0,0,0,55.887,58.952Zm0,0" transform="translate(-29.583 -55.196)" fill="rgba(255,255,255,0)"/>
      </g>
    </g>
    <g id="open-magazine" transform="translate(389 126.874)">
      <path id="Path_1449" data-name="Path 1449" d="M226.032,140.548V125.136a.516.516,0,1,0-1.032,0v15.412a.516.516,0,0,0,1.032,0Z" transform="translate(-209.516 -76.817)" fill="#007041"/>
      <path id="Path_1450" data-name="Path 1450" d="M31.484,44.442a13.392,13.392,0,0,1-3.89-.969,18.689,18.689,0,0,0-6.033-1.347A6.166,6.166,0,0,0,16,45.11a6.166,6.166,0,0,0-5.561-2.984,18.689,18.689,0,0,0-6.033,1.347,13.394,13.394,0,0,1-3.891.969A.516.516,0,0,0,0,44.958V65.747a.516.516,0,0,0,.516.516,14,14,0,0,0,4.228-1.026,17.9,17.9,0,0,1,5.695-1.29A5.256,5.256,0,0,1,14.5,65.609a.516.516,0,0,0,.762-.7,6.29,6.29,0,0,0-4.825-2,18.689,18.689,0,0,0-6.033,1.347,17.224,17.224,0,0,1-3.374.938V45.449a17.07,17.07,0,0,0,3.712-1,17.9,17.9,0,0,1,5.695-1.29,5.092,5.092,0,0,1,5.067,3.3.516.516,0,0,0,.987,0,5.141,5.141,0,0,1,5.067-3.3,17.9,17.9,0,0,1,5.695,1.29,17.067,17.067,0,0,0,3.712,1V65.2a17.228,17.228,0,0,1-3.374-.938,18.689,18.689,0,0,0-6.033-1.347,6.29,6.29,0,0,0-4.825,2,.516.516,0,1,0,.762.7,5.256,5.256,0,0,1,4.063-1.662,17.9,17.9,0,0,1,5.695,1.29,14,14,0,0,0,4.228,1.026A.516.516,0,0,0,32,65.747V44.958A.516.516,0,0,0,31.484,44.442Z" fill="#007041"/>
      <path id="Path_1451" data-name="Path 1451" d="M31.484,376.534a13.392,13.392,0,0,1-3.89-.969,18.689,18.689,0,0,0-6.033-1.347,6.324,6.324,0,0,0-4.666,1.83H15.1a6.324,6.324,0,0,0-4.665-1.83,18.689,18.689,0,0,0-6.033,1.347,13.392,13.392,0,0,1-3.89.969.516.516,0,1,0,0,1.032,14,14,0,0,0,4.228-1.026,17.9,17.9,0,0,1,5.695-1.29,5.256,5.256,0,0,1,4.063,1.662.516.516,0,0,0,.381.168h2.233a.516.516,0,0,0,.381-.168,5.256,5.256,0,0,1,4.063-1.662,17.9,17.9,0,0,1,5.695,1.29,14,14,0,0,0,4.228,1.026.516.516,0,0,0,0-1.032Z" transform="translate(0 -309.238)" fill="#007041"/>
    </g>
  </g>
</svg>
