<svg xmlns="http://www.w3.org/2000/svg" width="32" height="32" viewBox="0 0 32 32">
  <g id="sacola" transform="translate(-1316 -274)">
    <g id="adesivo" transform="translate(800 152)">
      <rect id="Rectangle_110" data-name="Rectangle 110" width="32" height="32" transform="translate(516 122)" fill="rgba(255,255,255,0)"/>
      <g id="free-delivery" transform="translate(516 122.5)">
        <path id="Path_107" data-name="Path 107" d="M2.064,22.177A15.057,15.057,0,0,1,24.241,3.888a.469.469,0,1,0,.514-.785A16,16,0,0,0,1.2,22.531a.469.469,0,1,0,.868-.355Zm0,0" transform="translate(0 -0.5)" fill="rgba(255,255,255,0)"/>
        <path id="Path_108" data-name="Path 108" d="M55.887,58.952a.469.469,0,0,0-.6.717,15.053,15.053,0,0,1,2.54,20.289,13.246,13.246,0,0,0-13.2-.4.469.469,0,0,0,.444.826,12.312,12.312,0,0,1,11.676.031c-4.3,1.132-12.084,3.183-16.323,4.3a12.6,12.6,0,0,1,3.122-3.367.469.469,0,0,0-.559-.753,13.548,13.548,0,0,0-3.729,4.246,15.173,15.173,0,0,1-6.823-6.337.469.469,0,0,0-.819.457,15.947,15.947,0,0,0,7.672,6.921c.257.107-1.012.365,17.37-4.477,1.464-.395,1.516-.355,1.656-.539A15.99,15.99,0,0,0,55.887,58.952Zm0,0" transform="translate(-29.583 -55.196)" fill="rgba(255,255,255,0)"/>
      </g>
    </g>
    <g id="paper-bag" transform="translate(1318 274)">
      <path id="Path_1515" data-name="Path 1515" d="M362.254,251a.625.625,0,1,0,.442.183A.631.631,0,0,0,362.254,251Zm0,0" transform="translate(-339.027 -235.313)" fill="#007041"/>
      <path id="Path_1516" data-name="Path 1516" d="M28.3,5.611A.622.622,0,0,0,28,5.539H22.354A6.373,6.373,0,0,0,10.467,3.273,6.388,6.388,0,0,0,6.919,5.538H5.4a.624.624,0,0,0-.347.105L.286,8.826A.624.624,0,0,0,0,9.351V31.375a.4.4,0,0,0,0,.04A.625.625,0,0,0,.625,32h22.6a.622.622,0,0,0,.361-.115l4.738-3.165a.625.625,0,0,0,.3-.534V6.163A.625.625,0,0,0,28.3,5.611ZM23.038,8.726H18.256A6.323,6.323,0,0,0,17.7,6.788H25.94ZM16.285,6.788A5.09,5.09,0,0,1,17,8.726H6.857a5.091,5.091,0,0,1,.711-1.938ZM11.926,4.355A5.1,5.1,0,0,1,15.2,5.538h-4.22a5.068,5.068,0,0,1,.331-1.144A5.164,5.164,0,0,1,11.926,4.355Zm4.108-3.1A5.14,5.14,0,0,1,21.09,5.538H16.933a6.368,6.368,0,0,0-4.841-2.431A5.127,5.127,0,0,1,16.034,1.25ZM9.858,4.792a6.256,6.256,0,0,0-.144.746H8.655A5.13,5.13,0,0,1,9.858,4.792Zm-4.269,2h.559A6.323,6.323,0,0,0,5.6,8.726H2.687ZM27.376,27.851l-3.524,2.354V19.063a.625.625,0,0,0-1.25,0V30.75H4.75V24.967a.625.625,0,0,0-1.25,0V30.75H1.25V9.976h4.3v2.317a.625.625,0,0,0,1.25,0V9.976h10.25v2.317a.625.625,0,0,0,1.25,0V9.976h4.3v2.959a.625.625,0,0,0,1.25,0V9.685l3.524-2.354Zm0,0" fill="#007041"/>
      <path id="Path_1517" data-name="Path 1517" d="M56.633,345.781a.625.625,0,1,0,.442.183A.63.63,0,0,0,56.633,345.781Zm0,0" transform="translate(-52.507 -324.17)" fill="#007041"/>
    </g>
  </g>
</svg>
