<svg xmlns="http://www.w3.org/2000/svg" width="32" height="32" viewBox="0 0 32 32">
  <g id="cupckake" transform="translate(-1316 -112)">
    <rect id="Rectangle_1350" data-name="Rectangle 1350" width="32" height="32" transform="translate(1316 112)" fill="rgba(255,255,255,0)"/>
    <g id="muffin" transform="translate(1316.003 111.992)">
      <path id="Path_1518" data-name="Path 1518" d="M232.008,288.008h1.067v10.133h-1.067Zm0,0" transform="translate(-216.544 -268.801)" fill="#007041"/>
      <path id="Path_1519" data-name="Path 1519" d="M176.02,287.642l1.066-.056.533,10.133-1.066.056Zm0,0" transform="translate(-164.288 -268.407)" fill="#007041"/>
      <path id="Path_1520" data-name="Path 1520" d="M112.105,286.924l1.053-.166,1.6,10.133-1.053.166Zm0,0" transform="translate(-104.635 -267.634)" fill="#007041"/>
      <path id="Path_1521" data-name="Path 1521" d="M280.012,297.723l.535-10.133,1.066.057-.535,10.133Zm0,0" transform="translate(-261.348 -268.411)" fill="#007041"/>
      <path id="Path_1522" data-name="Path 1522" d="M328.078,296.9l1.6-10.132,1.053.167-1.6,10.132Zm0,0" transform="translate(-306.21 -267.641)" fill="#007041"/>
      <path id="Path_1523" data-name="Path 1523" d="M82.674,168.008H81.608a1.6,1.6,0,1,0,0,3.2h1.067a1.6,1.6,0,1,0,0-3.2Zm0,2.133H81.608a.533.533,0,0,1,0-1.067h1.067a.533.533,0,1,1,0,1.067Zm0,0" transform="translate(-74.677 -156.8)" fill="#007041"/>
      <path id="Path_1524" data-name="Path 1524" d="M201.225,152.737l-.836.836A1.715,1.715,0,1,0,202.814,156l.836-.836a1.715,1.715,0,0,0,0-2.425A1.756,1.756,0,0,0,201.225,152.737Zm1.671,1.671-.836.836a.663.663,0,0,1-.917,0,.649.649,0,0,1,0-.917l.836-.836a.649.649,0,0,1,.917.917Zm0,0" transform="translate(-186.556 -142.094)" fill="#007041"/>
      <path id="Path_1525" data-name="Path 1525" d="M156.274,50.785a1.7,1.7,0,0,0-.5-1.212l-.836-.836a1.756,1.756,0,0,0-2.425,0,1.715,1.715,0,0,0,0,2.425l.836.836a1.715,1.715,0,0,0,2.928-1.213Zm-1.257.459a.663.663,0,0,1-.917,0l-.836-.836a.649.649,0,0,1,.917-.917l.836.836A.649.649,0,0,1,155.018,51.245Zm0,0" transform="translate(-141.877 -45.027)" fill="#007041"/>
      <path id="Path_1526" data-name="Path 1526" d="M31.986,13.021a4.881,4.881,0,0,0-4.8-4.48A9.078,9.078,0,0,0,18.13.008H13.864A9.078,9.078,0,0,0,4.813,8.541a4.881,4.881,0,0,0-4.8,4.48,4.782,4.782,0,0,0,3.234,4.853L6.129,31.58A.533.533,0,0,0,6.652,32H25.342a.533.533,0,0,0,.522-.423l2.887-13.706A4.782,4.782,0,0,0,31.986,13.021ZM24.91,30.94H7.084l-2.7-12.8H27.606Zm5.013-15.047A3.7,3.7,0,0,1,27.2,17.074H4.8a3.734,3.734,0,0,1-3.725-3.983A3.818,3.818,0,0,1,4.944,9.607h.387a.533.533,0,0,0,.533-.533,8.008,8.008,0,0,1,8-8H18.13a8.009,8.009,0,0,1,8,8,.533.533,0,0,0,.533.533h.387a3.817,3.817,0,0,1,3.871,3.483,3.706,3.706,0,0,1-1,2.8Zm0,0" transform="translate(0)" fill="#007041"/>
      <path id="Path_1527" data-name="Path 1527" d="M268.274,57.608a1.6,1.6,0,0,0-1.6-1.6h-1.067a1.6,1.6,0,1,0,0,3.2h1.067A1.6,1.6,0,0,0,268.274,57.608Zm-1.6.533h-1.067a.533.533,0,1,1,0-1.067h1.067a.533.533,0,1,1,0,1.067Zm0,0" transform="translate(-246.411 -52.267)" fill="#007041"/>
      <path id="Path_1528" data-name="Path 1528" d="M322.936,152.737a1.756,1.756,0,0,0-2.425,0,1.715,1.715,0,0,0,0,2.425l.836.836a1.715,1.715,0,1,0,2.425-2.425Zm.082,2.506a.662.662,0,0,1-.917,0l-.836-.836a.649.649,0,0,1,.917-.917l.836.836A.649.649,0,0,1,323.018,155.243Zm0,0" transform="translate(-298.678 -142.094)" fill="#007041"/>
    </g>
  </g>
</svg>
