<svg xmlns="http://www.w3.org/2000/svg" width="32" height="32" viewBox="0 0 32 32">
  <g id="tapete" transform="translate(-2194 -58)">
    <rect id="Rectangle_1355" data-name="Rectangle 1355" width="32" height="32" transform="translate(2194 58)" fill="rgba(255,255,255,0)"/>
    <g id="doormat" transform="translate(2194 64)">
      <path id="Path_1538" data-name="Path 1538" d="M29.375,0H6.935a.625.625,0,0,0,0,1.25h22.44A1.376,1.376,0,0,1,30.75,2.625v16A1.376,1.376,0,0,1,29.375,20H2.625A1.376,1.376,0,0,1,1.25,18.625v-16A1.385,1.385,0,0,1,2.581,1.251.625.625,0,0,0,2.542,0,2.645,2.645,0,0,0,0,2.625v16A2.628,2.628,0,0,0,2.625,21.25h26.75A2.628,2.628,0,0,0,32,18.625v-16A2.628,2.628,0,0,0,29.375,0Zm0,0" fill="#007041"/>
      <path id="Path_1539" data-name="Path 1539" d="M66.375,56.25A.625.625,0,0,0,67,55.625v-15A.625.625,0,0,0,66.375,40H40.625a.625.625,0,0,0-.625.625v15a.625.625,0,0,0,.625.625h21.44a.625.625,0,0,0,0-1.25H41.25V41.25h24.5V55.625A.625.625,0,0,0,66.375,56.25Zm0,0" transform="translate(-37.5 -37.5)" fill="#007041"/>
      <path id="Path_1540" data-name="Path 1540" d="M412.391,281.246h.017a.625.625,0,0,0,0-1.25h-.017a.625.625,0,0,0,0,1.25Zm0,0" transform="translate(-386.03 -262.496)" fill="#007041"/>
      <path id="Path_1549" data-name="Path 1549" d="M61.355,1.25h.017a.625.625,0,0,0,0-1.25h-.017a.625.625,0,0,0,0,1.25Zm0,0" transform="translate(-56.935)" fill="#007041"/>
    </g>
  </g>
</svg>
