<svg xmlns="http://www.w3.org/2000/svg" width="32" height="32" viewBox="0 0 32 32">
  <g id="tecido" transform="translate(-458 4899)">
    <rect id="Rectangle_2000" data-name="Rectangle 2000" width="32" height="32" transform="translate(458 -4899)" fill="rgba(255,255,255,0)"/>
    <g id="clothes" transform="translate(473.071 -4867.929) rotate(-135)">
      <path id="Path_1671" data-name="Path 1671" d="M62.475,308.656a.331.331,0,1,0-.662,0v1.437a.331.331,0,0,0,.662,0Zm0,0" transform="translate(-59.081 -294.698)" fill="#007041"/>
      <path id="Path_1672" data-name="Path 1672" d="M62.475,178.565a.331.331,0,0,0-.662,0V180a.331.331,0,1,0,.662,0Zm0,0" transform="translate(-59.081 -170.357)" fill="#007041"/>
      <path id="Path_1673" data-name="Path 1673" d="M62.144,373.371a.331.331,0,0,0-.331.331v1.437a.331.331,0,1,0,.662,0V373.7A.331.331,0,0,0,62.144,373.371Zm0,0" transform="translate(-59.081 -356.87)" fill="#007041"/>
      <path id="Path_1674" data-name="Path 1674" d="M62.475,243.609a.331.331,0,1,0-.662,0v1.437a.331.331,0,0,0,.662,0Zm0,0" transform="translate(-59.081 -232.526)" fill="#007041"/>
      <path id="Path_1675" data-name="Path 1675" d="M339.244,328.113a.331.331,0,1,0-.662,0v1.609a.331.331,0,0,0,.662,0Zm0,0" transform="translate(-323.619 -313.295)" fill="#007041"/>
      <path id="Path_1676" data-name="Path 1676" d="M338.913,400.609a.331.331,0,0,0-.331.331v1.609a.331.331,0,0,0,.662,0v-1.609A.331.331,0,0,0,338.913,400.609Zm0,0" transform="translate(-323.619 -382.905)" fill="#007041"/>
      <path id="Path_1677" data-name="Path 1677" d="M339.244,182.456a.331.331,0,0,0-.662,0v1.609a.331.331,0,1,0,.662,0Zm0,0" transform="translate(-323.619 -174.076)" fill="#007041"/>
      <path id="Path_1678" data-name="Path 1678" d="M339.244,255.284a.331.331,0,0,0-.662,0v1.609a.331.331,0,1,0,.662,0Zm0,0" transform="translate(-323.619 -243.686)" fill="#007041"/>
      <path id="Path_1679" data-name="Path 1679" d="M17.335,0H1.285A1.286,1.286,0,0,0,0,1.285V2.571a.331.331,0,1,0,.662,0V1.285A.623.623,0,0,1,1.285.662H15.892a1.9,1.9,0,0,0-.463,1.243V4.423a1.9,1.9,0,0,0,.463,1.243H1.285a.623.623,0,0,1-.622-.622v-.4a.331.331,0,1,0-.662,0v.4A1.287,1.287,0,0,0,1.036,6.3V20.129a.686.686,0,0,0,.682.684c.425,0,.855,0,1.278-.01a.323.323,0,0,0,.143,0l.356-.006a37.213,37.213,0,0,1,4.078.081,12.429,12.429,0,0,1,2.775.546c.352.117.708.263,1.053.4a10.04,10.04,0,0,0,1.968.65,9.711,9.711,0,0,0,1.845.106,11.833,11.833,0,0,1,1.352.042.684.684,0,0,0,.758-.681v-5.89a.331.331,0,0,0-.662,0v5.89a.022.022,0,0,1-.024.022,9.667,9.667,0,0,0-1.009-.046v-.664a.331.331,0,1,0-.662,0v.667a7.923,7.923,0,0,1-1.476-.1,9.4,9.4,0,0,1-1.837-.611c-.355-.145-.721-.3-1.095-.42a13.081,13.081,0,0,0-2.922-.577,37.736,37.736,0,0,0-4.151-.084H3.394v-.428a.331.331,0,0,0-.662,0v.438c-.337,0-.676.007-1.012.006a.022.022,0,0,1-.022-.022V6.329H2.732v.442a.331.331,0,0,0,.662,0V6.329H14.963v.442a.331.331,0,0,0,.662,0V6.329h1.033v7.683a.331.331,0,0,0,.662,0V6.329h.013a1.908,1.908,0,0,0,1.906-1.906V1.906A1.908,1.908,0,0,0,17.335,0Zm1.244,4.423a1.244,1.244,0,0,1-2.487,0V1.906a1.244,1.244,0,0,1,2.487,0Zm0,0" fill="#007041"/>
      <path id="Path_1680" data-name="Path 1680" d="M385.077,43.238a.331.331,0,0,0-.331.331v1.845a.331.331,0,0,0,.662,0V43.57A.331.331,0,0,0,385.077,43.238Zm0,0" transform="translate(-367.743 -41.327)" fill="#007041"/>
    </g>
  </g>
</svg>
