<svg xmlns="http://www.w3.org/2000/svg" width="32" height="32" viewBox="0 0 32 32">
  <g id="ventarola" transform="translate(-389 -274)">
    <g id="adesivo" transform="translate(-127 152)">
      <rect id="Rectangle_110" data-name="Rectangle 110" width="32" height="32" transform="translate(516 122)" fill="rgba(255,255,255,0)"/>
      <g id="free-delivery" transform="translate(516 122.5)">
        <path id="Path_107" data-name="Path 107" d="M2.064,22.177A15.057,15.057,0,0,1,24.241,3.888a.469.469,0,1,0,.514-.785A16,16,0,0,0,1.2,22.531a.469.469,0,1,0,.868-.355Zm0,0" transform="translate(0 -0.5)" fill="rgba(255,255,255,0)"/>
        <path id="Path_108" data-name="Path 108" d="M55.887,58.952a.469.469,0,0,0-.6.717,15.053,15.053,0,0,1,2.54,20.289,13.246,13.246,0,0,0-13.2-.4.469.469,0,0,0,.444.826,12.312,12.312,0,0,1,11.676.031c-4.3,1.132-12.084,3.183-16.323,4.3a12.6,12.6,0,0,1,3.122-3.367.469.469,0,0,0-.559-.753,13.548,13.548,0,0,0-3.729,4.246,15.173,15.173,0,0,1-6.823-6.337.469.469,0,0,0-.819.457,15.947,15.947,0,0,0,7.672,6.921c.257.107-1.012.365,17.37-4.477,1.464-.395,1.516-.355,1.656-.539A15.99,15.99,0,0,0,55.887,58.952Zm0,0" transform="translate(-29.583 -55.196)" fill="rgba(255,255,255,0)"/>
      </g>
    </g>
    <path id="Subtraction_8" data-name="Subtraction 8" d="M22.495,4758.59H9.505v-4.433L0,4747.516V4747a16,16,0,0,1,27.314-11.313A15.894,15.894,0,0,1,32,4747v.516l-9.505,6.641v4.432ZM16,4732.339a14.352,14.352,0,0,0-10.217,4.231,13.026,13.026,0,0,0-4.268,9.634v.466l9.62,6.578v4h9.73v-4l9.583-6.692v-.77a13.08,13.08,0,0,0-4.231-9.216A14.35,14.35,0,0,0,16,4732.339Z" transform="translate(389 -4455)" fill="#007041"/>
  </g>
</svg>
