<svg id="Camada_1" data-name="Camada 1" xmlns="http://www.w3.org/2000/svg" viewBox="0 0 198.5 36.64"><defs><style>.cls-1{fill:#c54946;}.cls-2{fill:#fff;}</style></defs><title>tag-tipo-negocio</title><polygon class="cls-1" points="183.25 36.64 0 36.64 0 0 183.25 0 198.5 18.32 183.25 36.64"/><path class="cls-2" d="M22.11,19.91v5.5H18.89V9.79H25a7,7,0,0,1,3.09.64,4.74,4.74,0,0,1,2.05,1.83,5.1,5.1,0,0,1,.72,2.7,4.48,4.48,0,0,1-1.57,3.62,6.54,6.54,0,0,1-4.35,1.32Zm0-2.61H25a2.83,2.83,0,0,0,1.95-.6A2.18,2.18,0,0,0,27.6,15a2.58,2.58,0,0,0-.68-1.86,2.53,2.53,0,0,0-1.87-.73H22.11Z"/><path class="cls-2" d="M45.89,18a9.43,9.43,0,0,1-.81,4,6.14,6.14,0,0,1-2.33,2.68,6.89,6.89,0,0,1-6.94,0A6.2,6.2,0,0,1,33.44,22a9.15,9.15,0,0,1-.85-4v-.77a9.37,9.37,0,0,1,.83-4.06,6.18,6.18,0,0,1,2.35-2.69,6.88,6.88,0,0,1,6.94,0,6.19,6.19,0,0,1,2.35,2.69,9.35,9.35,0,0,1,.83,4Zm-3.26-.71a6.57,6.57,0,0,0-.88-3.73,3.11,3.11,0,0,0-5,0,6.5,6.5,0,0,0-.89,3.69V18a6.66,6.66,0,0,0,.88,3.71,3.08,3.08,0,0,0,5,0A6.62,6.62,0,0,0,42.63,18Z"/><path class="cls-2" d="M54,19.69H51.44v5.72H48.23V9.79H54A6.56,6.56,0,0,1,58.3,11a4.26,4.26,0,0,1,1.5,3.49,4.8,4.8,0,0,1-.69,2.67,4.72,4.72,0,0,1-2.1,1.7l3.38,6.38v.15H56.94Zm-2.56-2.61H54a2.66,2.66,0,0,0,1.88-.62,2.2,2.2,0,0,0,.67-1.7A2.36,2.36,0,0,0,56,13,2.61,2.61,0,0,0,54,12.4H51.44Z"/><path class="cls-2" d="M80.41,25.41H77.19L70.93,15.13V25.41H67.71V9.79h3.22l6.27,10.3V9.79h3.21Z"/><path class="cls-2" d="M92.62,18.64H86.44v4.18h7.25v2.58H83.22V9.79H93.67V12.4H86.44v3.72h6.18Z"/><path class="cls-2" d="M107.93,23.43A5.58,5.58,0,0,1,105.48,25a10.28,10.28,0,0,1-3.52.57,7,7,0,0,1-3.56-.88A5.9,5.9,0,0,1,96,22.17a9,9,0,0,1-.85-4V17.15a9.6,9.6,0,0,1,.79-4,5.83,5.83,0,0,1,2.27-2.62,7.48,7.48,0,0,1,7.82.42,5.65,5.65,0,0,1,1.86,3.86H104.8a3.11,3.11,0,0,0-.95-2,3,3,0,0,0-2-.62,2.85,2.85,0,0,0-2.5,1.23,6.48,6.48,0,0,0-.87,3.67v1a6.17,6.17,0,0,0,.93,3.71A3.19,3.19,0,0,0,102.13,23a3.57,3.57,0,0,0,2.58-.77V19.57h-2.93V17.2h6.14Z"/><path class="cls-2" d="M123.37,18a9.44,9.44,0,0,1-.82,4,6.14,6.14,0,0,1-2.33,2.68,6.89,6.89,0,0,1-6.94,0A6.19,6.19,0,0,1,110.91,22a9.17,9.17,0,0,1-.85-4v-.77a9.37,9.37,0,0,1,.83-4.06,6.18,6.18,0,0,1,2.35-2.69,6.88,6.88,0,0,1,6.94,0,6.19,6.19,0,0,1,2.35,2.69,9.36,9.36,0,0,1,.83,4Zm-3.26-.71a6.56,6.56,0,0,0-.88-3.73,3.11,3.11,0,0,0-5,0,6.49,6.49,0,0,0-.89,3.69V18a6.65,6.65,0,0,0,.88,3.71,3.08,3.08,0,0,0,5,0,6.61,6.61,0,0,0,.88-3.71ZM117.34,5.61h3.38l-3,3.33h-2.52Z"/><path class="cls-2" d="M138,20.21a5.53,5.53,0,0,1-1.86,4,6.54,6.54,0,0,1-4.42,1.45,5.87,5.87,0,0,1-4.72-2,8.29,8.29,0,0,1-1.72-5.55v-1a9.36,9.36,0,0,1,.79-4,6,6,0,0,1,2.27-2.63,7.09,7.09,0,0,1,7.78.53A5.94,5.94,0,0,1,138,15.09h-3.22a3.27,3.27,0,0,0-.84-2.19,3.12,3.12,0,0,0-2.2-.68,2.74,2.74,0,0,0-2.41,1.15,6.47,6.47,0,0,0-.82,3.58v1.18a6.92,6.92,0,0,0,.77,3.7A2.68,2.68,0,0,0,131.68,23a3.18,3.18,0,0,0,2.23-.68,3.08,3.08,0,0,0,.84-2.11Z"/><path class="cls-2" d="M143.5,25.41h-3.22V9.79h3.22Z"/><path class="cls-2" d="M159.31,18a9.44,9.44,0,0,1-.82,4,6.14,6.14,0,0,1-2.33,2.68,6.89,6.89,0,0,1-6.94,0A6.19,6.19,0,0,1,146.85,22a9.17,9.17,0,0,1-.85-4v-.77a9.37,9.37,0,0,1,.83-4.06,6.18,6.18,0,0,1,2.35-2.69,6.88,6.88,0,0,1,6.94,0,6.19,6.19,0,0,1,2.35,2.69,9.36,9.36,0,0,1,.83,4ZM156,17.25a6.56,6.56,0,0,0-.88-3.73,3.11,3.11,0,0,0-5,0,6.49,6.49,0,0,0-.89,3.69V18a6.65,6.65,0,0,0,.88,3.71,3.08,3.08,0,0,0,5,0A6.61,6.61,0,0,0,156,18Z"/></svg>